<?xml version="1.0" encoding="UTF-8"?>
<!DOCTYPE svg PUBLIC "-//W3C//DTD SVG 1.1//EN" "http://www.w3.org/Graphics/SVG/1.1/DTD/svg11.dtd">
<!-- Creator: CorelDRAW -->
<svg xmlns="http://www.w3.org/2000/svg" xml:space="preserve" width="2048px" height="2048px" style="shape-rendering:geometricPrecision; text-rendering:geometricPrecision; image-rendering:optimizeQuality; fill-rule:evenodd; clip-rule:evenodd"
viewBox="0 0 2048 2048"
 xmlns:xlink="http://www.w3.org/1999/xlink">
 <defs>
  <style type="text/css">
   <![CDATA[
    .fil1 {fill:none}
    .fil0 {fill:#424242}
   ]]>
  </style>
 </defs>
 <g id="Layer_x0020_1">
  <metadata id="CorelCorpID_0Corel-Layer"/>
  <path class="fil0" d="M1251.89 1046.13l0 537.384 0 32.2689 -32.2689 0 -391.24 0 -32.2689 0 0 -32.2689 0 -537.384 0 -32.2689 32.2689 0 391.24 0 32.2689 0 0 32.2689zm-576.975 -128.518l-32.2677 0 0 -32.2689 0 -172.08 0 -32.2689 32.2677 0 120.456 0 32.2689 0 0 32.2689 0 172.08 0 32.2689 -32.2689 0 -120.456 0zm-69.6225 -312.898l-349.292 467.331 51.6792 38.5713 112.82 -150.946 0 782.521 0 32.2689 32.2689 0 1142.46 0 32.2689 0 0 -32.2689 0 -782.521 112.82 150.946 51.6792 -38.5713 -349.292 -467.331 -5.92441 -6.04961 -392.868 -309.431 -19.9158 -15.6862 -19.9158 15.6862 -392.868 309.431 -5.92441 6.04961zm562.049 280.629l0 32.2689 -32.2677 0 -222.145 0 -32.2677 0 0 -32.2689 0 -317.351 0 -32.2689 32.2677 0 222.145 0 32.2677 0 0 32.2689 0 317.351zm205.746 32.2689l-120.456 0 -32.2689 0 0 -32.2689 0 -172.08 0 -32.2689 32.2689 0 120.456 0 32.2677 0 0 32.2689 0 172.08 0 32.2689 -32.2677 0z"/>
  <polygon class="fil0" points="892.44,1078.39 1035.16,1274.81 1177.87,1078.39 "/>
  <polygon class="fil0" points="860.649,1144.27 860.649,1514.99 995.325,1329.63 "/>
  <polygon class="fil0" points="1035.16,1384.45 913.966,1551.24 1156.34,1551.24 "/>
  <polygon class="fil0" points="1187.35,1174.98 1074.98,1329.63 1187.35,1484.28 "/>
  <polygon class="fil0" points="912.927,885.341 1135.07,885.341 1135.07,567.988 912.927,567.988 "/>
  <polygon class="fil0" points="1252.63,885.341 1373.09,885.341 1373.09,713.259 1252.63,713.259 "/>
  <polygon class="fil0" points="674.913,885.341 795.371,885.341 795.371,713.259 674.913,713.259 "/>
 </g>
 <rect class="fil1" width="2048" height="2048"/>
</svg>
