<?xml version="1.0" encoding="UTF-8"?>
<!DOCTYPE svg PUBLIC "-//W3C//DTD SVG 1.1//EN" "http://www.w3.org/Graphics/SVG/1.1/DTD/svg11.dtd">
<!-- Creator: CorelDRAW -->
<svg xmlns="http://www.w3.org/2000/svg" xml:space="preserve" width="2048px" height="2048px" style="shape-rendering:geometricPrecision; text-rendering:geometricPrecision; image-rendering:optimizeQuality; fill-rule:evenodd; clip-rule:evenodd"
viewBox="0 0 2048 2048"
 xmlns:xlink="http://www.w3.org/1999/xlink">
 <defs>
  <style type="text/css">
   <![CDATA[
    .fil1 {fill:none}
    .fil0 {fill:#424242;fill-rule:nonzero}
   ]]>
  </style>
 </defs>
 <g id="Layer_x0020_1">
  <metadata id="CorelCorpID_0Corel-Layer"/>
  <g id="_280680256">
   <path id="_280680208" class="fil0" d="M1506.02 1032.41c-0.425197,136.687 -21.0638,272.394 -61.5296,407.138l-191.177 0 0.962599 -6.42756c19.6654,-132.416 29.6977,-265.823 29.9209,-400.227 0.22441,-134.295 -9.34843,-269.152 -28.8862,-404.573 -0.954331,-6.6189 -1.93347,-13.239 -2.93622,-19.8614l190.363 0c42.7607,142.103 63.7193,283.415 63.2823,423.951zm-285.034 407.138l-295.224 0 0 -831.089 294.301 0c1.24252,8.12245 2.45079,16.2425 3.62244,24.3614 19.3666,134.239 28.8567,267.595 28.6358,400.073 -0.219685,132.418 -10.1681,264.285 -29.6705,395.602 -0.546851,3.68504 -1.10315,7.3689 -1.66536,11.0528zm-327.225 0l-295.224 0c-0.562205,-3.68386 -1.1185,-7.36772 -1.66536,-11.0528 -19.5024,-131.317 -29.4508,-263.184 -29.6705,-395.602 -0.220866,-132.477 9.2693,-265.833 28.6358,-400.073 1.17165,-8.1189 2.37992,-16.239 3.62244,-24.3614l294.301 0 0 831.089zm-327.552 0l-191.178 0c-40.4658,-134.744 -61.1044,-270.451 -61.5296,-407.138 -0.437008,-140.536 20.5217,-281.848 63.2823,-423.951l190.364 0c-1.00276,6.62245 -1.98189,13.2425 -2.93622,19.8614 -19.5378,135.421 -29.1107,270.278 -28.8862,404.573 0.223229,134.405 10.2555,267.812 29.9209,400.227l0.962599 6.42756zm-179.424 -863.09c32.6244,-100.794 76.2024,-201.986 130.906,-303.58l9.08741 -16.8756 19.0382 0 96.8363 0c-29.6977,107.343 -53.1638,214.162 -70.4764,320.456l-185.392 0zm288.964 -320.456l218.012 0 0 320.456 -289.219 0c17.5205,-106.436 41.2311,-213.254 71.2075,-320.456zm250.012 0l218.012 0c29.9764,107.202 53.687,214.019 71.2075,320.456l-289.219 0 0 -320.456zm251.107 0l96.8351 0 19.0382 0 9.08741 16.8756c54.704,101.594 98.282,202.786 130.906,303.58l-185.391 0c-17.3126,-106.293 -40.7788,-213.112 -70.4764,-320.456zm257.627 1215.55c-32.9894,101.825 -77.2997,203.099 -132.791,303.831l-9.15946 16.6252 -18.841 0 -96.7111 0c30.0425,-106.36 53.8382,-213.179 71.3008,-320.456l186.202 0zm-290.687 320.456l-218.047 0 0 -320.456 290.147 0c-17.6776,107.372 -41.7414,214.19 -72.1004,320.456zm-250.048 0l-218.047 0c-30.3591,-106.266 -54.4229,-213.084 -72.1004,-320.456l290.147 0 0 320.456zm-251.231 0l-96.7123 0 -18.841 0 -9.15946 -16.6252c-55.4918,-100.732 -99.802,-202.005 -132.791,-303.831l186.203 0c17.4626,107.277 41.2583,214.096 71.3008,320.456z"/>
   <path id="_280680064" class="fil0" d="M1376.24 1568.09c-17.6728,0 -32.0008,14.328 -32.0008,32.0008 0,17.6728 14.328,32.0008 32.0008,32.0008l294.391 0 0 59.7733c0,17.6728 14.328,32.0008 32.0008,32.0008 17.6728,0 32.0008,-14.328 32.0008,-32.0008l0 -91.7741c0,-17.6728 -14.328,-32.0008 -32.0008,-32.0008l-326.392 0z"/>
   <polygon id="_280680376" class="fil0" points="1636.71,1469.53 1636.71,1600.09 1572.71,1600.09 1572.71,1469.53 "/>
   <polygon id="_280680448" class="fil0" points="1513.95,1437.53 1695.48,1437.53 1695.48,1501.53 1513.95,1501.53 "/>
  </g>
 </g>
 <rect class="fil1" width="2048" height="2048"/>
</svg>
