<?xml version="1.0" encoding="UTF-8"?>
<!DOCTYPE svg PUBLIC "-//W3C//DTD SVG 1.1//EN" "http://www.w3.org/Graphics/SVG/1.1/DTD/svg11.dtd">
<!-- Creator: CorelDRAW -->
<svg xmlns="http://www.w3.org/2000/svg" xml:space="preserve" width="2048px" height="2048px" style="shape-rendering:geometricPrecision; text-rendering:geometricPrecision; image-rendering:optimizeQuality; fill-rule:evenodd; clip-rule:evenodd"
viewBox="0 0 2048 2048"
 xmlns:xlink="http://www.w3.org/1999/xlink">
 <defs>
  <style type="text/css">
   <![CDATA[
    .fil2 {fill:none}
    .fil1 {fill:#424242}
    .fil0 {fill:#424242;fill-rule:nonzero}
   ]]>
  </style>
 </defs>
 <g id="Layer_x0020_1">
  <metadata id="CorelCorpID_0Corel-Layer"/>
  <path class="fil0" d="M541.463 1064.7c9.3756,-71.2914 6.40158,-128.839 -1.73977,-173.882 -15.5091,-85.8024 -47.2618,-122.042 -47.7331,-122.517l-1.00039 -1.12441c-5.98937,-6.60709 -10.5673,-14.1697 -13.6784,-22.213 -3.11811,-8.06457 -4.81063,-16.7433 -5.0067,-25.5142l-0.125197 -0.624804 0 -2.03622 0.125197 -0.624804c0.145276,-6.25158 0.96378,-12.2693 2.46614,-17.8701 1.50354,-5.61024 3.77126,-11.2264 6.81851,-16.7043l0.00944883 0.00590552c8.09056,-14.6457 20.3965,-25.1008 34.4422,-30.4229 14.8878,-5.64331 31.3843,-5.54292 46.826,1.30748l-0.0200788 0.0472441c114.34,50.2406 181.857,145.065 221,228.794 38.3693,82.0784 49.4906,153.741 50.4957,160.449 11.9138,69.2847 16.3004,137.654 20.3788,201.262 10.5591,164.659 18.8362,293.678 166.299,293.678 151.98,0 160.898,-131.203 172.231,-297.976 4.26024,-62.7024 8.82993,-129.917 20.5784,-198.092 0.924804,-6.24922 12.0225,-77.3835 50.3244,-158.96 39.1418,-83.3658 106.697,-177.976 221.084,-228.181l0.00590552 0.0129921c15.4595,-6.8504 31.9311,-6.91772 46.7552,-1.27441 14.0185,5.33859 26.3717,15.8421 34.4953,30.4831l0.125197 0.124016c7.52835,13.6819 10.3358,29.3244 8.68701,44.2678 -1.65,14.9445 -7.77402,29.4177 -18.111,40.8331 -6.69213,8.00788 -77.2548,96.4394 -50.6433,297.503l0.250394 1.87559c24.7134,338.181 -95.3068,553.689 -258.669,655.545 -81.1465,50.5949 -172.915,73.0146 -263.204,68.4662 -90.3638,-4.55197 -179.172,-36.0709 -254.316,-93.3414 -149.126,-113.654 -244.392,-328.25 -189.15,-633.297z"/>
  <path class="fil1" d="M1345.3 710.195c-21.137,-179.345 -82.3548,-288.095 -144.441,-353.659 -156.025,-164.766 -318.011,-109.799 -429.698,96.3343 -33.4855,61.8024 -61.2449,143.284 -74.6008,250.566 48.7099,45.7323 87.1784,102.097 116.275,164.335 24.2575,51.8918 43.9583,112.088 53.1,168.919 10.8957,67.728 16.3335,135.894 20.7189,204.297 3.15,49.1221 5.6941,101.276 15.3484,149.539 6.07678,30.378 16.6158,66.4654 39.75,88.4965 21.4099,20.3906 50.6528,25.6902 79.2674,25.6902 30.1866,0 61.0252,-5.6126 83.517,-27.2433 23.5429,-22.6417 34.4103,-59.1355 40.7386,-90.2186 9.90473,-48.6437 12.6839,-101.154 16.0488,-150.684 4.57205,-67.2804 10.2378,-134.348 20.9079,-200.982 8.9882,-56.1284 28.9335,-116.336 52.9559,-167.501 27.8929,-59.4095 64.3595,-113.405 110.112,-157.89zm-251.365 -147.853c0,-17.0504 13.8225,-30.8729 30.8729,-30.8729 17.0516,0 30.874,13.8225 30.874,30.8729 0,17.0516 -13.8225,30.874 -30.874,30.874 -17.0504,0 -30.8729,-13.8225 -30.8729,-30.874zm88.6394 123.497c-17.0504,0 -30.874,-13.8225 -30.874,-30.8729 0,-17.0516 13.8236,-30.874 30.874,-30.874 17.0516,0 30.874,13.8225 30.874,30.874 0,17.0504 -13.8225,30.8729 -30.874,30.8729zm-103.188 -61.7469c17.0504,0 30.8729,13.8225 30.8729,30.874 0,17.0504 -13.8225,30.8729 -30.8729,30.8729 -17.0516,0 -30.874,-13.8225 -30.874,-30.8729 0,-17.0516 13.8225,-30.874 30.874,-30.874zm-95.5028 -61.7504c0,-17.0504 13.8225,-30.8729 30.874,-30.8729 17.0504,0 30.8729,13.8225 30.8729,30.8729 0,17.0516 -13.8225,30.874 -30.8729,30.874 -17.0516,0 -30.874,-13.8225 -30.874,-30.874zm-14.5488 61.7504c17.0504,0 30.874,13.8225 30.874,30.874 0,17.0504 -13.8236,30.8729 -30.874,30.8729 -17.0516,0 -30.874,-13.8225 -30.874,-30.8729 0,-17.0516 13.8225,-30.874 30.874,-30.874zm-110.05 206.555c17.0504,0 30.874,13.8225 30.874,30.8729 0,17.0516 -13.8236,30.874 -30.874,30.874 -17.0528,0 -30.874,-13.8225 -30.874,-30.874 0,-17.0504 13.8213,-30.8729 30.874,-30.8729zm110.05 -103.278c17.0504,0 30.874,13.8236 30.874,30.874 0,17.0516 -13.8236,30.874 -30.874,30.874 -17.0516,0 -30.874,-13.8225 -30.874,-30.874 0,-17.0504 13.8225,-30.874 30.874,-30.874zm0 103.278c17.0504,0 30.874,13.8225 30.874,30.8729 0,17.0516 -13.8236,30.874 -30.874,30.874 -17.0516,0 -30.874,-13.8225 -30.874,-30.874 0,-17.0504 13.8225,-30.8729 30.874,-30.8729zm0 103.277c17.0504,0 30.874,13.8225 30.874,30.874 0,17.0504 -13.8236,30.874 -30.874,30.874 -17.0516,0 -30.874,-13.8236 -30.874,-30.874 0,-17.0516 13.8225,-30.874 30.874,-30.874zm0 122.406c17.0504,0 30.874,13.8236 30.874,30.874 0,17.0504 -13.8236,30.874 -30.874,30.874 -17.0516,0 -30.874,-13.8236 -30.874,-30.874 0,-17.0504 13.8225,-30.874 30.874,-30.874zm0 123.497c17.0504,0 30.874,13.8225 30.874,30.874 0,17.0516 -13.8236,30.874 -30.874,30.874 -17.0516,0 -30.874,-13.8225 -30.874,-30.874 0,-17.0516 13.8225,-30.874 30.874,-30.874zm0 154.371c17.0504,0 30.874,13.8225 30.874,30.874 0,17.0504 -13.8236,30.8729 -30.874,30.8729 -17.0516,0 -30.874,-13.8225 -30.874,-30.8729 0,-17.0516 13.8225,-30.874 30.874,-30.874zm79.1776 -369.401c0,-17.0516 13.8225,-30.874 30.874,-30.874 17.0504,0 30.8729,13.8225 30.8729,30.874 0,17.0504 -13.8225,30.874 -30.8729,30.874 -17.0516,0 -30.874,-13.8236 -30.874,-30.874zm0 122.406c0,-17.0504 13.8225,-30.874 30.874,-30.874 17.0504,0 30.8729,13.8236 30.8729,30.874 0,17.0504 -13.8225,30.874 -30.8729,30.874 -17.0516,0 -30.874,-13.8236 -30.874,-30.874zm30.874 92.6233c17.0504,0 30.8729,13.8225 30.8729,30.874 0,17.0516 -13.8225,30.874 -30.8729,30.874 -17.0516,0 -30.874,-13.8225 -30.874,-30.874 0,-17.0516 13.8225,-30.874 30.874,-30.874zm0 154.371c17.0504,0 30.8729,13.8225 30.8729,30.874 0,17.0504 -13.8225,30.8729 -30.8729,30.8729 -17.0516,0 -30.874,-13.8225 -30.874,-30.8729 0,-17.0516 13.8225,-30.874 30.874,-30.874zm72.3142 -575.956c0,-17.0504 13.8236,-30.874 30.874,-30.874 17.0516,0 30.874,13.8236 30.874,30.874 0,17.0516 -13.8225,30.874 -30.874,30.874 -17.0504,0 -30.874,-13.8225 -30.874,-30.874zm30.874 72.404c17.0516,0 30.874,13.8225 30.874,30.8729 0,17.0516 -13.8225,30.874 -30.874,30.874 -17.0504,0 -30.874,-13.8225 -30.874,-30.874 0,-17.0504 13.8236,-30.8729 30.874,-30.8729zm-246.995 -268.305c0,17.0516 -13.8225,30.874 -30.8729,30.874 -17.0528,0 -30.8752,-13.8225 -30.8752,-30.874 0,-17.0504 13.8225,-30.8729 30.8752,-30.8729 17.0504,0 30.8729,13.8225 30.8729,30.8729zm-76.2957 165.027c17.0504,0 30.874,13.8236 30.874,30.874 0,17.0516 -13.8236,30.874 -30.874,30.874 -17.0528,0 -30.874,-13.8225 -30.874,-30.874 0,-17.0504 13.8213,-30.874 30.874,-30.874zm0 -103.277c17.0504,0 30.874,13.8225 30.874,30.874 0,17.0504 -13.8236,30.8729 -30.874,30.8729 -17.0528,0 -30.874,-13.8225 -30.874,-30.8729 0,-17.0516 13.8213,-30.874 30.874,-30.874zm189.228 134.151c0,-17.0504 13.8225,-30.874 30.874,-30.874 17.0504,0 30.8729,13.8236 30.8729,30.874 0,17.0516 -13.8225,30.874 -30.8729,30.874 -17.0516,0 -30.874,-13.8225 -30.874,-30.874zm30.874 72.404c17.0504,0 30.8729,13.8225 30.8729,30.8729 0,17.0516 -13.8225,30.874 -30.8729,30.874 -17.0516,0 -30.874,-13.8225 -30.874,-30.874 0,-17.0504 13.8225,-30.8729 30.874,-30.8729z"/>
 </g>
 <rect class="fil2" width="2048" height="2048"/>
</svg>
