<?xml version="1.0" encoding="UTF-8"?>
<!DOCTYPE svg PUBLIC "-//W3C//DTD SVG 1.1//EN" "http://www.w3.org/Graphics/SVG/1.1/DTD/svg11.dtd">
<!-- Creator: CorelDRAW -->
<svg xmlns="http://www.w3.org/2000/svg" xml:space="preserve" width="2048px" height="2048px" style="shape-rendering:geometricPrecision; text-rendering:geometricPrecision; image-rendering:optimizeQuality; fill-rule:evenodd; clip-rule:evenodd"
viewBox="0 0 2048 2048"
 xmlns:xlink="http://www.w3.org/1999/xlink">
 <defs>
  <style type="text/css">
   <![CDATA[
    .fil1 {fill:none}
    .fil0 {fill:#424242}
   ]]>
  </style>
 </defs>
 <g id="Layer_x0020_1">
  <metadata id="CorelCorpID_0Corel-Layer"/>
  <g id="_277420336">
   <path id="_277420432" class="fil0" d="M446.544 866.6c0,0 -16.9595,-22.2874 -37.3087,-5.32914 0,0 -32.4638,-16.474 -48.4536,-1.93701 0,0 -10.8059,26.0693 -49.7386,14.2453 0,0 -9.85867,-0.680315 -24.3957,-7.46339 0,0 -2.66339,-11.8689 -7.26615,-15.0201 0,0 -15.5079,-4.11733 -23.2583,-16.9583 0,0 -4.60394,-30.2823 42.3957,-68.5619l42.1548 -52.8142c0,0 0.972048,-16.9583 8.96694,-25.9217 0,0 0.726379,-25.4386 20.1071,-37.0666l20.3504 -22.5307 1.21181 -12.5976 11.387 -6.78426 2.42244 -17.2016c0,0 -1.45276,-4.84489 10.6595,-4.84489l13.8095 0.242126 3.39213 -2.17914 8.2382 0 -0.242126 4.60276 18.8965 0 1.45276 5.32914c0,0 23.015,-1.21181 20.3504,-0.484252 -9.84922,2.69173 222.062,71.3835 354.249,41.9138 0,0 156.474,-2.94331 261.768,18.8232 0,0 345.47,6.75119 405.705,-23.3669 0,0 131.355,-2.51339 171.356,51.6036 0,0 69.5847,8.63268 69.5847,129.103l-4.65709 198.17c22.0217,15.4807 43.728,50.9079 43.728,50.9079 -2.05512,5.49685 -21.3012,-13.474 -21.3012,-13.474 5.08701,1.92402 24.7453,47.2902 24.7453,47.2902 13.7469,37.3925 -4.40197,70.6607 -4.40197,70.6607 -2.19921,-9.21024 -6.18662,-8.66103 -6.18662,-8.66103 0.823229,20.6209 -12.9225,34.9193 -12.9225,34.9193 7.42442,-17.5961 0.549213,-40.6926 0.549213,-40.6926 -13.1965,24.7453 -5.22284,57.4642 -5.22284,57.4642 -18.1465,-13.4717 -12.9236,-53.4768 -12.9236,-53.4768 10.1728,-38.7685 -12.3756,-62.413 -12.3756,-62.413 9.34961,37.6677 -17.8713,74.7839 -17.8713,74.7839 15.2421,-25.7138 1.65,-92.9292 1.65,-92.9292 -7.02875,-17.5725 3.75,-60.9296 4.1126,-62.3741l-2.36929 -146.925c0,0 -1.17756,-120.589 -20.589,-100 0,0 -38.739,153.718 -26.4685,265.881 0,0 18.8291,88.2367 34.1233,109.414 0,0 5.29489,19.4091 -34.7044,125.294l-17.0587 75.8847 -7.05827 72.9414c-6.61418,9.07324 -14.563,16.8118 -23.5299,23.5288l-4.04292 53.6741 -109.413 1.76457c0,0 1.76575,-59.4119 74.1178,-104.706 0,0 19.9358,-60.9579 14.7095,-138.236l-17.0575 -42.9426 -78.5221 146.371c0,0 2.05748,57.7489 -40.8851,76.5721 0,0 -16.1752,26.4697 -6.17599,42.0591 0,0 6.47008,24.1169 -27.3532,19.9996l-87.3532 0c0,0 14.4095,-61.1764 63.2339,-78.8245 0,0 24.7087,-12.3508 50.0032,-94.7044 0,0 23.9433,-62.1922 21.1772,-134.118 -7.20119,-0.3 -13.5248,-0.265748 -19.1728,-0.0259843l1.05118 28.1693c0.200788,5.38465 -4.04055,9.95434 -9.42639,10.1551l-0.0011811 0c-5.38465,0.200788 -9.95434,-4.03937 -10.1563,-9.4252l-1.01102 -27.1087c-1.79528,0.246851 -3.52087,0.500788 -5.17796,0.753544l0.767717 20.5559c0.157087,4.19646 -3.14764,7.75631 -7.3441,7.91339l-0.0011811 0c-4.19764,0.157087 -7.75749,-3.14646 -7.91457,-7.3441l-0.711024 -19.0417c-2.1248,0.187795 -4.22953,0.294095 -6.36378,0.288189l0.804331 21.541c0.200788,5.38583 -4.04055,9.95552 -9.42639,10.1575l0 0c-5.38583,0.200788 -9.95552,-4.04055 -10.1563,-9.42639l-0.957875 -25.6831c-3.00709,-0.993308 -6.22441,-2.22992 -9.73583,-3.77717l0.664961 17.8146c0.151181,4.0441 -3.03544,7.47638 -7.08071,7.62638l-0.0011811 0.0011811c-4.0441,0.15 -7.47638,-3.03544 -7.62756,-7.07953l-0.96378 -25.8461c-13.3772,-7.3063 -30.3036,-17.9634 -52.852,-33.3048 0,0 -124.593,65.1461 -321.854,31.3961 0,0 -65.4957,-13.1599 -100.201,8.60434 0,0 11.8146,42.3225 -20.2689,81.7489l-6.78426 152.955 -18.8244 21.7654c0,0 2.35276,53.53 -6.47008,51.1772l-96.4713 2.35276c0,0 9.41103,-44.7059 48.2351,-75.2953l20.0799 -32.4851 -25.3736 -134.574 -24.1181 89.4119c0,0 -1.02047,67.0737 -5.88189,71.1768l-23.2347 27.9402 -3.52914 54.7063 -102.94 -1.17638c0,0 24.6874,-55.3418 59.706,-96.4713l23.5323 -42.3532 -8.23583 -108.236 -6.47008 -51.176c0,0 -59.8359,-29.1071 -77.0575,-130.002l-47.3398 -100.895c-13.2307,-54.2965 -62.6422,-108.425 -123.206,-95.3883z"/>
   <path id="_277420648" class="fil0" d="M466.823 677.233c0,0 44.1803,-141.784 110.075,-119.989 65.8938,21.7949 -79.1717,136.636 -79.1717,136.636l-30.9036 -16.6465z"/>
  </g>
 </g>
 <rect class="fil1" width="2048" height="2048"/>
</svg>
