<?xml version="1.0" encoding="UTF-8"?>
<!DOCTYPE svg PUBLIC "-//W3C//DTD SVG 1.1//EN" "http://www.w3.org/Graphics/SVG/1.1/DTD/svg11.dtd">
<!-- Creator: CorelDRAW -->
<svg xmlns="http://www.w3.org/2000/svg" xml:space="preserve" width="2048px" height="2048px" style="shape-rendering:geometricPrecision; text-rendering:geometricPrecision; image-rendering:optimizeQuality; fill-rule:evenodd; clip-rule:evenodd"
viewBox="0 0 2048 2048"
 xmlns:xlink="http://www.w3.org/1999/xlink">
 <defs>
  <style type="text/css">
   <![CDATA[
    .fil1 {fill:none}
    .fil0 {fill:#424242;fill-rule:nonzero}
   ]]>
  </style>
 </defs>
 <g id="Layer_x0020_1">
  <metadata id="CorelCorpID_0Corel-Layer"/>
  <g id="_375933384">
   <polygon id="_375933600" class="fil0" points="778.802,1165.77 711.358,1495.92 706.125,1521.55 680.109,1521.55 484.839,1521.55 458.824,1521.55 453.59,1495.92 386.146,1165.77 448.646,1153.01 716.303,1153.01 "/>
   <polygon id="_375933576" class="fil0" points="1661.85,1165.77 1594.41,1495.92 1589.17,1521.55 1563.16,1521.55 1367.89,1521.55 1341.87,1521.55 1336.64,1495.92 1269.2,1165.77 1331.7,1153.01 1599.35,1153.01 "/>
   <polygon id="_375933624" class="fil0" points="318.668,948.637 1729.33,948.637 1760,948.637 1760,979.305 1760,1159.39 1760,1190.06 1729.33,1190.06 318.668,1190.06 288,1190.06 288,1159.39 288,979.305 288,948.637 "/>
  </g>
  <g id="_280680352">
   <path id="_375933360" class="fil0" d="M1695.73 916.639c0.35315,-4.93347 0.53504,-9.91182 0.53504,-14.9327 0,-60.6213 -27.8398,-158.281 -69.7288,-232.272 -36.2398,-64.0099 -84.4808,-112.312 -138.663,-112.312 -54.1583,0 -102.385,48.3107 -138.615,112.326 -41.8725,73.9902 -69.7087,171.639 -69.7087,232.258 0,5.02087 0.18189,10.0004 0.532678,14.9327 131.928,0 283.718,0 415.648,0z"/>
   <path id="_375933048" class="fil0" d="M1231.82 916.639c0.35315,-4.93347 0.53504,-9.91182 0.53504,-14.9327 0,-60.6213 -27.8398,-158.281 -69.7288,-232.272 -36.2398,-64.0099 -84.4808,-112.312 -138.663,-112.312 -54.1583,0 -102.385,48.3107 -138.615,112.326 -41.8725,73.9902 -69.7087,171.639 -69.7087,232.258 0,5.02087 0.18189,10.0004 0.532678,14.9327 131.928,0 283.718,0 415.648,0z"/>
   <path id="_375933192" class="fil0" d="M767.917 916.639c0.35315,-4.93347 0.53504,-9.91182 0.53504,-14.9327 0,-60.6213 -27.8398,-158.281 -69.7288,-232.272 -36.2398,-64.0099 -84.4808,-112.312 -138.663,-112.312 -54.1583,0 -102.385,48.3107 -138.615,112.326 -41.8725,73.9902 -69.7087,171.639 -69.7087,232.258 0,5.02087 0.18189,10.0004 0.532678,14.9327 131.928,0 283.718,0 415.648,0z"/>
  </g>
 </g>
 <rect class="fil1" width="2048" height="2048"/>
</svg>
