<?xml version="1.0" encoding="UTF-8"?>
<!DOCTYPE svg PUBLIC "-//W3C//DTD SVG 1.1//EN" "http://www.w3.org/Graphics/SVG/1.1/DTD/svg11.dtd">
<!-- Creator: CorelDRAW -->
<svg xmlns="http://www.w3.org/2000/svg" xml:space="preserve" width="2048px" height="2048px" style="shape-rendering:geometricPrecision; text-rendering:geometricPrecision; image-rendering:optimizeQuality; fill-rule:evenodd; clip-rule:evenodd"
viewBox="0 0 2048 2048"
 xmlns:xlink="http://www.w3.org/1999/xlink">
 <defs>
  <style type="text/css">
   <![CDATA[
    .fil3 {fill:none}
    .fil2 {fill:#424242}
    .fil0 {fill:#212121;fill-rule:nonzero}
    .fil1 {fill:#424242;fill-rule:nonzero}
   ]]>
  </style>
 </defs>
 <g id="Layer_x0020_1">
  <metadata id="CorelCorpID_0Corel-Layer"/>
  <g id="_375933912">
   <path id="_375932688" class="fil0" d="M1530.67 848.831c-0.0177165,0.11811 -0.0283465,0.185433 0,0.00708662l0 -0.00708662z"/>
   <path id="_375933000" class="fil1" d="M1623.53 1115.76c0,27.815 -5.53583,55.1138 -16.0949,80.6575 -9.17953,22.2083 -22.1433,42.9331 -38.5429,61.3465l-0.0011811 299.801 0.11811 0c0,19.4764 -7.91575,37.1268 -20.6929,49.9016 -12.7795,12.7807 -30.4359,20.6953 -49.904,20.6953 -19.4764,0 -37.1303,-7.91339 -49.9063,-20.6906 -12.7784,-12.7784 -20.6906,-30.4299 -20.6906,-49.9063l0 -226.298 -0.341339 0.0401575c-1.51654,1.23543 -33.4004,2.42362 -34.8827,3.55866l-0.468898 0.360236 -0.0011811 128.828 0.11811 0c0,19.4788 -7.91221,37.1292 -20.6906,49.9075 -12.776,12.7772 -30.4288,20.6906 -49.9063,20.6906 -19.4705,0 -37.1256,-7.91339 -49.9052,-20.6941 -12.7748,-12.7772 -20.6929,-30.4264 -20.6929,-49.904l0 -82.8131c-46.18,-18.1358 -76.3205,-11.3622 -125.56,-0.0791339l0 0.119291c-19.1516,0 -38.1792,-2.4189 -56.5737,-7.1256 -14.8358,-3.79725 -29.2878,-9.10749 -43.0866,-15.8658 -1.28504,0.357874 -2.55945,0.698032 -3.82441,1.0252l-0.0011811 198.251 0.119291 0c0,19.4764 -7.91339,37.128 -20.6917,49.9063 -12.7784,12.7772 -30.4323,20.6906 -49.9075,20.6906 -19.4764,0 -37.128,-7.91339 -49.9063,-20.6906 -12.7748,-12.7784 -20.6894,-30.4299 -20.6894,-49.9063l0 -207.349c-4.44922,-1.78465 -8.85591,-3.72048 -13.2165,-5.80512l0 119.642c0,19.4776 -7.91694,37.128 -20.6929,49.904 -12.7807,12.7807 -30.4347,20.6941 -49.9052,20.6941 -19.4764,0 -37.1292,-7.91339 -49.9063,-20.6906 -12.776,-12.7784 -20.6906,-30.4288 -20.6906,-49.9075l0 -213.646c-23.2689,-17.5665 -42.5941,-39.3213 -57.0237,-63.6686 -14.9398,-25.2083 -24.7441,-53.2985 -28.3748,-82.5142 -21.2008,-18.0685 -38.4922,-39.737 -51.1937,-63.7276 -2.53819,-4.79646 -4.89331,-9.68977 -7.05945,-14.6658 2.88071,-1.00984 5.74134,-2.06339 8.58308,-3.15473 38.4744,-14.7851 75.1099,-37.0902 108.614,-60.9248 37.578,-26.7343 72.8634,-56.6882 107.119,-87.5198 13.1752,-11.8595 26.1874,-23.8878 39.3118,-35.8028 7.79056,-7.07245 16.1091,-14.8795 24.5209,-21.1819l6.3567 -4.76103 3.21378 -7.26024c2.66693,-6.02835 5.31733,-12.0662 7.86497,-18.1477 3.7252,-8.89016 7.30512,-17.8429 10.7658,-26.8418 15.3319,-6.98741 30.2103,-15.0662 44.6138,-23.7473 14.8465,-8.94686 29.4319,-18.6165 43.3855,-28.9063 8.78032,-6.47481 17.2925,-13.3134 25.5874,-20.3988 7.62756,-6.51733 15.0602,-13.3512 22.0429,-20.5583 9.98387,-10.3039 18.541,-21.0933 25.5614,-33.6709 10.598,-18.9898 16.0288,-39.8859 14.8205,-61.213 10.7929,-1.57677 21.6626,-2.3752 32.5288,-2.3752 12.5882,0 25.2898,1.08189 38.0055,3.22441 9.59646,1.61693 19.1221,3.87284 28.5319,6.75709 9.41457,-2.88425 18.9378,-5.14016 28.5331,-6.75827 12.711,-2.14134 25.4055,-3.22323 37.9925,-3.22323 23.1957,0 46.0359,3.51142 67.9075,10.3465 19.0642,5.9563 37.2496,14.4024 54.1477,25.213 4.31457,-0.167717 7.0193,-0.248032 8.16497,-0.248032 248.721,0 252.496,322.36 252.496,511.082z"/>
   <path id="_375932568" class="fil2" d="M544.908 668.565c14.5725,0 26.4603,-18.15 26.4603,-40.6701 0,-22.4079 -11.8878,-40.6689 -26.4603,-40.6689 -14.6882,0 -26.5772,18.261 -26.5772,40.6689 0,22.5201 11.889,40.6701 26.5772,40.6701zm162.236 21.0626c14.5795,0 26.4626,-18.15 26.4626,-40.6701 0,-22.4067 -11.8831,-40.6689 -26.4614,-40.6689 -14.6882,-0.0011811 -26.5713,18.2622 -26.5713,40.6689 0,22.5201 11.8831,40.6701 26.5701,40.6701zm-445.016 -202.342c10.3181,-24.5351 33.0815,-40.4445 59.8784,-50.4178 31.5047,-11.7638 69.4064,-15.6839 95.0824,-15.6839 3.02362,0 7.39607,0.111024 12.8882,0.447638 4.14803,0.111024 8.413,0.448819 12.6732,0.896457 16.0311,1.4563 30.9473,4.48347 44.7355,8.73898 9.64489,3.02481 18.8374,6.72284 27.6981,11.0906 15.9201,-6.72166 32.4,-11.8748 49.4445,-15.5705 21.4158,-4.59449 43.8414,-6.94961 66.9343,-6.94961l0.205512 0c4.34528,0.00708662 9.88347,0.227953 16.5024,0.451181 5.38347,0.335433 10.989,0.78189 16.8177,1.34291 30.052,2.80158 58.0796,8.62678 83.9823,17.3658 22.4268,7.61812 43.278,17.2547 62.2288,29.0185 8.6315,-1.90512 17.4874,-3.3626 26.4614,-4.03347 12.7807,-1.1185 26.4567,-1.00748 40.8095,0.448819 28.2579,2.68819 72.2079,13.5543 106.181,31.8189 29.3752,15.6839 52.6973,37.5331 58.7528,65.9906l0 0.111024c4.6004,21.7358 -1.1185,40.7823 -9.53268,55.7965 -7.28623,13.1067 -16.0311,22.2957 -20.8512,27.3366 -5.72008,5.8252 -12.4453,12.2126 -19.9583,18.5977 -7.17638,6.163 -15.2469,12.6614 -23.8831,19.0477 -8.0752,5.93741 -22.65,16.3559 -41.0363,27.3366 -15.4736,9.40985 -33.6378,19.1599 -52.8107,27.0012 -4.82363,12.9957 -9.75355,25.6559 -14.9102,37.8709 -2.46851,5.93741 -5.04685,11.7626 -7.6252,17.5902 -75.4335,56.5028 -494.306,532.797 -513.189,-140.275l-2.12717 -7.39253 -51.2433 -55.9075 0.112205 0c-0.783071,-1.12087 -9.64016,-13.1091 -9.30355,-13.3323 -6.72756,-10.3087 -13.6795,-22.5201 -17.6079,-36.1878 -2.13189,-7.363 -3.41221,-15.0461 -3.43701,-22.9677 -0.0295276,-9.56221 1.7752,-19.4717 6.12756,-29.5807z"/>
   <path id="_375933960" class="fil1" d="M1489.94 660.271c-34.702,-2.58544 -64.93,23.4496 -67.5154,58.1504 -2.58544,34.7008 23.4496,64.93 58.1504,67.5154 0.458268,0.0354331 97.1859,11.6339 140.32,122.425 18.8953,48.5315 53.8784,166.122 101.805,169.88 34.7008,2.72008 65.041,-23.204 67.7611,-57.906 26.5843,-339.107 -299.586,-359.996 -300.521,-360.065z"/>
  </g>
 </g>
 <rect class="fil3" width="2048" height="2048"/>
</svg>
