<?xml version="1.0" encoding="UTF-8"?>
<!DOCTYPE svg PUBLIC "-//W3C//DTD SVG 1.1//EN" "http://www.w3.org/Graphics/SVG/1.1/DTD/svg11.dtd">
<!-- Creator: CorelDRAW -->
<svg xmlns="http://www.w3.org/2000/svg" xml:space="preserve" width="2048px" height="2048px" style="shape-rendering:geometricPrecision; text-rendering:geometricPrecision; image-rendering:optimizeQuality; fill-rule:evenodd; clip-rule:evenodd"
viewBox="0 0 2048 2048"
 xmlns:xlink="http://www.w3.org/1999/xlink">
 <defs>
  <style type="text/css">
   <![CDATA[
    .fil2 {fill:none}
    .fil1 {fill:#424242}
    .fil0 {fill:#424242;fill-rule:nonzero}
   ]]>
  </style>
 </defs>
 <g id="Layer_x0020_1">
  <metadata id="CorelCorpID_0Corel-Layer"/>
  <path class="fil0" d="M445.927 825.888l315.18 0c14.3256,0 26.4532,9.41457 30.5327,22.3925l64.35 160.877 171.412 4.66418 -74.9493 -174.884 -0.0708662 0.0307087c-6.47953,-15.1181 -0.408662,-32.4603 13.5602,-40.4044l200.107 -139.682 18.2504 26.1248 -18.3165 -26.2394c9.34489,-6.52323 20.9599,-7.363 30.7441,-3.25158l489.263 172.241 0.0188977 -0.0531496c13.3488,4.69843 21.6201,17.3528 21.3744,30.7677l0 210.187 76.9926 91.0099 -24.3756 20.6256 24.4311 -20.6681c11.4142,13.4929 9.72993,33.6851 -3.763,45.0992 -2.74016,2.31851 -5.75788,4.09607 -8.92087,5.34449l-101.05 48.6496 -1.15039 4.08426c-9.46182,-17.4579 -21.476,-33.6331 -35.8252,-47.9823 -39.0555,-39.0567 -91.6194,-60.8363 -146.863,-60.8363 -55.2426,0 -107.806,21.7807 -146.862,60.8351 -39.0544,39.0555 -60.8351,91.6194 -60.8351,146.862 0,40.6701 11.8051,79.8875 33.6177,113.333l-298.83 5.87717 0.00236221 0.11811c-1.03701,0.0200788 -2.06221,-0.0106299 -3.07677,-0.0874016l-267.235 3.09331c44.302,-48.3886 68.8441,-111.297 68.8441,-177.248 0,-69.8575 -27.5315,-136.304 -76.9194,-185.693 -49.389,-49.3878 -115.836,-76.9194 -185.693,-76.9194 -69.8575,0 -136.304,27.5315 -185.693,76.9194 -49.3878,49.389 -76.9194,115.836 -76.9194,185.693 0,67.9855 26.0788,132.738 72.9993,181.683l-71.889 0.832678 0.0011811 0.124016c-17.6717,0.204331 -32.165,-13.9559 -32.3693,-31.6276l0 -0.370866 -0.00236221 0 0 -387.809c0,-7.61339 2.66103,-14.6032 7.10079,-20.0977l157.106 -210.727 -0.0200788 -0.0141732c6.29528,-8.44371 15.9602,-12.8929 25.7421,-12.874z"/>
  <polygon class="fil0" points="1060.42,778.31 934.79,652.68 980.041,607.43 1105.67,733.06 "/>
  <path class="fil0" d="M1067.47 565.246c12.4949,-12.4949 12.4949,-32.7555 0,-45.2504 -12.4949,-12.4949 -32.7555,-12.4949 -45.2504,0l-173.397 173.395c-12.4949,12.4949 -12.4949,32.7555 0,45.2504 12.4949,12.4949 32.7555,12.4949 45.2504,0l173.397 -173.395z"/>
  <path class="fil0" d="M445.571 544.929l73.3501 284.606 -61.7504 15.7512 -73.3501 -284.606c17.1473,-25.4126 38.3551,-27.0083 61.7504,-15.7512z"/>
  <path class="fil1" d="M712.936 1143.7c-41.7343,-41.7331 -99.3887,-67.5473 -163.065,-67.5473 -63.678,0 -121.331,25.8142 -163.065,67.5473 -41.7331,41.7343 -67.5473,99.3875 -67.5473,163.065 0,63.678 25.813,121.332 67.5473,163.065 41.7331,41.7343 99.3875,67.5473 163.065,67.5473 63.678,0 121.331,-25.8142 163.065,-67.5473 41.7331,-41.7343 67.5473,-99.3875 67.5473,-163.065 0,-63.6768 -25.8142,-121.331 -67.5473,-163.065zm-163.065 51.7985c30.7205,0 58.5378,12.4559 78.6745,32.5925 20.1366,20.1366 32.5925,47.954 32.5925,78.6745 0,30.7217 -12.4559,58.539 -32.5925,78.6757 -20.1343,20.1366 -47.9516,32.5925 -78.6745,32.5925 -30.7217,0 -58.539,-12.4559 -78.6757,-32.5925 -20.1366,-20.1366 -32.5925,-47.954 -32.5925,-78.6757 0,-30.7229 12.4559,-58.5402 32.5925,-78.6745 20.1366,-20.1366 47.954,-32.5925 78.6757,-32.5925z"/>
  <path class="fil1" d="M1662.56 1361.68c0,-48.5138 -19.6689,-92.439 -51.463,-124.234 -31.7953,-31.7953 -75.7217,-51.463 -124.236,-51.463 -48.5126,0 -92.439,19.6689 -124.234,51.463 -31.7941,31.7953 -51.463,75.7217 -51.463,124.234 0,48.5138 19.6677,92.4402 51.463,124.236 31.7953,31.7941 75.7205,51.463 124.234,51.463 48.5138,0 92.4402,-19.6677 124.236,-51.463 31.7953,-31.7953 51.463,-75.7217 51.463,-124.236zm-175.699 -80.6753c22.2732,0 42.4429,9.03308 57.0437,23.6315 14.6008,14.6008 23.6327,34.7705 23.6327,57.0437 0,22.2756 -9.03308,42.4453 -23.6327,57.0437 -14.5984,14.5996 -34.7681,23.6327 -57.0437,23.6327 -22.2732,0 -42.4429,-9.0319 -57.0437,-23.6327 -14.5984,-14.6008 -23.6315,-34.7705 -23.6315,-57.0437 0,-22.2732 9.0319,-42.4441 23.6327,-57.0426 14.5984,-14.6008 34.7693,-23.6327 57.0426,-23.6327z"/>
 </g>
 <rect class="fil2" width="2048" height="2048"/>
</svg>
