<?xml version="1.0" encoding="UTF-8"?>
<!DOCTYPE svg PUBLIC "-//W3C//DTD SVG 1.1//EN" "http://www.w3.org/Graphics/SVG/1.1/DTD/svg11.dtd">
<!-- Creator: CorelDRAW -->
<svg xmlns="http://www.w3.org/2000/svg" xml:space="preserve" width="2048px" height="2048px" style="shape-rendering:geometricPrecision; text-rendering:geometricPrecision; image-rendering:optimizeQuality; fill-rule:evenodd; clip-rule:evenodd"
viewBox="0 0 2048 2048"
 xmlns:xlink="http://www.w3.org/1999/xlink">
 <defs>
  <style type="text/css">
   <![CDATA[
    .fil2 {fill:none}
    .fil0 {fill:#424242}
    .fil1 {fill:#424242;fill-rule:nonzero}
   ]]>
  </style>
 </defs>
 <g id="Layer_x0020_1">
  <metadata id="CorelCorpID_0Corel-Layer"/>
  <g id="_278346064">
   <path id="_278346376" class="fil0" d="M320.654 441.768l65.5938 -62.563c40.1469,-38.2937 93.9745,-58.8508 149.392,-57.541 55.604,1.31339 108.152,24.3154 146.571,64.5957l254.685 267.018 -34.3819 32.7922 -334.173 318.741 -32.7933 -34.3831 -221.948 -232.696c-38.2925,-40.1469 -58.8497,-93.9757 -57.5398,-149.393 1.31221,-55.6028 24.3154,-108.152 64.5945,-146.57z"/>
   <polygon id="_278346832" class="fil0" points="743.307,750.501 1418.28,1458.16 1349.49,1523.6 674.52,815.944 "/>
   <path id="_278345560" class="fil0" d="M1340.21 1445.03c32.1579,-30.6733 75.2788,-47.1437 119.671,-46.0949 44.5441,1.05236 86.6457,19.4882 117.421,51.7571l42.1713 44.2146 -34.3784 32.7933 -208.317 198.692 -42.2292 -44.2713c-30.6744,-32.1579 -47.1437,-75.2788 -46.0949,-119.671 1.05236,-44.5429 19.4894,-86.6446 51.7571,-117.421zm45.8327 141.323l93.1241 -88.8249c-6.91182,-2.30197 -14.1673,-3.56811 -21.5221,-3.74292 -19.2851,-0.454725 -37.9914,6.6756 -51.9638,20.0032 -13.9949,13.35 -21.9213,31.5862 -22.3784,50.8973 -0.17126,7.32048 0.760631,14.641 2.74016,21.6673z"/>
   <g>
    <polygon id="_278345968" class="fil0" points="1411.16,764.17 569.078,1485.07 507.355,1412.93 1349.44,692.033 "/>
    <path id="_278345944" class="fil0" d="M584.64 1405.89l1.61221 1.85906c33.0945,38.1366 48.867,87.7619 44.9741,137.999 -3.89764,50.2819 -27.313,96.7312 -65.6528,129.55l-48.3414 41.38 -30.8764 -36.0638 -215.856 -252.144 48.3555 -41.3918c38.2831,-32.7721 87.6946,-48.7961 137.916,-44.902 49.3571,3.82441 95.341,26.2288 127.869,63.7134zm-176.765 37.0654l116.239 135.781c7.0252,-12.2185 11.2453,-25.937 12.3473,-40.1445 1.94646,-25.1126 -5.85709,-49.8603 -22.2721,-69.0355 -16.3654,-19.1162 -39.5221,-30.6744 -64.5745,-32.6162 -14.2358,-1.10315 -28.5225,0.949607 -41.7402,6.01536z"/>
    <path id="_278345752" class="fil1" d="M1530.78 402.838l-172.243 147.456c-16.0642,13.7528 -23.4697,35.5465 -22.4587,59.5713 1.12087,26.641 12.4429,55.5922 33.6933,80.4154l52.9028 61.7953c21.1784,24.7394 48.0768,40.363 74.3505,45.6 23.5736,4.70079 46.2166,0.762993 62.2312,-12.9473l172.243 -147.456 60.5044 -11.7496 -19.3914 59.7993 -172.243 147.456c-31.6666,27.111 -73.6335,35.4579 -115.729,27.0638 -39.3981,-7.85434 -79.2414,-30.7063 -110.016,-66.6532l-52.9016 -61.7953c-30.7028,-35.8642 -47.1095,-78.7914 -48.802,-119.053 -1.80354,-42.8764 12.8847,-83.028 44.504,-110.097l172.243 -147.456 57.7146 -8.15197 -16.6016 56.2016z"/>
    <polygon id="_278345464" class="fil1" points="1611.39,497 1361.16,711.221 1320.04,663.172 1570.27,448.95 1632.41,439.315 "/>
    <polygon id="_278345584" class="fil1" points="1692,591.161 1441.77,805.383 1400.65,757.333 1650.88,543.11 1714.51,530.692 "/>
   </g>
  </g>
 </g>
 <rect class="fil2" width="2048" height="2048"/>
</svg>
