<?xml version="1.0" encoding="UTF-8"?>
<!DOCTYPE svg PUBLIC "-//W3C//DTD SVG 1.1//EN" "http://www.w3.org/Graphics/SVG/1.1/DTD/svg11.dtd">
<!-- Creator: CorelDRAW -->
<svg xmlns="http://www.w3.org/2000/svg" xml:space="preserve" width="2048px" height="2048px" style="shape-rendering:geometricPrecision; text-rendering:geometricPrecision; image-rendering:optimizeQuality; fill-rule:evenodd; clip-rule:evenodd"
viewBox="0 0 2048 2048"
 xmlns:xlink="http://www.w3.org/1999/xlink">
 <defs>
  <style type="text/css">
   <![CDATA[
    .fil1 {fill:none}
    .fil0 {fill:#424242;fill-rule:nonzero}
   ]]>
  </style>
 </defs>
 <g id="Layer_x0020_1">
  <metadata id="CorelCorpID_0Corel-Layer"/>
  <g id="_278343784">
   <path id="_278344648" class="fil0" d="M1241.85 1097.33c35.9929,-8.76969 72.2871,-7.69253 106.9,1.70197 27.3425,7.42205 53.6646,20.048 77.9493,37.102 24.2847,-17.054 50.6067,-29.6799 77.9493,-37.102 34.6146,-9.3945 70.9075,-10.4717 106.9,-1.70197 67.7434,16.5036 120.532,64.5898 151.109,128.985 29.511,62.1473 38.1981,139.858 19.063,218.393 -19.1303,78.5209 -62.6445,143.564 -117.528,185.243 -56.7579,43.1008 -125.672,61.5249 -193.283,45.0532 -23.9516,-5.83583 -36.7111,-10.0913 -44.2111,-12.8398 -7.50001,2.74843 -20.2583,7.00394 -44.2111,12.8398 -67.6123,16.4717 -136.526,-1.95236 -193.283,-45.0532 -54.8847,-41.68 -98.3989,-106.722 -117.529,-185.243 -19.1339,-78.5351 -10.4469,-156.246 19.0642,-218.393 30.5776,-64.3949 83.3658,-112.481 151.109,-128.985z"/>
   <path id="_278344192" class="fil0" d="M1394.24 1179.47c1.65591,17.5347 17.2158,30.4063 34.7504,28.7504 17.5347,-1.65591 30.4063,-17.2158 28.7504,-34.7504 -3.37677,-34.5744 -1.14331,-64.7327 7.47166,-89.8583 7.97363,-23.2547 21.6851,-42.3638 41.8217,-56.8182 14.2902,-10.285 17.5358,-30.2103 7.25079,-44.5004 -10.285,-14.2902 -30.2103,-17.5358 -44.5004,-7.25079 -31.5142,22.6217 -52.8402,52.1457 -65.0729,87.8198 -11.5913,33.8044 -14.7425,72.8894 -10.4717,116.608z"/>
   <path id="_278344672" class="fil0" d="M436.447 1078.21c35.9929,-8.76969 72.2859,-7.69253 106.9,1.70197 27.3425,7.42205 53.6646,20.048 77.9493,37.102 24.2847,-17.054 50.6067,-29.6799 77.9493,-37.102 34.6134,-9.3945 70.9075,-10.4717 106.9,-1.70197 67.7434,16.5036 120.532,64.5898 151.109,128.985 29.511,62.1473 38.1981,139.858 19.0642,218.393 -19.1303,78.5209 -62.6445,143.563 -117.529,185.243 -56.7567,43.1008 -125.671,61.5249 -193.283,45.0532 -23.9516,-5.83583 -36.7111,-10.0913 -44.2111,-12.8398 -7.50001,2.74843 -20.2595,7.00394 -44.2111,12.8398 -67.6111,16.4717 -136.525,-1.95236 -193.283,-45.0532 -54.8835,-41.6788 -98.3977,-106.722 -117.528,-185.243 -19.1339,-78.5339 -10.448,-156.246 19.063,-218.393 30.5776,-64.3961 83.3646,-112.479 151.109,-128.985z"/>
   <path id="_278344408" class="fil0" d="M588.893 1160.36c1.65591,17.5347 17.2158,30.4063 34.7504,28.7504 17.5347,-1.65591 30.4063,-17.2158 28.7504,-34.7504 -3.50906,-35.9185 -1.18228,-67.2627 7.77875,-93.3993 8.32087,-24.2658 22.6335,-44.2087 43.6559,-59.2985 14.2902,-10.285 17.5358,-30.2103 7.25079,-44.5004 -10.285,-14.2902 -30.2103,-17.5358 -44.5004,-7.25079 -32.3988,23.2559 -54.3272,53.6138 -66.9071,90.3001 -11.9374,34.8154 -15.1819,75.0875 -10.7787,120.149z"/>
   <path id="_278344576" class="fil0" d="M1092.62 539.99c118.778,-89.9741 214.481,-66.541 277.992,8.18505 34.4965,40.5898 58.0359,97.2473 69.1536,158.458 10.9051,60.0367 9.93426,125.037 -4.35473,183.688 -31.8484,130.725 -126.553,231.047 -298.578,189.136 -23.9528,-5.83583 -36.7122,-10.0913 -44.2122,-12.8398 -7.50001,2.74843 -20.2571,7.00394 -44.2111,12.8398 -172.028,41.9126 -266.731,-58.4138 -298.579,-189.136 -14.289,-58.6512 -15.2599,-123.651 -4.35473,-183.688 11.1177,-61.2107 34.6571,-117.868 69.1536,-158.458 63.5091,-74.726 159.214,-98.1591 277.992,-8.18505z"/>
   <path id="_278344384" class="fil0" d="M1060.22 583.926c1.65591,17.5347 17.2158,30.4063 34.7504,28.7504 17.5347,-1.65591 30.4063,-17.2158 28.7504,-34.7504 -3.51733,-36.0166 -1.18465,-67.4481 7.80237,-93.6591 8.34568,-24.339 22.702,-44.3433 43.7894,-59.4804 14.2902,-10.285 17.5358,-30.2103 7.25079,-44.5004 -10.285,-14.2902 -30.2103,-17.5358 -44.5004,-7.25079 -32.465,23.3043 -54.4359,53.7237 -67.0406,90.482 -11.9634,34.8898 -15.2138,75.2481 -10.8024,120.409z"/>
  </g>
 </g>
 <rect class="fil1" width="2048" height="2048"/>
</svg>
