<?xml version="1.0" encoding="UTF-8"?>
<!DOCTYPE svg PUBLIC "-//W3C//DTD SVG 1.1//EN" "http://www.w3.org/Graphics/SVG/1.1/DTD/svg11.dtd">
<!-- Creator: CorelDRAW -->
<svg xmlns="http://www.w3.org/2000/svg" xml:space="preserve" width="2048px" height="2048px" style="shape-rendering:geometricPrecision; text-rendering:geometricPrecision; image-rendering:optimizeQuality; fill-rule:evenodd; clip-rule:evenodd"
viewBox="0 0 2048 2048"
 xmlns:xlink="http://www.w3.org/1999/xlink">
 <defs>
  <style type="text/css">
   <![CDATA[
    .fil2 {fill:none}
    .fil1 {fill:#424242}
    .fil0 {fill:#424242;fill-rule:nonzero}
   ]]>
  </style>
 </defs>
 <g id="Layer_x0020_1">
  <metadata id="CorelCorpID_0Corel-Layer"/>
  <path class="fil0" d="M1026.66 1097.01l-582.286 0 -31.3477 0 0 -31.3477c0,-169.446 68.6847,-322.856 179.733,-433.902 111.046,-111.047 264.455,-179.732 433.901,-179.732 169.446,0 322.855,68.6847 433.903,179.732 111.047,111.046 179.732,264.456 179.732,433.902l0 31.3477 -31.3477 0 -582.287 0z"/>
  <path class="fil1" d="M1073.68 303.02l0 180.816c0,25.963 -21.0579,47.0209 -47.0209,47.0209 -25.963,0 -47.0209,-21.0579 -47.0209,-47.0209l0 -180.816c0,-25.9642 21.0579,-47.0209 47.0209,-47.0209 25.963,0 47.0209,21.0567 47.0209,47.0209z"/>
  <path class="fil1" d="M1588.27 538.187l-127.857 127.857c-18.3555,18.3567 -48.1347,18.3567 -66.4914,0 -18.3567,-18.3567 -18.3567,-48.1359 0,-66.4914l127.857 -127.857c18.3567,-18.3567 48.1359,-18.3567 66.4914,0 18.3579,18.3555 18.3579,48.1347 0,66.4914z"/>
  <path class="fil1" d="M543.854 471.696l127.857 127.857c18.3567,18.3555 18.3567,48.1347 0,66.4914 -18.3567,18.3567 -48.1359,18.3567 -66.4914,0l-127.857 -127.857c-18.3579,-18.3567 -18.3579,-48.1359 0,-66.4914 18.3555,-18.3567 48.1347,-18.3567 66.4914,0z"/>
  <ellipse class="fil1" cx="784.036" cy="418.677" rx="48.0218" ry="48.0218"/>
  <ellipse class="fil1" cx="1269.27" cy="418.677" rx="48.0218" ry="48.0218"/>
  <path class="fil1" d="M1535.49 1129.01l177.141 264.854c14.3776,21.4961 8.61261,50.6894 -12.8788,65.0835 -21.4925,14.3953 -50.7119,8.6256 -65.0965,-12.8811l-212.056 -317.057 112.891 0z"/>
  <path class="fil1" d="M625.402 1129.01l-212.056 317.057c-14.3847,21.5067 -43.604,27.2764 -65.0965,12.8811 -21.4914,-14.3941 -27.2551,-43.5874 -12.8788,-65.0835l177.141 -264.854 112.891 0z"/>
  <path class="fil1" d="M773.026 1129.01l-270.081 634.369c-10.1079,23.7425 -37.8307,34.917 -61.5768,24.815 -23.7473,-10.1043 -34.9252,-37.8366 -24.815,-61.5827l254.426 -597.602 102.046 0z"/>
  <path class="fil1" d="M1385.53 1129.01l213.93 600.316c8.71418,24.4536 -4.19646,51.3355 -28.6524,59.9611 -24.4441,8.62087 -51.2044,-4.23071 -59.8961,-28.6217l-225.098 -631.655 99.717 0z"/>
  <path class="fil1" d="M908.522 1129.01l-110.706 624.112c-4.52717,25.5225 -28.8166,42.6319 -54.3721,38.1709 -25.5638,-4.46103 -42.7418,-28.8496 -38.2063,-54.4229l107.823 -607.86 95.4615 0z"/>
  <path class="fil1" d="M1223.92 1129.01l107.823 607.86c4.53544,25.5732 -12.6425,49.9618 -38.2075,54.4229 -25.5555,4.46103 -49.8449,-12.6484 -54.3721,-38.1709l-110.706 -624.112 95.4627 0z"/>
 </g>
 <rect class="fil2" width="2048" height="2048"/>
</svg>
