<?xml version="1.0" encoding="UTF-8"?>
<!DOCTYPE svg PUBLIC "-//W3C//DTD SVG 1.1//EN" "http://www.w3.org/Graphics/SVG/1.1/DTD/svg11.dtd">
<!-- Creator: CorelDRAW -->
<svg xmlns="http://www.w3.org/2000/svg" xml:space="preserve" width="2048px" height="2048px" style="shape-rendering:geometricPrecision; text-rendering:geometricPrecision; image-rendering:optimizeQuality; fill-rule:evenodd; clip-rule:evenodd"
viewBox="0 0 2048 2048"
 xmlns:xlink="http://www.w3.org/1999/xlink">
 <defs>
  <style type="text/css">
   <![CDATA[
    .fil1 {fill:none}
    .fil0 {fill:#424242;fill-rule:nonzero}
   ]]>
  </style>
 </defs>
 <g id="Layer_x0020_1">
  <metadata id="CorelCorpID_0Corel-Layer"/>
  <path class="fil0" d="M1328.56 1693.8c1.0689,-0.046063 1.67362,-0.068504 0,-0.068504 -1.67362,0 -1.0689,0.022441 0,0.068504z"/>
  <path class="fil0" d="M1108.26 1031.31c41.9953,-10.2319 84.3827,-8.96694 124.84,2.01614 33.5729,9.11339 65.8512,24.9295 95.4591,46.4044 29.6091,-21.4748 61.8851,-37.291 95.4568,-46.4044 40.4587,-10.9831 82.8449,-12.248 124.84,-2.01614 79.1481,19.2815 140.882,75.5859 176.704,151.024 34.7776,73.2379 44.9989,164.876 22.4209,257.553 -22.5768,92.6623 -73.8579,169.364 -138.519,218.467 -66.4938,50.4957 -147.131,72.1004 -226.151,52.8485 -31.0937,-7.5756 -46.2615,-12.9118 -54.7524,-16.1043 -8.49213,3.1937 -23.661,8.52993 -54.7548,16.1043 -79.0194,19.252 -159.657,-2.35276 -226.151,-52.8485 -64.6607,-49.1032 -115.942,-125.805 -138.517,-218.467 -22.5792,-92.6764 -12.3591,-184.314 22.4185,-257.553 35.8229,-75.4382 97.5568,-131.741 176.705,-151.024z"/>
  <path class="fil0" d="M1297.48 1122.39c-6.99095,-71.5571 -1.92874,-135.249 16.8414,-189.989 19.3984,-56.5689 53.1437,-103.332 102.965,-139.096l36.4595 50.654c-38.6859,27.7689 -64.9772,64.3382 -80.2075,108.751 -15.8575,46.2449 -20.0197,101.199 -13.9051,163.806l-62.1532 5.87363z"/>
  <path class="fil0" d="M480.104 1117.09c61.8804,0 117.906,25.0855 158.463,65.6422 40.5555,40.5555 65.641,96.5824 65.641,158.463 0,61.8804 -25.0855,117.906 -65.641,158.463 -40.5567,40.5555 -96.5835,65.641 -158.463,65.641 -61.8804,0 -117.907,-25.0855 -158.463,-65.641 -40.5567,-40.5567 -65.6422,-96.5824 -65.6422,-158.463 0,-61.8804 25.0855,-117.907 65.641,-158.463 40.5567,-40.5567 96.5835,-65.6422 158.464,-65.6422z"/>
  <path class="fil0" d="M489.688 1136.26c61.4339,-102.934 93.815,-215.708 109.508,-335.796 15.9225,-121.84 14.7354,-251.673 9.1193,-386.529l63.7512 -2.49921c5.7378,137.8 6.90119,270.857 -9.62009,397.279 -16.7504,128.176 -51.6142,249.051 -118.008,360.294l-54.7512 -32.7496z"/>
  <path class="fil0" d="M882.354 895.283c-25.787,-82.741 -59.6599,-162.587 -103.305,-239.348 -43.6489,-76.7682 -97.2013,-150.695 -162.359,-221.623l47.0008 -43.2496c68.4178,74.478 124.78,152.333 170.858,233.373 46.0819,81.0473 81.7524,165.047 108.804,251.849l-60.9993 18.9992z"/>
  <path class="fil0" d="M301.864 373.181c76.2568,-54.8008 146.49,-80.3729 210.208,-74.3812 66.2315,6.22914 122.817,45.1276 169.038,119.106l13.2272 21.1701 -17.4768 17.9551c-60.8859,62.5536 -124.349,88.6158 -190.206,80.6977 -63.665,-7.65473 -126.964,-47.55 -189.916,-117.297l-23.8512 -26.426 28.976 -20.8252z"/>
  <path class="fil0" d="M968.898 831.999c74.328,0 141.621,30.1299 190.337,78.8457 24.489,24.489 44.2784,53.6752 57.9083,86.0883 -38.5748,-7.00512 -78.0568,-6.07205 -116.454,3.28229 -89.9493,21.9154 -158.77,85.6961 -198.037,168.388 -26.7862,56.4083 -38.6622,118.84 -37.3996,181.075 -32.6551,-13.637 -62.0516,-33.5185 -86.6918,-58.1587 -48.7158,-48.7158 -78.8457,-116.009 -78.8457,-190.337 0,-74.328 30.1299,-141.624 78.8434,-190.337 48.7158,-48.7158 116.012,-78.8457 190.34,-78.8457z"/>
 </g>
 <rect class="fil1" width="2048" height="2048"/>
</svg>
