<?xml version="1.0" encoding="UTF-8"?>
<!DOCTYPE svg PUBLIC "-//W3C//DTD SVG 1.1//EN" "http://www.w3.org/Graphics/SVG/1.1/DTD/svg11.dtd">
<!-- Creator: CorelDRAW -->
<svg xmlns="http://www.w3.org/2000/svg" xml:space="preserve" width="2048px" height="2048px" style="shape-rendering:geometricPrecision; text-rendering:geometricPrecision; image-rendering:optimizeQuality; fill-rule:evenodd; clip-rule:evenodd"
viewBox="0 0 2048 2048"
 xmlns:xlink="http://www.w3.org/1999/xlink">
 <defs>
  <style type="text/css">
   <![CDATA[
    .fil2 {fill:none}
    .fil1 {fill:#424242}
    .fil0 {fill:#424242;fill-rule:nonzero}
   ]]>
  </style>
 </defs>
 <g id="Layer_x0020_1">
  <metadata id="CorelCorpID_0Corel-Layer"/>
  <path class="fil0" d="M890.604 1197.7c5.44961,50.7945 7.79174,101.715 7.2567,152.752 -1.39134,132.667 -22.3394,266.519 -58.6371,401.294 -4.55552,17.0516 5.57363,34.5697 22.6252,39.1252 0.71693,0.191339 1.43386,0.354331 2.15197,0.494882l0 0.630709 352.001 0 0 -0.357874c1.25551,-0.179528 2.51457,-0.432284 3.77008,-0.767717 17.0516,-4.55552 27.1807,-22.0736 22.6252,-39.1252 -36.2977,-134.775 -57.2457,-268.627 -58.6371,-401.294 -0.540945,-51.528 1.84961,-102.938 7.41142,-154.22l-5.38819 -0.00236221 -237.812 0 0.00708662 0.924804 -31.9051 0.333071c-8.48977,0.0885827 -16.9795,0.159449 -25.4693,0.212599z"/>
  <path class="fil1" d="M1587.73 627.917c2.76969,-14.6303 4.22126,-29.4626 4.22126,-44.3433 0,-65.5878 -26.5902,-124.973 -69.5753,-167.958 -42.9851,-42.9851 -102.37,-69.5753 -167.958,-69.5753 -16.8142,0 -33.4004,1.81063 -49.5591,5.24646 -8.46615,1.8 -16.7977,4.07126 -24.9709,6.78544 -27.5823,-29.178 -60.5741,-53.2914 -97.4079,-70.7646 -42.3201,-20.0752 -89.5524,-31.3087 -139.297,-31.3087 -47.7307,0 -93.1371,10.3323 -134.105,28.8874 -36.228,16.4091 -68.9516,39.3118 -96.7052,67.2319 -5.28307,-1.20118 -10.6618,-2.23347 -16.128,-3.08977 -12.5315,-1.96417 -24.8669,-2.98819 -36.8929,-2.98819 -65.5878,0 -124.973,26.589 -167.958,69.5753 -42.9851,42.9851 -69.5753,102.37 -69.5753,167.958 0,7.513 0.42874,15.4453 1.26378,23.7437 -75.1406,38.8666 -121.879,100.623 -143.188,169.247 -15.2539,49.1268 -17.2429,101.74 -7.10316,151.839 10.1693,50.2489 32.4815,97.9938 65.7886,137.217 50.7296,59.7414 126.384,99.9969 222.899,99.9969 71.0138,0 81.1737,0.0354331 91.5072,0.0673229 56.7721,0.18189 110.389,0.35315 162.755,-0.19252l-0.00944883 -1.25906 270.052 0c29.7898,0.056693 61.0749,0.184252 94.2922,0.390945 32.967,0.20315 67.9548,0.490158 105.409,0.868111 73.1989,0.739371 135.476,-22.9441 183.835,-61.4374 45.0154,-35.8323 77.7839,-84.4902 95.9162,-138.176 18.0366,-53.4024 21.5268,-111.965 8.09646,-167.928 -13.2118,-55.0477 -42.6095,-107.373 -90.3969,-149.634 1.87795,-6.65906 3.47953,-13.4634 4.79292,-20.4zm-525.939 -134.555c8.25591,-8.25591 19.6606,-13.363 32.2559,-13.363 12.5953,0 24.0012,5.10709 32.2571,13.363 8.25591,8.25591 13.363,19.6606 13.363,32.2559 0,12.5953 -5.10709,24.0012 -13.363,32.2571 -8.25591,8.25709 -19.6618,13.363 -32.2571,13.363 -12.5953,0 -24,-5.10591 -32.2559,-13.363 -8.25591,-8.25473 -13.363,-19.6618 -13.363,-32.2571 0,-12.5953 5.10709,-24 13.363,-32.2559zm92.8831 179.92c0,-12.5953 5.10709,-23.9988 13.363,-32.2559 8.25591,-8.25591 19.6606,-13.363 32.2571,-13.363 12.5941,0 24,5.10709 32.2559,13.363 8.25591,8.25709 13.363,19.6606 13.363,32.2559 0,12.5965 -5.10709,24.0012 -13.363,32.2583 -8.25591,8.25591 -19.6606,13.363 -32.2559,13.363 -12.5965,0 -24.0012,-5.10709 -32.2571,-13.363 -8.25591,-8.25591 -13.363,-19.6618 -13.363,-32.2583zm175.876 303.734c12.5941,0 24.0012,5.10591 32.2559,13.363 8.25709,8.25591 13.363,19.6606 13.363,32.2559 0,12.5953 -5.10591,24.0012 -13.363,32.2571 -8.25473,8.25591 -19.6606,13.363 -32.2559,13.363 -12.5953,0 -24.0012,-5.10709 -32.2559,-13.363 -8.25709,-8.25591 -13.363,-19.6618 -13.363,-32.2571 0,-12.5953 5.10591,-24 13.363,-32.2559 8.25473,-8.25709 19.6606,-13.363 32.2559,-13.363zm-243.104 -236.504c12.5941,0 24,5.10709 32.2559,13.363 8.25591,8.25709 13.363,19.6606 13.363,32.2559 0,12.5965 -5.10709,24.0012 -13.363,32.2583 -8.25591,8.25591 -19.6606,13.363 -32.2559,13.363 -12.5953,0 -24.0012,-5.10709 -32.2571,-13.363 -8.25591,-8.25591 -13.363,-19.6618 -13.363,-32.2583 0,-12.5953 5.10709,-23.9988 13.363,-32.2559 8.25591,-8.25591 19.6618,-13.363 32.2571,-13.363zm288.723 56.4248c12.5941,0 24.0012,5.10709 32.2559,13.363 8.25709,8.25709 13.363,19.6606 13.363,32.2559 0,12.5965 -5.10591,24.0012 -13.363,32.2583 -8.25473,8.25591 -19.6606,13.3618 -32.2559,13.3618 -12.5953,0 -24.0012,-5.10591 -32.2559,-13.3618 -8.25709,-8.25591 -13.363,-19.6618 -13.363,-32.2583 0,-12.5953 5.10591,-23.9988 13.363,-32.2559 8.25473,-8.25591 19.6606,-13.363 32.2559,-13.363zm21.6106 -253.91c12.5953,0 24.0012,5.10709 32.2571,13.363 8.25591,8.25709 13.363,19.6606 13.363,32.2571 0,12.5953 -5.10709,24 -13.363,32.2571 -8.25591,8.25591 -19.6606,13.363 -32.2571,13.363 -12.5953,0 -24,-5.10709 -32.2559,-13.363 -8.25591,-8.25591 -13.363,-19.6618 -13.363,-32.2571 0,-12.5965 5.10709,-24 13.363,-32.2571 8.25591,-8.25591 19.6606,-13.363 32.2559,-13.363zm-557.643 197.485c12.5953,0 24.0012,5.10709 32.2571,13.363 8.25591,8.25709 13.363,19.6606 13.363,32.2559 0,12.5965 -5.10709,24.0012 -13.363,32.2583 -8.25591,8.25591 -19.6606,13.363 -32.2571,13.363 -12.5953,0 -24,-5.10709 -32.2559,-13.363 -8.25591,-8.25591 -13.363,-19.6618 -13.363,-32.2583 0,-12.5953 5.10709,-23.9988 13.363,-32.2559 8.25591,-8.25591 19.6606,-13.363 32.2559,-13.363zm-91.2379 219.096c12.5941,0 24.0012,5.10591 32.2559,13.363 8.25709,8.25591 13.363,19.6606 13.363,32.2559 0,12.5953 -5.10591,24 -13.363,32.2571 -8.25473,8.25591 -19.6606,13.363 -32.2559,13.363 -12.5953,0 -24.0012,-5.10709 -32.2559,-13.363 -8.25709,-8.25591 -13.363,-19.6618 -13.363,-32.2571 0,-12.5953 5.10591,-24 13.363,-32.2559 8.25473,-8.25709 19.6606,-13.363 32.2559,-13.363zm84.6367 -451.395c12.5941,0 24.0012,5.10591 32.2559,13.363 8.25709,8.25591 13.363,19.6606 13.363,32.2559 0,12.5953 -5.10591,24.0012 -13.363,32.2571 -8.25473,8.25709 -19.6606,13.363 -32.2559,13.363 -12.5953,0 -24.0012,-5.10591 -32.2559,-13.363 -8.25709,-8.25473 -13.363,-19.6618 -13.363,-32.2571 0,-12.5953 5.10591,-24 13.363,-32.2559 8.25473,-8.25709 19.6606,-13.363 32.2559,-13.363zm-247.308 316.936c12.5941,0 24,5.10709 32.2559,13.363 8.25591,8.25709 13.363,19.6606 13.363,32.2559 0,12.5965 -5.10709,24.0012 -13.363,32.2583 -8.25591,8.25591 -19.6606,13.3618 -32.2559,13.3618 -12.5965,0 -24.0012,-5.10591 -32.2571,-13.3618 -8.25591,-8.25591 -13.363,-19.6618 -13.363,-32.2583 0,-12.5953 5.10709,-23.9988 13.363,-32.2559 8.25591,-8.25591 19.6606,-13.363 32.2571,-13.363zm84.6367 -232.299c12.5941,0 24,5.10591 32.2559,13.363 8.25591,8.25591 13.363,19.6606 13.363,32.2559 0,12.5953 -5.10709,24.0012 -13.363,32.2571 -8.25591,8.25709 -19.6606,13.363 -32.2559,13.363 -12.5965,0 -24.0012,-5.10591 -32.2571,-13.363 -8.25591,-8.25473 -13.363,-19.6618 -13.363,-32.2571 0,-12.5953 5.10709,-24 13.363,-32.2559 8.25591,-8.25709 19.6606,-13.363 32.2571,-13.363z"/>
 </g>
 <rect class="fil2" width="2048" height="2048"/>
</svg>
