<?xml version="1.0" encoding="UTF-8"?>
<!DOCTYPE svg PUBLIC "-//W3C//DTD SVG 1.1//EN" "http://www.w3.org/Graphics/SVG/1.1/DTD/svg11.dtd">
<!-- Creator: CorelDRAW -->
<svg xmlns="http://www.w3.org/2000/svg" xml:space="preserve" width="2048px" height="2048px" style="shape-rendering:geometricPrecision; text-rendering:geometricPrecision; image-rendering:optimizeQuality; fill-rule:evenodd; clip-rule:evenodd"
viewBox="0 0 2048 2048"
 xmlns:xlink="http://www.w3.org/1999/xlink">
 <defs>
  <style type="text/css">
   <![CDATA[
    .fil3 {fill:none}
    .fil2 {fill:none;fill-rule:nonzero}
    .fil1 {fill:#424242}
    .fil0 {fill:#424242;fill-rule:nonzero}
   ]]>
  </style>
 </defs>
 <g id="Layer_x0020_1">
  <metadata id="CorelCorpID_0Corel-Layer"/>
  <g id="_378795128">
   <path id="_275885336" class="fil0" d="M1354.77 1522.54c0.186614,1.48465 -1.17992,9.27875 0.0153543,4.03937l0.00354331 0 0.0141732 -0.10748 -0.0921261 -0.0200788c0.0649607,-0.28937 0.135827,-0.575197 0.207874,-0.859843 0.0874016,-0.722835 0.184252,-1.61693 0.285827,-2.66811l-0.434646 -0.383859z"/>
   <polygon id="_275885048" class="fil0" points="1446.44,1624.36 1446.43,1624.34 1446.45,1624.39 1446.45,1624.41 "/>
   <path id="_278347096" class="fil1" d="M1374.7 1550.22c-4.57678,5.55945 -10.3063,13.1197 -10.7244,16.6288 0.388583,1.22244 1.91575,3.15 3.28701,4.69725l2.02914 2.01614c6.20788,6.17008 16.4776,12.235 23.8736,16.9689 18.0142,11.5311 35.602,22.2343 50.837,37.2473 1.79055,0.748819 4.13977,1.57559 6.45827,2.2937 5.60434,-7.2626 10.3748,-27.1465 11.5748,-33.287 5.3563,-27.4229 6.15,-57.763 5.77914,-85.6784 -0.302362,-22.7622 -1.52244,-45.5339 -3.0626,-68.2441 -1.0878,-16.0595 -2.60551,-32.2654 -3.34252,-48.326 -0.0212599,-0.462992 -0.034252,-0.954331 -0.0614174,-1.44095l-0.133465 -0.43937c-4.71496,-15.424 -8.81103,-31.3465 -12.9567,-46.9382 -6.93308,-26.0646 -13.6524,-52.1953 -20.1201,-78.378 -2.21457,-8.9693 -4.39843,-17.9457 -6.53977,-26.9327 -4.01575,-16.8555 -7.93583,-33.7713 -11.4366,-50.7426 -1.04528,-5.06811 -2.16378,-10.4102 -3.15118,-15.8032 -10.8047,11.087 -22.0748,22.1823 -33.9402,33.2823 -13.6854,12.8055 -27.4311,24.8988 -41.2429,36.0886 -13.7799,11.1662 -27.8799,21.6886 -42.3579,31.4303l10.1173 13.8508c9.33544,12.7784 18.6118,25.6004 27.7914,38.491 9.88347,13.878 19.6878,27.841 29.1815,41.9882 7.20355,10.7315 14.8217,22.0973 20.8571,33.5209 7.84725,14.8512 10.3217,35.4059 11.5748,52.0323 0.848032,11.2394 0.784253,23.4378 0.874016,34.7268 0.0661418,8.32678 0.0850394,16.7232 -0.244488,25.0441 -0.544489,13.7244 -3.90237,28.1209 -14.9209,35.9032zm41.5618 -434.888c5.84882,-10.6772 12.6791,-20.7555 17.7165,-28.3689 18.3425,-27.7288 38.4012,-54.7878 58.7304,-81.091 62.6941,-81.1099 87.7016,-154.174 192.712,-100.591 11.7697,6.00473 23.4768,11.302 36.039,15.4193l1.88032 0.48189c8.14489,2.08583 16.8662,3.15473 25.2614,2.29488 9.33072,-0.955513 17.8016,-4.05945 24.9886,-10.2142 7.14922,-6.12284 11.7473,-14.1685 14.6032,-22.9654l1.11969 -4.37126c3.1689,-12.3839 2.94803,-27.5847 2.25,-40.4634l-0.288189 -3.03662c-1.83189,-19.3772 -4.59095,-38.7177 -8.65985,-57.7559 -17.7673,-83.1627 -58.1989,-156.538 -132.546,-201.104 -48.9473,-29.3421 -110.765,-43.4363 -167.651,-38.0929 -6.5126,0.611811 -13.0323,1.44921 -19.4646,2.64803l-3.95433 0.737008 -4.01693 -0.223229c-19.4823,-1.08189 -29.2028,5.35867 -37.8189,22.637 -51.5386,103.377 -10.3772,205.071 -245.258,257.608 -60.7111,13.5791 -122.454,23.9221 -183.91,33.5079 -80.4036,12.5421 -141.32,12.0378 -218.648,-12.8599 -6.52796,-2.10118 -13.0335,-4.28032 -19.539,-6.45709 -28.891,-9.66969 -56.8323,-18.5244 -86.8052,-24.4736 -42.2126,-8.37993 -85.3607,-11.0221 -128.334,-10.6677 -54.2268,0.445276 -109.784,13.0016 -150.756,50.5642 -80.341,73.656 -63.2634,193.148 -42.4158,288.502 4.13504,18.9142 10.2036,42.9319 10.2036,62.152 0,24.4264 -32.0374,82.904 -43.6016,105.84 -14.3079,28.376 -52.1044,99.7347 -52.1044,130.36 0,25.8118 4.73977,55.5225 8.51457,81.13 1.76575,11.9705 3.6189,23.9292 5.47441,35.8878 1.79173,11.5406 4.04882,22.9252 6.45709,34.3477 2.19095,10.3878 5.12835,21.254 2.35394,31.8189 -3.20315,12.189 -5.43544,28.2898 -5.43544,40.8201 0,6.2693 0.357874,13.2142 1.79764,19.3264 0.891733,3.78544 2.3315,8.96694 6.37796,10.5118 0.651969,0.250394 1.26142,0.383859 1.96181,0.383859 19.8414,-0.00590552 39.841,-0.546851 59.6941,-0.798426 25.2933,-0.318898 50.6079,-0.699213 75.9024,-0.699213 2.08701,0 7.20001,-0.197244 9.92363,-1.0748 0.334252,-1.58622 0.4063,-3.91418 0.4063,-5.04804 0,-8.08111 -17.0847,-28.4906 -21.9756,-34.6181 -11.524,-14.4343 -29.7189,-35.8418 -33.3036,-53.9481 -2.09173,-10.5673 -4.33583,-21.1252 -6.49134,-31.6807 -4.77166,-23.3551 -10.6524,-46.291 -15.6543,-69.5315 -3.69685,-17.1791 -6.38741,-34.1032 -1.89213,-51.4619 4.41851,-17.0599 14.6315,-30.2729 26.2217,-43.0961 15.228,-16.8473 31.7138,-32.9528 47.3233,-49.5201l50.126 -53.2028 0.0590552 0.574016 0.256299 -0.275197 0.516142 -0.548032 0.187795 -0.199606 0.0708662 -0.0744095 0.259843 -0.270473 0.00236221 -0.00472441 0.258662 -0.265748 0.0779528 -0.080315 0.184252 -0.190158 0.152362 -0.153543 0.112205 -0.113386 0.226772 -0.229134 0.0377953 -0.0389764 0.266929 -0.264567 0.0366142 -0.0377953 0.229134 -0.226772 0.113386 -0.112205 0.155906 -0.151181 0.188977 -0.185433 0.0791339 -0.0767717 0.26811 -0.258662 0.00236221 -0.00236221 0.270473 -0.261024 0.0744095 -0.0696851 0.198425 -0.187795 0.151181 -0.142913 0.122835 -0.114567 0.229134 -0.21378 0.046063 -0.0425197 0.275197 -0.255118 0.0318898 -0.0295276 0.244488 -0.223229 0.111024 -0.102756 0.166536 -0.15 0.191339 -0.172441 0.0885827 -0.0791339 0.26811 -0.240945 0.011811 -0.00944883 0.279921 -0.246851 0.0696851 -0.0625985 0.212599 -0.185433 0.15 -0.131102 0.133465 -0.115748 0.230315 -0.198425 0.0531496 -0.0472441 0.285827 -0.242126 0.0259843 -0.0236221 0.259843 -0.219685 0.10748 -0.090945 0.179528 -0.148819 0.190158 -0.159449 0.0992127 -0.0814961 0.270473 -0.22441 0.0177165 -0.0129921 0.290551 -0.238583 0.0637796 -0.0531496 0.226772 -0.18189 0.148819 -0.119291 0.144095 -0.115748 0.231496 -0.184252 0.0614174 -0.0496063 0.295276 -0.231496 0.0200788 -0.0165354 0.275197 -0.21378 0.105118 -0.0814961 0.191339 -0.147638 0.188977 -0.146457 0.108662 -0.0814961 0.274016 -0.209055 0.0248032 -0.0188977 0.298819 -0.225591 0.0614174 -0.0437008 0.239764 -0.178347 0.144095 -0.108662 0.157087 -0.114567 0.231496 -0.168898 0.0720473 -0.0519685 0.302362 -0.220866 0.0153543 -0.00944883 0.28937 -0.209055 0.101575 -0.0708662 0.204331 -0.145276 0.187795 -0.132284 0.119291 -0.0838583 0.275197 -0.19252 0.0318898 -0.022441 0.308268 -0.212599 0.0543308 -0.0377953 0.255118 -0.173622 0.142913 -0.0968505 0.167717 -0.113386 0.230315 -0.155906 0.0814961 -0.0531496 0.311811 -0.206693 0.00708662 -0.00472441 0.307087 -0.200788 0.0956694 -0.0625985 0.218504 -0.142913 0.185433 -0.119291 0.129921 -0.0838583 0.275197 -0.175984 0.0401575 -0.0259843 0.318898 -0.199606 0.0472441 -0.0307087 0.270473 -0.167717 0.138189 -0.0862205 0.180709 -0.111024 0.229134 -0.141732 0.090945 -0.0543308 0.32126 -0.194882c8.48386,-5.10709 18.0106,-8.69764 28.3961,-10.3512 0.759449,-0.120473 1.52008,-0.232677 2.27835,-0.338977l0.165354 -0.0248032c0.73819,-0.102756 1.47638,-0.197244 2.21457,-0.285827l0.225591 -0.0271654c0.726379,-0.0862205 1.45394,-0.165354 2.1815,-0.239764l0.219685 -0.0212599c0.742914,-0.0744095 1.48465,-0.141732 2.22756,-0.20315l0.120473 -0.00944883c0.733465,-0.0590552 1.46693,-0.112205 2.19921,-0.158268l0.309449 -0.0200788c0.679134,-0.0425197 1.35709,-0.0779528 2.03504,-0.109843l0.409843 -0.0177165c0.687402,-0.0295276 1.37362,-0.0543308 2.06103,-0.0732284l0.242126 -0.00472441c0.690945,-0.0177165 1.38189,-0.0330709 2.07166,-0.0401575l0.135827 -0.0011811 0.0897638 0c0.761812,-0.00590552 1.52244,-0.00826772 2.28189,-0.00236221l0.00472441 0c0.737008,0.00590552 1.47284,0.0188977 2.20866,0.0354331l0.154725 0.00236221 0.145276 0.00354331c0.664961,0.0177165 1.32756,0.0401575 1.99134,0.0661418l0.367323 0.0129921c0.677953,0.0283465 1.35473,0.0614174 2.0315,0.0992127l0.328347 0.0177165c0.676772,0.0401575 1.35354,0.0838583 2.02914,0.132284l0.381496 0.0271654c0.67441,0.0496063 1.34882,0.103937 2.02323,0.161811l0.324803 0.0283465c0.666142,0.0590552 1.32992,0.120473 1.99488,0.187795l0.46063 0.0484252c0.651969,0.068504 1.30512,0.138189 1.95709,0.214961l0.341339 0.0401575 1.98425 0.245669 0.129921 0.0165354 0.248032 0.034252c0.696851,0.0921261 1.39606,0.186614 2.0941,0.288189l0.00944883 0.0011811c0.741733,0.10748 1.4811,0.220866 2.22166,0.336614l0.10748 0.0165354 0.147638 0.022441c0.644882,0.102756 1.28858,0.210236 1.93228,0.318898l0.387402 0.0649607 1.89095 0.334252 0.582284 0.10748 1.86378 0.351969 0.426378 0.0838583 1.89803 0.382677 0.399213 0.0826772 1.80591 0.383859 0.780709 0.17126 1.59213 0.356693 0.259843 0.0590552 0.237402 0.0555119 1.84016 0.432284 0.116929 0.0271654 0.121654 0.0283465 0.472441 0.115748 1.25197 0.307087 1.14213 0.285827 1.24134 0.317717 1.13504 0.295276 1.31575 0.349607 0.370866 0.0980316 0.287008 0.0779528 1.22008 0.334252 0.226772 0.0625985 0.992127 0.276378 1.21772 0.343701 0.109843 0.0307087 0.989765 0.284646 0.116929 0.0330709 1.21654 0.355512 0.0437008 0.011811 0.887009 0.263386 0.285827 0.0838583 1.21417 0.364961 0.982678 0.297638 0.230315 0.0708662 1.21299 0.372048 0.0248032 -0.17126 39.3981 9.66497c62.2016,15.2575 132.967,20.3339 196.71,22.8697l1.99606 -0.0165354c157.549,-1.24725 139.073,-1.51299 242.755,-33.9154l9.00237 27.5717c0.108662,0.285827 0.214961,0.575197 0.318898,0.865749 0.34252,0.966142 0.634252,1.92402 0.910631,2.89961l0.00354331 0.011811c4.32992,13.2626 5.98347,36.3449 7.47166,50.4437 2.94213,27.8374 5.40945,55.7552 7.75867,83.6481 0.485433,5.7626 0.967324,11.5252 1.44567,17.2902 2.67047,32.1862 5.27599,64.4056 7.39843,96.6343 0.533859,8.09883 1.33819,17.6599 1.89803,27.3449l2.28543 0.18189 -1.81772 27.2646c-0.0814961,1.73858 -0.19252,3.42874 -0.337796,5.05985l-1.8 27.0118c-0.0484252,3.79134 0.0448819,7.52953 0.359055,11.1284 0.28937,3.33071 1.69134,13.8638 4.32284,16.3701 0.773623,0.735827 5.27244,0.941339 6.17953,0.941339l137.629 0c6.27284,0 7.3252,-2.13662 8.89843,-8.20394 1.02284,-3.94725 0.928347,-8.56418 0.356693,-12.5693 -0.746457,-5.2252 -2.42481,-10.5461 -4.46811,-15.4004 -6.7689,-16.089 -19.5756,-30.6614 -36.404,-36.4264l-20.2347 -6.93308 -2.16851 -21.2776c-2.99764,-29.4343 -5.3693,-59.0138 -7.88386,-88.4942 -2.0504,-24.0414 -5.03977,-48.2079 -6.65788,-72.2398 -2.7437,-40.7363 27.6201,-94.3761 48.3827,-129.149l25.8744 -43.3335 0.0011811 0.00236221c13.9925,-9.36379 27.6437,-19.5319 41.0067,-30.3603 13.6949,-11.0953 26.8394,-22.6358 39.5469,-34.5225 12.3815,-11.5819 24.8681,-24.0118 37.4244,-37.0571 9.82205,-10.2036 19.2791,-20.3646 28.467,-30.4902zm-938.183 231.767l3.10866 30.5162c2.65394,26.041 8.27717,75.5953 19.024,98.9552 0.0708662,0.153543 0.144095,0.315355 0.219685,0.475985l0.218504 0.322441c13.9276,20.4331 26.7851,54.052 35.6292,77.3587 4.73504,12.4784 13.7528,34.5603 18.2114,52.5544l3.54331 3.2563 -0.879922 15.7618c-0.178347,3.2126 -0.465355,6.45355 -0.702756,9.66497 -0.862205,11.6528 -1.77165,23.465 -1.77165,35.1485 0,5.36811 0.806694,23.6398 4.79055,28.1421 0.800788,0.236221 2.26536,0.279921 2.94449,0.279921 16.3843,0 32.8536,-0.418111 49.2461,-0.589371 29.8382,-0.309449 59.6882,-0.647245 89.5288,-0.647245 7.02284,0 7.86024,-2.71772 9.37796,-9.61654 1.17638,-5.34331 0.753544,-11.9929 -0.0484252,-17.3551 -1.07953,-7.20591 -3.09449,-14.4803 -5.69056,-21.2823 -5.44134,-14.2571 -16.9252,-33.5634 -31.9996,-38.8193l-12.7311 -4.43977 -6.08268 -12.0319c-9.54213,-18.8776 -18.3071,-38.4414 -26.9398,-57.7548 -11.2347,-25.1327 -22.8177,-50.2867 -33.176,-75.8693l-1.3311 0.47126 -10.8036 -32.2299c-6.30827,-18.8268 1.50591,-47.6977 5.84646,-66.8268 2.81339,-12.4004 5.67638,-24.8693 7.45512,-37.4658l0.529134 -3.74528 -0.818505 -0.270473 -0.240945 -0.0791339 -1.05827 -0.343701 -0.890552 -0.285827 -0.486615 -0.153543 -1.80709 -0.568111 -1.06299 -0.327166 -0.876379 -0.265748 -0.186614 -0.056693 -1.06536 -0.317717 -0.648426 -0.190158 -0.896457 -0.259843 -1.29567 -0.369685 -0.617717 -0.172441 -1.61102 -0.444095 -0.454725 -0.122835 -1.28976 -0.341339 -1.07126 -0.277559 -0.664961 -0.170079 -1.07244 -0.26811 -0.174803 -0.0425197 -0.885827 -0.217323 -1.37362 -0.323622 -0.827953 -0.190158 -1.38425 -0.31063 -0.496063 -0.10748 -1.55315 -0.329528 -0.601182 -0.122835 -1.48347 -0.295276 -0.646063 -0.124016 -1.52008 -0.281103 -0.594095 -0.105118 -1.54252 -0.263386 -0.466536 -0.0767717 -1.62874 -0.256299 -0.496063 -0.0720473 -1.51654 -0.216142 -0.583465 -0.0779528 -1.60158 -0.20315 -0.0897638 -0.0106299 -0.0850394 -0.011811 -0.237402 -0.0271654c-0.575197,-0.0673229 -1.14921,-0.129921 -1.72441,-0.190158l-0.134646 -0.0153543 -0.00708662 -0.0011811 -0.138189 -0.0129921c-0.62126,-0.0649607 -1.24252,-0.125197 -1.86496,-0.179528l-0.103937 -0.00944883 -0.0732284 -0.00590552c-0.666142,-0.0578741 -1.33228,-0.111024 -1.99961,-0.158268l-0.0531496 -0.00354331c-0.664961,-0.0472441 -1.33228,-0.0874016 -1.99961,-0.125197l-0.158268 -0.00826772c-0.630709,-0.0330709 -1.26024,-0.0625985 -1.89095,-0.0862205l-0.263386 -0.00944883c-0.602363,-0.0212599 -1.20591,-0.0389764 -1.81063,-0.0507874l-0.373229 -0.00708662c-0.607087,-0.011811 -1.21417,-0.0165354 -1.82244,-0.0177165l-0.245669 0c-0.630709,0 -1.26024,0.00472441 -1.89331,0.0165354l-0.270473 0.00472441c-0.641339,0.011811 -1.28268,0.0295276 -1.9252,0.0531496l-0.170079 0.00590552c-0.656693,0.0248032 -1.31339,0.0555119 -1.97244,0.0921261l-0.17126 0.0106299c-0.640158,0.0366142 -1.28268,0.0791339 -1.9252,0.127559l-0.277559 0.0212599c-0.622441,0.0484252 -1.24488,0.101575 -1.86732,0.161811l-0.3 0.0295276c-0.635434,0.0625985 -1.27323,0.12874 -1.91103,0.20315l-0.180709 0.022441c-0.649607,0.0755906 -1.30039,0.158268 -1.95118,0.245669l-0.080315 0.011811 -0.0744095 0.0106299c-0.693308,0.0968505 -1.3878,0.198425 -2.08347,0.309449 -5.88544,0.936615 -11.3941,3.03662 -16.3937,6.04725 -1.71496,1.03228 -6.43819,5.07638 -12.1984,10.2626 -0.644882,0.733465 -1.27441,1.48583 -1.88504,2.25591l-0.323622 -0.257481c-5.54056,5.03386 -11.7591,10.8473 -17.0941,15.9614zm52.0843 -34.8473c-0.648426,0.0755906 -1.30158,0.158268 -1.95118,0.245669"/>
   <path id="_378795272" class="fil0" d="M1518.46 587.442c-5.06575,-31.6819 -15.3461,-62.3126 -30.3591,-91.9855 -36.9414,-73.0146 -55.9831,-58.2945 -68.2217,-147.03 77.7957,20.9327 89.2005,40.9028 127.714,117.021 18.0189,35.6138 30.4158,72.7489 36.6213,111.556l-65.7544 10.4374z"/>
   <path id="_378795752" class="fil2" d="M1441.74 1140.58c-23.9788,26.7921 -48.6178,52.7941 -74.6304,77.1296 -26.3965,24.6933 -53.7756,47.2618 -82.6453,66.5823"/>
   <path id="_378795536" class="fil0" d="M1436.03 605.859c-19.1681,-25.728 -42.4713,-48.1087 -69.5245,-67.4481 -67.6512,-48.3615 -79.7552,-33.9508 -141.92,-104.143 87.1371,-9.26812 104.61,-4.43386 180.737,49.9843 32.4685,23.211 60.6615,50.3752 84.143,81.8906l-53.4355 39.7158z"/>
  </g>
 </g>
 <rect class="fil3" width="2048" height="2048"/>
</svg>
