<?xml version="1.0" encoding="UTF-8"?>
<!DOCTYPE svg PUBLIC "-//W3C//DTD SVG 1.1//EN" "http://www.w3.org/Graphics/SVG/1.1/DTD/svg11.dtd">
<!-- Creator: CorelDRAW -->
<svg xmlns="http://www.w3.org/2000/svg" xml:space="preserve" width="2048px" height="2048px" style="shape-rendering:geometricPrecision; text-rendering:geometricPrecision; image-rendering:optimizeQuality; fill-rule:evenodd; clip-rule:evenodd"
viewBox="0 0 2048 2048"
 xmlns:xlink="http://www.w3.org/1999/xlink">
 <defs>
  <style type="text/css">
   <![CDATA[
    .fil2 {fill:none}
    .fil1 {fill:#424242}
    .fil0 {fill:#424242;fill-rule:nonzero}
   ]]>
  </style>
 </defs>
 <g id="Layer_x0020_1">
  <metadata id="CorelCorpID_0Corel-Layer"/>
  <g id="_275885264">
   <g>
    <path id="_275886944" class="fil0" d="M303.985 1117.43l1440.03 0c12.8457,0 24.5032,5.23465 32.9327,13.6642 8.42953,8.42953 13.663,20.087 13.663,32.9327l0 127.006c0,12.8457 -5.23347,24.5032 -13.663,32.9327 -8.42953,8.42953 -20.087,13.663 -32.9327,13.663l-1440.03 0c-12.8457,0 -24.5032,-5.23347 -32.9327,-13.663 -8.42953,-8.42953 -13.663,-20.087 -13.663,-32.9327l0 -127.006c0,-12.8457 5.23347,-24.5032 13.663,-32.9327 8.42953,-8.42953 20.087,-13.6642 32.9327,-13.6642z"/>
    <path id="_275885480" class="fil0" d="M303.984 1553.72l1440.03 0c13.2272,0 25.2343,5.39056 33.9142,14.0705 8.68111,8.67993 14.0705,20.6823 14.0705,33.9154l0 127.006c0,13.2331 -5.38937,25.2343 -14.0705,33.9154 -8.67993,8.67993 -20.687,14.0705 -33.9142,14.0705l-1440.03 0c-13.2272,0 -25.2343,-5.39056 -33.9142,-14.0705 -8.68111,-8.68111 -14.0705,-20.6823 -14.0705,-33.9154l0 -127.006c0,-13.2331 5.38937,-25.2355 14.0705,-33.9154 8.67993,-8.67993 20.687,-14.0705 33.9142,-14.0705z"/>
    <polygon id="_275886104" class="fil0" points="1729.48,1370.96 1729.48,1520.39 318.523,1520.39 318.523,1370.96 "/>
   </g>
   <g>
    <path id="_275885840" class="fil0" d="M565.334 564.041c10.4976,15.0272 31.1929,18.6992 46.2201,8.20158 15.0272,-10.4965 18.7004,-31.1929 8.20276,-46.2201 -19.6075,-27.9886 -42.9579,-55.1315 -69.2363,-81.606 -25.9099,-26.1012 -54.841,-51.7548 -85.9548,-77.0764 -14.237,-11.576 -35.165,-9.4193 -46.741,4.81772 -11.576,14.237 -9.42048,35.165 4.81772,46.741 29.2819,23.8311 56.4662,47.9292 80.7461,72.3898 23.9067,24.0851 44.8323,48.3237 61.9453,72.7524z"/>
    <path id="_275886032" class="fil0" d="M628.907 514.167c0.718111,18.3366 16.1669,32.6185 34.5024,31.8992 18.3366,-0.718111 32.6185,-16.1658 31.9004,-34.5024 -1.39134,-34.167 -6.38032,-69.5847 -14.1862,-105.977 -7.73741,-36.0733 -18.228,-73.2768 -30.711,-111.293 -5.67993,-17.4732 -24.4524,-27.0331 -41.9244,-21.3532 -17.4732,5.67993 -27.0331,24.4524 -21.3532,41.9244 11.8099,35.9693 21.6874,70.9371 28.8898,104.523 7.13623,33.2634 11.6693,64.9997 12.8823,94.7788z"/>
    <path id="_275885984" class="fil0" d="M1014.61 564.041c10.4976,15.0272 31.1929,18.6992 46.2201,8.20158 15.0272,-10.4965 18.6992,-31.1929 8.20276,-46.2201 -19.6075,-27.9886 -42.9591,-55.1327 -69.2375,-81.606 -25.9075,-26.1012 -54.8398,-51.7548 -85.9548,-77.0764 -14.237,-11.576 -35.165,-9.4193 -46.741,4.81772 -11.5772,14.237 -9.42048,35.165 4.81772,46.741 29.2843,23.8323 56.4685,47.9304 80.7449,72.3898 23.9103,24.0862 44.8347,48.3237 61.9477,72.7524z"/>
    <path id="_275885960" class="fil0" d="M1078.19 514.167c0.718111,18.3366 16.1658,32.6185 34.5024,31.8992 18.3366,-0.718111 32.6185,-16.1658 31.9004,-34.5024 -1.39016,-34.167 -6.37914,-69.5835 -14.1851,-105.977 -7.73741,-36.0733 -18.228,-73.2768 -30.7122,-111.293 -5.67993,-17.4732 -24.4524,-27.0331 -41.9244,-21.3532 -17.4732,5.67993 -27.0331,24.4524 -21.3532,41.9244 11.811,35.9681 21.6886,70.9371 28.891,104.523 7.13623,33.2634 11.6693,64.9997 12.8811,94.7788z"/>
    <path id="_275885912" class="fil1" d="M887.877 979.622c-8.52284,-208.725 -17.0492,-417.45 -145.224,-479.155 -2.36221,-1.13858 -5.30079,-2.44725 -8.81103,-3.92717 -13.6417,-5.75315 -27.1276,-9.58583 -40.3075,-11.5973 -23.3067,-3.5563 -45.6567,-1.42323 -66.2138,5.83701 -1.51654,0.537402 -3.02362,1.10079 -4.52008,1.69252 -7.08308,2.79685 -13.8992,6.20079 -20.4154,10.1858 -18.463,11.2925 -34.5048,27.2551 -47.3174,47.3398 -3.80315,5.96221 -7.32166,12.2882 -10.5343,18.9614l0 0.126378c-1.39843,2.9067 -2.7189,5.82993 -3.95551,8.76142 -52.1138,123.552 57.1122,291.487 166.334,459.417 10.1681,15.6331 20.3362,31.265 30.3579,46.8378l75.5103 0 16.1752 0 63.789 0c-1.99843,-34.2296 -3.43465,-69.3556 -4.86733,-104.48zm-162.515 -90.0969c-5.53583,-17.4732 4.14095,-36.1288 21.6142,-41.6646l19.6571 -6.2693c17.4732,-5.53583 36.1288,4.14095 41.6646,21.6142 5.53583,17.4732 -4.14095,36.1276 -21.6142,41.6646l-19.6583 6.2693c-17.4721,5.53583 -36.1276,-4.14095 -41.6634,-21.6142zm-59.9587 -184.632c17.4732,-5.53583 36.1276,4.14095 41.6634,21.6142 5.53701,17.4721 -4.14095,36.1276 -21.613,41.6634l-19.6583 6.2693c-17.4732,5.53583 -36.1276,-4.14095 -41.6634,-21.6142 -5.53701,-17.4721 4.14095,-36.1276 21.613,-41.6634l19.6583 -6.2693z"/>
    <path id="_275885624" class="fil1" d="M1337.16 979.622c-8.52284,-208.725 -17.0492,-417.45 -145.224,-479.155 -2.36339,-1.13858 -5.30079,-2.44725 -8.81339,-3.92717 -13.6394,-5.75315 -27.1252,-9.58465 -40.3051,-11.5973 -23.3055,-3.5563 -45.6567,-1.42323 -66.2126,5.83701 -1.51654,0.537402 -3.02481,1.10079 -4.52244,1.69252 -7.0819,2.79685 -13.898,6.20079 -20.413,10.1858 -18.4642,11.2937 -34.5059,27.254 -47.3185,47.3398 -3.80315,5.96221 -7.32166,12.2882 -10.5354,18.9614l0 0.126378c-1.39843,2.9067 -2.7189,5.82993 -3.95433,8.76142 -52.1138,123.552 57.1099,291.487 166.334,459.417 10.1681,15.6331 20.3339,31.265 30.3567,46.8378l75.5115 0 16.1752 0 63.7878 0c-1.99725,-34.2296 -3.43347,-69.3556 -4.86615,-104.48zm-222.474 -274.729c17.4721,-5.53583 36.1276,4.14095 41.6634,21.6142 5.53583,17.4721 -4.14095,36.1276 -21.613,41.6634l-19.6595 6.2693c-17.4732,5.53583 -36.1276,-4.14095 -41.6646,-21.6142 -5.53583,-17.4721 4.14095,-36.1276 21.6142,-41.6634l19.6595 -6.2693zm59.9575 184.632c-5.53583,-17.4732 4.14095,-36.1288 21.613,-41.6646l19.6595 -6.2693c17.4732,-5.53583 36.1276,4.14095 41.6646,21.6142 5.53583,17.4732 -4.14095,36.1276 -21.6142,41.6646l-19.6595 6.2693c-17.4721,5.53583 -36.1276,-4.14095 -41.6634,-21.6142z"/>
   </g>
  </g>
 </g>
 <rect class="fil2" width="2048" height="2048"/>
</svg>
