<?xml version="1.0" encoding="UTF-8"?>
<!DOCTYPE svg PUBLIC "-//W3C//DTD SVG 1.1//EN" "http://www.w3.org/Graphics/SVG/1.1/DTD/svg11.dtd">
<!-- Creator: CorelDRAW -->
<svg xmlns="http://www.w3.org/2000/svg" xml:space="preserve" width="2048px" height="2048px" style="shape-rendering:geometricPrecision; text-rendering:geometricPrecision; image-rendering:optimizeQuality; fill-rule:evenodd; clip-rule:evenodd"
viewBox="0 0 2048 2048"
 xmlns:xlink="http://www.w3.org/1999/xlink">
 <defs>
  <style type="text/css">
   <![CDATA[
    .fil1 {fill:none}
    .fil0 {fill:#424242;fill-rule:nonzero}
   ]]>
  </style>
 </defs>
 <g id="Layer_x0020_1">
  <metadata id="CorelCorpID_0Corel-Layer"/>
  <path class="fil0" d="M1384.37 926.544c20.8536,-94.369 49.6181,-187.557 83.3977,-280.77 40.4729,-111.68 88.1009,-223.314 137.902,-337.072l29.25 12.75 -29.3138 -12.8327c7.08662,-16.1894 25.9571,-23.5677 42.1465,-16.4811 7.89686,3.45709 13.6973,9.7193 16.7445,17.1047l95.3953 192.011 0.0720473 -0.0354331c4.92993,9.92245 4.22953,21.1736 -0.87756,30.1252 -38.778,73.1658 -69.502,148.387 -93.0639,225.26 -17.0941,55.7717 -30.4949,112.471 -40.5355,169.94l-241.118 0z"/>
  <path class="fil0" d="M1634.38 1792l-143.397 0c-13.7185,0 -25.4209,-8.63505 -29.9705,-20.765 -35.7992,-83.4213 -62.152,-164.629 -80.3694,-244.1 -13.324,-58.1197 -22.2473,-115.276 -27.2929,-171.66l253.268 0c3.76181,54.3733 9.59174,109.245 17.2477,164.483 10.7764,77.7532 25.0559,155.558 42.1866,233.166l-31.1256 6.8752 31.2484 -6.89764c3.80906,17.2571 -7.09371,34.337 -24.3508,38.1461 -2.49921,0.551575 -4.99252,0.79252 -7.44449,0.752363z"/>
  <path class="fil0" d="M1051.57 926.544c8.01379,-98.1568 22.1504,-195.677 41.6327,-293.027 23.4709,-117.286 54.9981,-235.464 93.1442,-355.142l30.3756 9.62481 -30.489 -9.71812c4.39961,-13.8024 17.289,-22.5366 31.0677,-22.2827l229.729 0c17.6728,0 32.0008,14.328 32.0008,32.0008 0,5.80512 -1.54606,11.2488 -4.24961,15.9437 -45.815,86.5241 -82.0642,188.865 -109.458,300.372 -24.9189,101.43 -42.5351,210.489 -53.3894,322.229l-260.365 0z"/>
  <path class="fil0" d="M1321.36 1792l-143.439 0c-15.3461,0 -28.167,-10.8036 -31.278,-25.2189 -25.5295,-80.5205 -45.8599,-159.425 -61.3619,-236.951 -11.6847,-58.4374 -20.778,-116.529 -27.4288,-174.356l244.415 0c3.0437,60.2871 7.94174,119.743 14.6067,177.548 9.00827,78.13 21.1205,152.176 36.1158,220.101l-31.1256 6.8752 31.2473 -6.89882c3.80906,17.2571 -7.09134,34.337 -24.3484,38.1461 -2.48504,0.548032 -4.96536,0.788977 -7.40316,0.753544z"/>
  <path class="fil0" d="M619.888 740.719c14.4083,62.0209 26.2831,123.914 35.341,185.824l-238.992 0c-11.0634,-68.7414 -25.5461,-135.225 -43.6489,-197.71 -22.1043,-76.2993 -49.6548,-146.616 -83.0115,-207.722 -3.09567,-4.92638 -4.88859,-10.7539 -4.88859,-17.002 0,-17.6728 14.328,-32.0008 32.0008,-32.0008l202.525 0c13.6843,-0.281103 26.5323,8.3067 31.0394,21.9839l-30.3921 10.0169 30.3756 -10.0004c27.0886,82.1918 50.5181,164.254 69.6508,246.61z"/>
  <path class="fil0" d="M554.098 1792l-126.478 0c-2.51221,0.0377953 -5.06693,-0.219685 -7.62402,-0.80315 -17.2299,-3.93189 -28.0087,-21.0886 -24.0768,-38.3185l0.0944883 0.0212599c15.4193,-67.5721 27.3248,-141.607 35.4118,-219.412 6.01063,-57.8327 9.91418,-117.534 11.5866,-178.012l226.741 0c-4.84489,57.4855 -12.5681,115.313 -23.3835,173.596 -14.7354,79.3938 -35.0492,159.188 -61.4658,239.618 -3.78662,13.4504 -16.1445,23.3114 -30.8055,23.3114z"/>
  <path class="fil0" d="M719.311 926.544c7.06064,-97.8863 19.5047,-195.157 36.6508,-292.277 20.7768,-117.692 48.5374,-235.753 82.0383,-354.893l30.75 8.6256 -30.8055 -8.66221c4.03583,-14.3539 17.2477,-23.6551 31.4965,-23.3386l202.482 0c17.6728,0 32.0008,14.328 32.0008,32.0008 0,5.85 -1.57087,11.3327 -4.31339,16.0524 -39.9603,85.969 -71.7178,187.97 -95.8654,299.386 -22.0855,101.903 -37.6796,211.251 -47.2642,323.106l-237.17 0z"/>
  <path class="fil0" d="M960.989 1792l-126.475 0c-15.4134,0 -28.2815,-10.8992 -31.3205,-25.4103 -22.4717,-80.2453 -40.4386,-159.345 -54.2256,-237.509 -10.2614,-58.1717 -18.254,-116.015 -24.1063,-173.606l223.09 0c2.68583,60.6355 7.00749,120.256 12.8835,178.042 7.86851,77.3646 18.6059,151.495 32.0162,220.376l0.0555119 -0.0106299c3.37796,17.3469 -7.94646,34.1492 -25.2933,37.5272 -2.22638,0.433465 -4.44449,0.622441 -6.62481,0.590552z"/>
  <path class="fil0" d="M402.998 958.543l1242 0c26.0835,0 49.7741,10.6488 66.9249,27.802 17.1532,17.1532 27.802,40.8437 27.802,66.9249l0 175.479c0,26.0835 -10.6488,49.7741 -27.802,66.9249 -17.1508,17.1532 -40.8414,27.802 -66.9249,27.802l-1242 0c-26.0823,0 -49.7717,-10.6488 -66.926,-27.8008 -17.152,-17.1543 -27.8008,-40.8437 -27.8008,-66.926l0 -175.479c0,-26.0811 10.6488,-49.7717 27.8008,-66.926 17.1543,-17.152 40.8437,-27.8008 66.926,-27.8008z"/>
 </g>
 <rect class="fil1" width="2048" height="2048"/>
</svg>
