<?xml version="1.0" encoding="UTF-8"?>
<!DOCTYPE svg PUBLIC "-//W3C//DTD SVG 1.1//EN" "http://www.w3.org/Graphics/SVG/1.1/DTD/svg11.dtd">
<!-- Creator: CorelDRAW -->
<svg xmlns="http://www.w3.org/2000/svg" xml:space="preserve" width="2048px" height="2048px" style="shape-rendering:geometricPrecision; text-rendering:geometricPrecision; image-rendering:optimizeQuality; fill-rule:evenodd; clip-rule:evenodd"
viewBox="0 0 2048 2048"
 xmlns:xlink="http://www.w3.org/1999/xlink">
 <defs>
  <style type="text/css">
   <![CDATA[
    .fil2 {fill:none}
    .fil1 {fill:#424242}
    .fil0 {fill:#424242;fill-rule:nonzero}
   ]]>
  </style>
 </defs>
 <g id="Layer_x0020_1">
  <metadata id="CorelCorpID_0Corel-Layer"/>
  <g id="_275884376">
   <path id="_275884544" class="fil0" d="M288 1454.22c-17.6728,0 -32.0008,14.328 -32.0008,32.0008 0,17.6728 14.328,32.0008 32.0008,32.0008l1472 0c17.6728,0 32.0008,-14.328 32.0008,-32.0008 0,-17.6728 -14.328,-32.0008 -32.0008,-32.0008l-1472 0z"/>
   <path id="_275884040" class="fil1" d="M1444.03 821.032c-109.456,-170.437 -256.492,-291.252 -420.032,-291.252 -163.54,0 -310.576,120.815 -420.032,291.252 -119.95,186.778 -195.769,434.831 -197.397,645.475l297.429 0 0 -216.363c0,-25.3323 10.3417,-48.3414 27,-64.9997 16.6583,-16.6583 39.6674,-27 64.9997,-27l188.365 0c25.3323,0 48.3414,10.3417 64.9997,27 16.6583,16.6583 27,39.6674 27,64.9997l0 216.363 565.065 0c-1.62756,-210.644 -77.4461,-458.697 -197.397,-645.475zm-54.5315 407.114c14.3587,-10.2165 34.2827,-6.85867 44.4992,7.50001 10.2165,14.3587 6.85867,34.2827 -7.50001,44.4992l-104.088 74.4969c-14.3587,10.2165 -34.2827,6.85867 -44.4992,-7.50001 -10.2165,-14.3587 -6.85867,-34.2827 7.50001,-44.4992l104.088 -74.4969zm-235.273 -361.986c-9.66497,-14.7047 -5.57953,-34.4611 9.1252,-44.126 14.7047,-9.66497 34.4611,-5.57953 44.126,9.1252l70.2969 106.97c9.66497,14.7047 5.57953,34.4611 -9.1252,44.126 -14.7047,9.66497 -34.4611,5.57953 -44.126,-9.1252l-70.2969 -106.97zm-474.025 9.35906c14.7047,-9.66497 34.4611,-5.57953 44.126,9.1252l70.2969 106.97c9.66497,14.7047 5.57953,34.4611 -9.1252,44.126 -14.7047,9.66497 -34.4611,5.57953 -44.126,-9.1252l-70.2969 -106.97c-9.66497,-14.7047 -5.57953,-34.4611 9.1252,-44.126z"/>
  </g>
 </g>
 <rect class="fil2" width="2048" height="2048"/>
</svg>
