<?xml version="1.0" encoding="UTF-8"?>
<!DOCTYPE svg PUBLIC "-//W3C//DTD SVG 1.1//EN" "http://www.w3.org/Graphics/SVG/1.1/DTD/svg11.dtd">
<!-- Creator: CorelDRAW -->
<svg xmlns="http://www.w3.org/2000/svg" xml:space="preserve" width="2048px" height="2048px" style="shape-rendering:geometricPrecision; text-rendering:geometricPrecision; image-rendering:optimizeQuality; fill-rule:evenodd; clip-rule:evenodd"
viewBox="0 0 2048 2048"
 xmlns:xlink="http://www.w3.org/1999/xlink">
 <defs>
  <style type="text/css">
   <![CDATA[
    .fil2 {fill:none}
    .fil0 {fill:#212121;fill-rule:nonzero}
    .fil1 {fill:#424242;fill-rule:nonzero}
   ]]>
  </style>
 </defs>
 <g id="Layer_x0020_1">
  <metadata id="CorelCorpID_0Corel-Layer"/>
  <g id="_371563480">
   <polygon id="_371563600" class="fil0" points="1657.78,357.294 1657.78,357.292 1633.2,339.684 "/>
   <path id="_371563360" class="fil1" d="M1179.35 1711.39c17.465,2.55355 33.6969,-9.53505 36.2504,-27 2.55355,-17.465 -9.53505,-33.6969 -27,-36.2504l-53.9185 -7.99489c0.96378,-3.23386 1.42559,-6.67796 1.30039,-10.2378 -0.375591,-10.2791 -2.63858,-22.1669 -6.99331,-36.3319 -3.75118,-12.1984 -9.09095,-26.3634 -16.1811,-43.0252 -0.249213,-0.714567 -0.52441,-1.42559 -0.827953,-2.13071l-0.0248032 0.0106299c-3.09449,-7.19056 -6.02835,-14.0504 -7.67363,-18.6236 -0.703938,-1.95827 -1.3748,-3.94134 -2.00551,-5.95985l89.791 -0.582284c3.6437,1.18465 7.56379,1.7315 11.6197,1.50945 0.454725,-0.0259843 0.900001,-0.0614174 1.35118,-0.0897638l43.3595 111.318 -14.4602 13.1386c-13.0476,11.8736 -13.9996,32.0776 -2.12599,45.1252 11.8736,13.0476 32.0776,13.9996 45.1252,2.12599l34.102 -30.9839 63.1571 9.36497c17.465,2.55355 33.6969,-9.53505 36.2504,-27 2.55355,-17.465 -9.53505,-33.6969 -27,-36.2504l-77.9847 -11.563 0.00590552 -0.0377953c-0.929528,-0.138189 -1.85669,-0.232677 -2.77795,-0.28937l-35.3079 -90.645c43.2603,-21.1441 69.4288,-60.5445 97.5946,-102.965l4.49174 -6.75709 0.056693 0.0377953 0.0236221 -0.034252c0.477166,-0.715749 0.921261,-1.44331 1.33347,-2.18268 22.7339,-33.9898 44.2855,-65.7142 69.4583,-79.617 86.8879,-10.0099 154.879,-51.3142 204.633,-124.909 47.967,-70.9501 77.9847,-172.114 90.7064,-304.477 7.663,-80.3068 -15.8847,-129.554 -42.1961,-184.579 -7.213,-15.0862 -14.6634,-30.6638 -21.5658,-47.5099 6.71221,-3.67205 13.1539,-7.58977 19.5756,-11.4945 19.9205,-12.1158 39.5622,-24.0579 58.7835,-17.9634l-0.0413386 0.12874c16.8343,5.37874 34.8437,-3.90709 40.2225,-20.7414 2.08583,-6.52678 1.96417,-13.2295 0.0555119,-19.3063 -7.53898,-31.1339 -30.1394,-51.0083 -52.0701,-70.2638l0.0543308 -0.0614174 -0.0295276 -0.0259843 0.0177165 -0.0212599 -0.151181 -0.129921 0.0011811 -0.0011811c-0.686221,-0.604725 -1.3937,-1.17165 -2.11536,-1.70669 -26.4898,-23.2914 -25.3547,-26.4307 -22.1032,-35.3764 6.12638,-16.8484 14.7118,-40.4563 15.2752,-82.9961l0.122835 0.0011811c0.231496,-17.6705 -13.9075,-32.1851 -31.578,-32.4166 -2.51575,-0.0330709 -4.96772,0.226772 -7.32402,0.745276 -5.69528,1.11732 -11.3953,3.39449 -17.4756,6.31654 -1.62165,-13.4339 -5.14607,-26.6103 -9.83032,-41.4922l-30.4996 9.49961 30.5233 -9.60828c-5.30552,-16.8567 -23.2748,-26.2205 -40.1315,-20.915 -1.8874,0.594095 -3.68032,1.34764 -5.3693,2.24055 -5.6067,2.64685 -7.72796,5.10237 -10.4599,8.86536 -0.312992,0.411024 -0.614174,0.826772 -0.905906,1.25197l-0.0106299 -0.00708662c-0.483071,0.67441 -0.936615,1.35945 -1.35945,2.05748 -4.07953,5.4567 -14.8016,18.8764 -27.4654,26.224 -7.53308,4.37008 -17.576,4.00512 -28.0902,-14.1154l-27.6248 16.0004 27.678 -16.0595c-8.8689,-15.2858 -28.4516,-20.4874 -43.7374,-11.6185 -10.9417,6.34843 -16.715,18.1866 -15.861,30.0083 0.0318898,21.9921 6.94253,45.1689 13.6547,67.6772 1.04882,3.51851 2.09291,7.01693 3.08859,10.4445 -34.7422,9.42402 -63.1099,24.561 -88.4965,44.3587 -31.7221,24.7358 -57.4229,55.813 -85.1386,91.8709 -9.07796,11.7673 -17.074,26.6398 -24.6236,43.3429 -6.94371,15.3579 -13.6252,32.452 -20.4992,50.0658 -24.3721,62.0623 -61.8426,167.277 -142.969,167.277 -2.22047,0 -4.3878,0.225591 -6.48071,0.656693 -2.41418,0.279921 -5.11181,0.519685 -8.03859,0.709843 -3.00591,0.194882 -6.73229,0.301181 -11.1331,0.301181 -55.3536,0 -112.231,-23.9079 -165.92,-56.5607 -56.5701,-34.402 -109.519,-78.3225 -154.187,-115.429 0.464174,-0.734646 -54.3189,-44.1095 -59.5264,-48.0319 -2.48032,-3.56693 -4.97953,-7.31103 -7.51182,-11.2075 -2.31614,-3.56221 -6.18426,-9.71812 -10.7268,-16.9937 5.35512,-19.9725 -98.8784,-146.445 -172.57,-136.943 -0.246851,-0.3 -3.00473,0.396851 -3.49961,0.516142 -23.1343,4.04055 -36.4748,17.1201 -51.776,32.126 -0.611811,0.575197 -1.03228,0.904725 -1.66063,1.6063 -9.73938,9.42993 -20.7673,19.7599 -34.526,23.3965 -0.467717,-0.121654 -1.73386,0.382677 -2.23583,0.549213 -42.0107,10.4126 -96.9072,29.2666 -136.428,51.6367 -38.4473,21.7654 -64.8355,49.0914 -62.6363,81.2138 0.643701,2.20748 0.712205,5.8193 1.77638,8.76142 10.1421,32.1721 61.3465,82.9595 123.104,128.41 28.826,21.2138 60.3201,41.9965 90.978,59.6315 -12.9378,4.65945 -23.7839,8.56536 -26.0587,8.56536 -17.6728,0 -32.0008,14.328 -32.0008,32.0008 0,7.72205 2.73544,14.8039 7.28977,20.3327 10.8095,14.6303 31.011,34.6772 53.7721,55.3536 32.4485,29.4768 72.1406,62.0611 94.33,79.7079 23.1862,37.8177 44.3941,85.3843 65.2607,132.191 26.1709,58.702 51.8363,116.267 82.767,157.942l25.6252 -19.0004 -25.6961 19.0713c0.298819,0.402756 0.605906,0.797245 0.921261,1.18228 17.2465,22.6229 40.4729,38.1142 67.1422,50.1118 24.1902,10.8827 51.1937,18.7228 78.991,26.7662l0.938977 0.274016c27.7229,8.08465 56.7532,16.552 83.0422,28.9925 3.72402,1.75748 7.61693,2.73071 11.4921,2.98937 2.31614,2.96575 5.19804,5.5689 8.60788,7.63347 15.4087,9.33426 29.5406,20.7366 41.302,35.3185 11.6079,14.3882 21.0402,32.0859 27.2977,54.2445l0.119291 0.557481 -0.0578741 0.0165354c0.0755906,0.272835 0.155906,0.542126 0.238583,0.811418 1.9004,8.6256 4.27796,16.4232 6.94607,23.8453 3.39449,9.43583 6.14882,15.9248 8.9315,22.3902l0.0448819 -0.0188977 0.00826772 0.0177165 -0.0696851 0.0295276c0.276378,0.641339 0.572835,1.26732 0.885827,1.8815 6.29174,14.7921 10.8839,26.8914 13.9075,36.7193 2.70236,8.79095 4.07481,15.2646 4.24134,19.8319 0.236221,6.69331 2.51929,12.8291 6.2256,17.8335l-39.365 35.7662c-13.0476,11.8736 -13.9996,32.0776 -2.12599,45.1252 11.8736,13.0476 32.0776,13.9996 45.1252,2.12599l34.102 -30.9839 63.1571 9.36497zm-309.593 -833.886c-24.9874,114.178 34.4717,221.793 117.515,283.807 33.3272,24.887 70.0394,42.2445 106.207,49.5473 34.663,6.99804 68.8501,4.83898 98.7993,-8.81339 58.1445,-26.504 102.97,-97.6831 109.961,-231.064 23.8477,-30.0803 44.9044,-26.6681 63.7512,3.2504 -8.44961,161.222 -68.6363,249.995 -147.213,285.813 -42.8351,19.526 -90.4288,22.8768 -137.799,13.3134 -45.867,-9.26103 -91.4564,-30.5516 -131.958,-60.7961 -100.805,-75.2776 -172.695,-207.215 -141.763,-348.558 26.7248,-26.915 45.7855,-12.9673 62.4993,13.5zm709.819 -317.96c-19.5461,0 -35.2311,-15.8138 -35.2311,-35.2311 0,-19.4079 15.6851,-35.2311 35.2311,-35.2311 19.4079,0 35.2323,15.8232 35.2323,35.2311 0,19.4173 -15.8244,35.2311 -35.2323,35.2311z"/>
  </g>
 </g>
 <rect class="fil2" width="2048" height="2048"/>
</svg>
