<?xml version="1.0" encoding="UTF-8"?>
<!DOCTYPE svg PUBLIC "-//W3C//DTD SVG 1.1//EN" "http://www.w3.org/Graphics/SVG/1.1/DTD/svg11.dtd">
<!-- Creator: CorelDRAW -->
<svg xmlns="http://www.w3.org/2000/svg" xml:space="preserve" width="2048px" height="2048px" style="shape-rendering:geometricPrecision; text-rendering:geometricPrecision; image-rendering:optimizeQuality; fill-rule:evenodd; clip-rule:evenodd"
viewBox="0 0 2048 2048"
 xmlns:xlink="http://www.w3.org/1999/xlink">
 <defs>
  <style type="text/css">
   <![CDATA[
    .fil2 {fill:none}
    .fil1 {fill:#424242}
    .fil0 {fill:#424242;fill-rule:nonzero}
   ]]>
  </style>
 </defs>
 <g id="Layer_x0020_1">
  <metadata id="CorelCorpID_0Corel-Layer"/>
  <g id="_371564296">
   <path id="_371562232" class="fil0" d="M412.986 861.707l597.139 -287.776 13.8756 -6.68623 13.8756 6.68623 597.141 287.776c11.8276,5.69764 21.5705,11.8406 30.1193,20.0988 9.15946,8.84646 16.1185,19.1894 21.6012,32.6233l95.9257 235.025 -0.10748 0.0437008c2.66693,6.54095 3.89292,12.8941 3.89292,18.9839 0,13.9382 -5.69056,26.4319 -14.765,36.5268 -7.24134,8.05512 -16.9099,14.628 -27.2303,18.841 -8.69646,3.54803 -18.1677,5.57599 -27.3874,5.57599l-1386.13 0c-9.22324,0 -18.7016,-2.02677 -27.4004,-5.57835 -10.3158,-4.20945 -19.9819,-10.7752 -27.2221,-18.8303 -9.07442,-10.0913 -14.7614,-22.5815 -14.7614,-36.5233 0,-6.3 1.1941,-12.6874 3.7878,-19.0394l95.9245 -235.025c2.0811,-5.10355 4.35237,-10.3571 7.24489,-15.9768 3.08032,-5.98583 6.70512,-11.7992 11.2512,-17.2536 9.6378,-11.5724 18.3815,-14.4626 28.2295,-17.7177 2.03504,-0.673229 4.1941,-1.3878 4.99607,-1.77402z"/>
   <path id="_371561776" class="fil0" d="M1677.2 1261.43l68.276 176.304c2.45788,6.34489 3.58937,12.5469 3.58937,18.528 0,14.0386 -5.78977,26.7331 -14.9232,36.9662 -7.44568,8.34213 -17.3917,15.0508 -27.8988,19.1209 -8.02914,3.10748 -16.4977,4.85788 -24.6473,4.85788l-1315.19 0c-8.15434,0 -16.6299,-1.75158 -24.6626,-4.86142 -10.5024,-4.06654 -20.4437,-10.7693 -27.8894,-19.1114 -9.13229,-10.2295 -14.9185,-22.9181 -14.9185,-36.9591 0,-5.98347 1.13386,-12.1902 3.59174,-18.541l68.276 -176.304 1306.4 0z"/>
   <path id="_371565688" class="fil0" d="M1691.83 1548.63l53.6433 138.521c2.45788,6.34489 3.58937,12.5469 3.58937,18.528 0,14.0386 -5.78977,26.7331 -14.9232,36.9662 -7.44568,8.34213 -17.3917,15.0508 -27.8988,19.1209 -8.02914,3.10748 -16.4977,4.85788 -24.6473,4.85788l-1315.19 0c-8.15434,0 -16.6299,-1.75158 -24.6626,-4.86142 -10.5024,-4.06654 -20.4437,-10.7693 -27.8894,-19.1114 -9.13229,-10.2295 -14.9185,-22.9181 -14.9185,-36.9591 0,-5.98347 1.13386,-12.1902 3.59174,-18.541l53.6433 -138.52c3.4004,0.379134 6.81851,0.575197 10.2354,0.575197l1315.19 0c3.41693,0 6.83623,-0.197244 10.2366,-0.576378z"/>
   <g>
    <g>
     <path id="_371565640" class="fil0" d="M624.797 406.574c0.0602363,0.229134 0.120473,0.530315 0.179528,0.903544 1.67244,10.6701 -30.2799,43.0595 -73.0406,72.1288 -31.6536,21.5185 -69.3237,41.8855 -103.297,50.954 -10.5083,2.80512 -20.9126,4.99252 -31.076,6.58701 -31.5733,4.95118 -60.2304,3.97087 -82.089,-2.1437 -22.9583,-6.42166 -38.7496,-18.5669 -43.2992,-35.6126 -0.327166,-1.2248 -0.603544,-2.54528 -0.82441,-3.95906 -3.26575,-20.8252 10.4551,-43.7882 35.2784,-64.0784 23.9646,-19.5874 58.5,-36.9662 97.9205,-47.4886 7.08308,-1.89095 14.5382,-3.42166 22.2414,-4.62992 37.9701,-5.95512 80.6776,-3.6189 114.359,2.02677 35.1638,5.89489 61.2284,16.252 63.6473,25.3122z"/>
     <path id="_371565424" class="fil0" d="M627.778 410.279c0.373229,0.0590552 0.67441,0.119291 0.904725,0.180709 9.05906,2.41772 19.4162,28.4835 25.311,63.6461 5.64567,33.6827 7.9819,76.3902 2.02795,114.359 -1.20827,7.70316 -2.74016,15.1583 -4.62992,22.2414 -10.5236,39.4217 -27.9012,73.956 -47.4898,97.9205 -20.289,24.8232 -43.2532,38.5441 -64.0784,35.2796 -1.41378,-0.222047 -2.73425,-0.497244 -3.95906,-0.82441 -17.0445,-4.55079 -29.191,-20.3421 -35.6126,-43.3004 -6.11339,-21.8587 -7.09371,-50.5158 -2.14252,-82.089 1.59331,-10.1634 3.78071,-20.5677 6.58583,-31.076 9.06969,-33.9733 29.4355,-71.6434 50.9552,-103.297 29.0693,-42.7607 61.4575,-74.713 72.1276,-73.0406z"/>
     <path id="_371565208" class="fil0" d="M572.312 372.857c0.479528,-0.976772 0.987402,-1.93819 1.52244,-2.88425 2.49449,-4.4126 5.53937,-8.44016 9.07796,-11.9787 11.9256,-11.9256 28.0382,-17.3693 44.4485,-16.5295 16.2118,0.829134 32.7142,7.81654 45.665,20.7662 12.9496,12.9508 19.937,29.4532 20.7662,45.665 0.839764,16.4102 -4.60394,32.5229 -16.5295,44.4485 -4.06654,4.06654 -8.75906,7.46812 -13.9228,10.1268 -0.311811,0.16063 -0.625985,0.318898 -0.941339,0.473622 -3.98504,-20.3138 -12.6921,-54.2516 -28.591,-61.506 -7.26497,-15.8917 -41.1874,-24.5965 -61.4953,-28.5815z"/>
     <path id="_371564848" class="fil0" d="M626.18 420.371c0.0401575,0.00590552 0.0614174,0.00826772 0.0106299,0l-0.0106299 0z"/>
     <path id="_371565352" class="fil0" d="M614.884 409.066c-0.00826772,-0.0507874 -0.00472441,-0.0307087 0.0011811,0.00944883l-0.0011811 -0.00944883z"/>
     <path id="_371564824" class="fil0" d="M641.517 285.458c0.570473,-2.76378 3.2752,-4.54016 6.0378,-3.96969 2.76378,0.571654 4.54016,3.27638 3.96851,6.03898l-12.4004 60.4571c-0.571654,2.7626 -3.2752,4.54016 -6.0378,3.96851 -2.76378,-0.571654 -4.54016,-3.2752 -3.96969,-6.0378l12.4016 -60.4571z"/>
     <path id="_371565496" class="fil0" d="M747.728 383.732c2.76378,-0.571654 5.46733,1.20591 6.03898,3.96851 0.571654,2.76378 -1.20591,5.46733 -3.96969,6.03898l-60.456 12.4004c-2.76378,0.570473 -5.46733,-1.20591 -6.03898,-3.96969 -0.571654,-2.7626 1.20591,-5.46615 3.96851,-6.0378l60.4571 -12.4004z"/>
     <path id="_371565448" class="fil1" d="M429.193 689.953l-83.8938 -83.8938c-2.37756,6.98623 -4.22244,13.7681 -5.50985,20.2819 -4.90394,24.7902 -1.68898,45.4441 10.9961,58.1292 12.75,12.75 33.5516,15.9307 58.513,10.9146 6.39567,-1.28504 13.0476,-3.10276 19.8945,-5.43189zm84.0461 -174.846l6.90827 6.90827c2.8311,-5.3126 5.77441,-10.5543 8.79331,-15.7004 -5.14725,3.0189 -10.389,5.96221 -15.7016,8.79213zm-57.3709 24.0886l40.1918 40.1906c4.64528,-15.9484 11.328,-32.0988 19.1492,-47.7933l-11.5465 -11.5465c-15.6957,7.82008 -31.8449,14.5039 -47.7945,19.1492zm-70.1764 11.2807l99.0863 99.0875c0.347244,-11.4177 1.50827,-22.7315 3.19134,-33.4618 1.32874,-8.47796 3.02126,-16.9004 5.0504,-25.239l-48.6272 -48.6284c-8.33859,2.02914 -16.7622,3.72166 -25.239,5.05158 -10.7315,1.68307 -22.0453,2.84292 -33.4618,3.19016zm-36.45 45.0083l90.5257 90.5268c14.1331,-5.71418 28.9335,-13.4504 43.9122,-23.0315l-111.403 -111.402c-9.58347,14.9811 -17.3209,29.7803 -23.0351,43.9063z"/>
    </g>
    <g>
     <path id="_371564920" class="fil0" d="M1423.2 406.574c-0.0602363,0.229134 -0.120473,0.530315 -0.179528,0.903544 -1.67244,10.6701 30.2799,43.0595 73.0406,72.1288 31.6536,21.5185 69.3237,41.8855 103.297,50.954 10.5083,2.80512 20.9126,4.99252 31.076,6.58701 31.5733,4.95118 60.2304,3.97087 82.089,-2.1437 22.9583,-6.42166 38.7496,-18.5669 43.2992,-35.6126 0.327166,-1.2248 0.603544,-2.54528 0.82441,-3.95906 3.26575,-20.8252 -10.4551,-43.7882 -35.2784,-64.0784 -23.9646,-19.5874 -58.5,-36.9662 -97.9205,-47.4886 -7.08308,-1.89095 -14.5382,-3.42166 -22.2414,-4.62992 -37.9701,-5.95512 -80.6776,-3.6189 -114.359,2.02677 -35.1638,5.89489 -61.2284,16.252 -63.6473,25.3122z"/>
     <path id="_371565400" class="fil0" d="M1420.22 410.279c-0.373229,0.0590552 -0.67441,0.119291 -0.904725,0.180709 -9.05906,2.41772 -19.4162,28.4835 -25.311,63.6461 -5.64567,33.6827 -7.9819,76.3902 -2.02795,114.359 1.20827,7.70316 2.74016,15.1583 4.62992,22.2414 10.5236,39.4217 27.9012,73.956 47.4898,97.9205 20.289,24.8232 43.2532,38.5441 64.0784,35.2796 1.41378,-0.222047 2.73425,-0.497244 3.95906,-0.82441 17.0445,-4.55079 29.191,-20.3421 35.6126,-43.3004 6.11339,-21.8587 7.09371,-50.5158 2.14252,-82.089 -1.59331,-10.1634 -3.78071,-20.5677 -6.58583,-31.076 -9.06969,-33.9733 -29.4355,-71.6434 -50.9552,-103.297 -29.0693,-42.7607 -61.4575,-74.713 -72.1276,-73.0406z"/>
     <path id="_371565472" class="fil0" d="M1475.69 372.857c-0.479528,-0.976772 -0.987402,-1.93819 -1.52244,-2.88425 -2.49449,-4.4126 -5.53937,-8.44016 -9.07796,-11.9787 -11.9256,-11.9256 -28.0382,-17.3693 -44.4485,-16.5295 -16.2118,0.829134 -32.7142,7.81654 -45.665,20.7662 -12.9496,12.9508 -19.937,29.4532 -20.7662,45.665 -0.839764,16.4102 4.60394,32.5229 16.5295,44.4485 4.06654,4.06654 8.75906,7.46812 13.9228,10.1268 0.311811,0.16063 0.625985,0.318898 0.941339,0.473622 3.98504,-20.3138 12.6921,-54.2516 28.591,-61.506 7.26497,-15.8917 41.1874,-24.5965 61.4953,-28.5815z"/>
     <path id="_371564128" class="fil0" d="M1421.82 420.371c-0.0401575,0.00590552 -0.0614174,0.00826772 -0.0106299,0l0.0106299 0z"/>
     <path id="_371564464" class="fil0" d="M1433.12 409.066c0.00826772,-0.0507874 0.00472441,-0.0307087 -0.0011811,0.00944883l0.0011811 -0.00944883z"/>
     <path id="_371564752" class="fil0" d="M1406.48 285.458c-0.570473,-2.76378 -3.2752,-4.54016 -6.0378,-3.96969 -2.76378,0.571654 -4.54016,3.27638 -3.96851,6.03898l12.4004 60.4571c0.571654,2.7626 3.2752,4.54016 6.0378,3.96851 2.76378,-0.571654 4.54016,-3.2752 3.96969,-6.0378l-12.4016 -60.4571z"/>
     <path id="_371564416" class="fil0" d="M1300.27 383.732c-2.76378,-0.571654 -5.46733,1.20591 -6.03898,3.96851 -0.571654,2.76378 1.20591,5.46733 3.96969,6.03898l60.456 12.4004c2.76378,0.570473 5.46733,-1.20591 6.03898,-3.96969 0.571654,-2.7626 -1.20591,-5.46615 -3.96851,-6.0378l-60.4571 -12.4004z"/>
     <path id="_371564656" class="fil1" d="M1618.81 689.953l83.8938 -83.8938c2.37756,6.98623 4.22244,13.7681 5.50985,20.2819 4.90394,24.7902 1.68898,45.4441 -10.9961,58.1292 -12.75,12.75 -33.5516,15.9307 -58.513,10.9146 -6.39567,-1.28504 -13.0476,-3.10276 -19.8945,-5.43189zm-84.0461 -174.846l-6.90827 6.90827c-2.8311,-5.3126 -5.77441,-10.5543 -8.79331,-15.7004 5.14725,3.0189 10.389,5.96221 15.7016,8.79213zm57.3709 24.0886l-40.1918 40.1906c-4.64528,-15.9484 -11.328,-32.0988 -19.1492,-47.7933l11.5465 -11.5465c15.6957,7.82008 31.8449,14.5039 47.7945,19.1492zm70.1764 11.2807l-99.0863 99.0875c-0.347244,-11.4177 -1.50827,-22.7315 -3.19134,-33.4618 -1.32874,-8.47796 -3.02126,-16.9004 -5.0504,-25.239l48.6272 -48.6284c8.33859,2.02914 16.7622,3.72166 25.239,5.05158 10.7315,1.68307 22.0453,2.84292 33.4618,3.19016zm36.45 45.0083l-90.5257 90.5268c-14.1331,-5.71418 -28.9335,-13.4504 -43.9122,-23.0315l111.403 -111.402c9.58347,14.9811 17.3209,29.7803 23.0351,43.9063z"/>
    </g>
   </g>
  </g>
 </g>
 <rect class="fil2" width="2048" height="2048"/>
</svg>
