<?xml version="1.0" encoding="UTF-8"?>
<!DOCTYPE svg PUBLIC "-//W3C//DTD SVG 1.1//EN" "http://www.w3.org/Graphics/SVG/1.1/DTD/svg11.dtd">
<!-- Creator: CorelDRAW -->
<svg xmlns="http://www.w3.org/2000/svg" xml:space="preserve" width="2048px" height="2048px" style="shape-rendering:geometricPrecision; text-rendering:geometricPrecision; image-rendering:optimizeQuality; fill-rule:evenodd; clip-rule:evenodd"
viewBox="0 0 2048 2048"
 xmlns:xlink="http://www.w3.org/1999/xlink">
 <defs>
  <style type="text/css">
   <![CDATA[
    .fil1 {fill:none}
    .fil0 {fill:#424242}
   ]]>
  </style>
 </defs>
 <g id="Layer_x0020_1">
  <metadata id="CorelCorpID_0Corel-Layer"/>
  <g id="_371562664">
   <path id="_275884952" class="fil0" d="M1438.1 798.141c166.974,-32.3929 230.763,161.466 230.763,161.466 29.4886,110.901 123.139,157.917 123.139,157.917 -163.927,48.867 -252.052,-153.697 -252.052,-153.697 -44.6197,-116.301 -68.8123,-126.51 -78.0379,-124.466l-23.8122 -41.2205z"/>
   <path id="_371563216" class="fil0" d="M975.91 788.582c51.5044,0 107.844,-15.8539 156.995,-25.3323 20.3138,-3.42756 154.898,-23.3705 167.267,-23.3918 164.479,-0.296457 224.876,138.18 173.79,284.225 -22.3713,63.9544 -41.1898,88.1776 -14.7047,152.002 19.3795,46.7055 68.8524,36.8256 66.0756,93.5457 -2.99882,61.2426 -4.15985,83.7308 -4.27087,145.904 -0.13937,76.9607 4.70552,66.6024 -16.2095,73.9524 -35.4177,12.4453 -10.3654,32.8689 -16.8567,51.254 -9.00591,25.5047 -50.3233,20.0965 -80.6694,20.3528 -4.78229,-10.474 21.4441,-51.2528 27.9355,-58.0737 18.1819,-19.0973 27.2126,-21.3555 33.6969,-58.6748l-29.7107 -151.221c-10.9453,36.0213 -23.615,76.7292 -33.9236,114.48 -17.4213,63.8032 4.29213,66.1583 -34.7292,78.476l-25.9973 12.7512c-3.59174,34.3725 28.8272,38.328 -44.426,52.0477l-34.4091 -2.7626c-0.333071,-29.1272 56.7308,-75.3001 62.8937,-83.2985 24.9071,-32.3197 29.2559,-66.9036 33.4217,-114.771 3.94252,-45.2894 -8.6693,-88.056 -21.7169,-126.423 -6.7004,-19.7008 -12.8457,-35.1733 -19.0122,-55.2815 -8.44607,-27.5481 -11.5358,-32.6374 -28.5189,-48.9237 -100.763,-96.6331 -71.5902,-54.0449 -195.14,-19.3583 -122.345,34.35 -142.517,27.6981 -267.547,32.6185 -14.778,80.876 -8.79686,39.228 -7.24371,126.752 1.11378,62.7319 -7.86497,88.7552 6.00237,154.184 8.82048,41.6174 11.0492,38.7898 -7.3441,52.8981 -18.7654,14.3953 -0.0472441,33.9992 -16.4847,54.8811l-61.4292 9.07087c16.6323,-40.1693 44.4496,-54.8103 39.2209,-126.969 -5.06339,-69.8528 -8.32914,-48.2658 -25.7126,-111.941l3.80079 121.909c3.70748,18.2221 10.0146,40.2567 -2.61496,55.2745 -53.2548,63.3095 24.1961,84.5977 -94.5568,71.7414 -4.08189,-38.2559 80.8075,-49.6536 44.4662,-178.565 -15.8138,-56.0953 -6.52796,-25.2059 -13.4693,-69.9449 -6.10749,-39.3744 -31.063,-81.7938 -44.5595,-116 -8.70119,-22.0536 -11.785,-39.3555 -17.5996,-62.5453 -8.76024,-34.9418 -14.7059,-33.3862 -30.2173,-53.2737 -40.5721,-52.0182 -22.8378,-90.9851 -21.3142,-126.504 1.59921,-37.2898 -27.5067,-91.1009 -36.9425,-127.56 -5.01142,-19.363 -10.5165,-78.3461 -36.7607,-85.5875 -12.3496,-3.40512 -17.6138,5.12953 -29.2146,9.88465 -25.0465,10.2673 -118.225,16.4079 -129.494,39.6933 -7.38308,15.2599 -1.77756,11.8925 -9.64607,17.439 -4.33347,3.05433 -57.0343,19.7823 -73.5461,-6.2126 -40.5532,-63.8375 60.1382,-116.167 91.7859,-156.928 32.6008,-41.987 -5.88544,-12.3744 59.4473,-74.5253l-12.724 -63.2611c10.3524,5.37756 32.2382,35.9067 58.193,50.4615 32.9032,18.45 89.1473,-1.18819 189.984,80.6575 17.5949,14.2807 66.456,60.365 84.8599,78.8056 24.3626,24.4099 30.2977,28.0961 71.1107,38.8961 91.5367,24.2232 110.498,53.1733 167.77,53.1733z"/>
  </g>
 </g>
 <rect class="fil1" width="2048" height="2048"/>
</svg>
