<?xml version="1.0" encoding="UTF-8"?>
<!DOCTYPE svg PUBLIC "-//W3C//DTD SVG 1.1//EN" "http://www.w3.org/Graphics/SVG/1.1/DTD/svg11.dtd">
<!-- Creator: CorelDRAW -->
<svg xmlns="http://www.w3.org/2000/svg" xml:space="preserve" width="2048px" height="2048px" style="shape-rendering:geometricPrecision; text-rendering:geometricPrecision; image-rendering:optimizeQuality; fill-rule:evenodd; clip-rule:evenodd"
viewBox="0 0 2048 2048"
 xmlns:xlink="http://www.w3.org/1999/xlink">
 <defs>
  <style type="text/css">
   <![CDATA[
    .fil1 {fill:none}
    .fil0 {fill:#424242;fill-rule:nonzero}
   ]]>
  </style>
 </defs>
 <g id="Layer_x0020_1">
  <metadata id="CorelCorpID_0Corel-Layer"/>
  <path class="fil0" d="M712.597 741.445l622.803 0c20.9103,0 39.2315,10.6902 51.8977,27.9107 10.5661,14.3658 17.126,33.665 17.126,54.4241l0 181.206c0,20.7591 -6.56103,40.0583 -17.126,54.4229 -12.6673,17.2193 -30.9851,27.9118 -51.8977,27.9118l-622.803 0c-20.9114,0 -39.2327,-10.689 -51.8977,-27.9118 -10.5673,-14.3646 -17.126,-33.6638 -17.126,-54.4229l0 -181.206c0,-20.7614 6.55867,-40.0595 17.126,-54.4241 12.6662,-17.2205 30.9874,-27.9107 51.8977,-27.9107z"/>
  <path class="fil0" d="M853.302 1119.32l0 91.9135 -130.362 0c-18.9768,0 -35.9528,8.66694 -48.0154,22.6252 -10.989,12.7193 -17.8122,29.9173 -17.8122,48.5233l0 422.813c0,18.6059 6.82441,35.8051 17.8134,48.5209 12.0602,13.9606 29.041,22.6276 48.0142,22.6276l602.117 0c18.9721,0 35.9504,-8.66812 48.013,-22.6288 10.9902,-12.7181 17.8146,-29.9173 17.8146,-48.5197l0 -422.813c0,-18.6012 -6.82441,-35.8028 -17.8146,-48.5221 -12.0591,-13.9571 -29.0351,-22.6264 -48.013,-22.6264l-130.362 0 0 -91.9135 -341.393 0z"/>
  <polygon class="fil0" points="287.999,1712.34 1760,1712.34 1760,1776.34 287.999,1776.34 "/>
  <path class="fil0" d="M731.292 325.088c87.1099,-72.6438 146.195,-64.8272 182.86,-20.8618 30.5008,36.5764 39.1654,101.593 33.3048,160.505 -6.06142,60.9284 -28.9701,118.598 -60.6945,136.505 -31.7138,17.8996 -65.2217,8.94804 -94.839,-43.5225 -9.36969,-16.5992 -23.9008,-34.9004 -38.1118,-52.7965 -48.8729,-61.5497 -94.8792,-119.487 -22.5189,-179.829z"/>
  <path class="fil0" d="M472.546 760.94c-56.8241,3.17126 -102.201,-33.828 -108.491,-146.597 -2.60788,-46.728 20.3823,-59.8146 60.3237,-62.0422 10.2532,-0.571654 21.5847,-0.056693 34.3051,0.518504 33.4087,1.51536 78.2186,3.54567 121.472,-17.7189 50.4756,-24.815 79.7859,-17.1579 92.6977,9.10276 13.4102,27.2788 -13.063,83.9717 -56.6906,131.097 -40.102,43.3158 -95.0906,82.9335 -143.616,85.6406z"/>
  <path class="fil0" d="M1466.86 416.105c105.872,-39.1524 157.891,-12.2138 177.659,41.2418 16.8437,45.5457 2.44488,111.699 -21.2717,165.68 -25.8591,58.8615 -67.3713,105.787 -97.8083,104.355 -29.2146,-1.3748 -47.9138,-25.2378 -45.2681,-81.5009 2.2689,-48.2445 -17.3965,-88.4138 -32.0599,-118.365 -5.77087,-11.7898 -10.9134,-22.2921 -14.2784,-31.3914 -13.8532,-37.4646 -10.976,-63.7465 33.0272,-80.0197z"/>
  <path class="fil0" d="M1678.86 846.218c94.9702,61.18 104.741,118.91 73.9253,166.747 -26.3882,40.963 -87.9922,69.2481 -145.43,82.715 -62.4792,14.6504 -124.867,9.58111 -142.045,-15.6744 -16.4173,-24.1358 -8.5441,-53.3823 38.0327,-85.0619 39.6248,-26.9516 60.0024,-66.9426 75.1961,-96.7607 5.65867,-11.1071 10.7008,-21.0024 16.5744,-30.1193 21.6744,-33.6449 44.413,-47.1863 83.7473,-21.8457z"/>
 </g>
 <rect class="fil1" width="2048" height="2048"/>
</svg>
