<?xml version="1.0" encoding="UTF-8"?>
<!DOCTYPE svg PUBLIC "-//W3C//DTD SVG 1.1//EN" "http://www.w3.org/Graphics/SVG/1.1/DTD/svg11.dtd">
<!-- Creator: CorelDRAW -->
<svg xmlns="http://www.w3.org/2000/svg" xml:space="preserve" width="2048px" height="2048px" style="shape-rendering:geometricPrecision; text-rendering:geometricPrecision; image-rendering:optimizeQuality; fill-rule:evenodd; clip-rule:evenodd"
viewBox="0 0 2048 2048"
 xmlns:xlink="http://www.w3.org/1999/xlink">
 <defs>
  <style type="text/css">
   <![CDATA[
    .fil1 {fill:none}
    .fil0 {fill:#424242;fill-rule:nonzero}
   ]]>
  </style>
 </defs>
 <g id="Layer_x0020_1">
  <metadata id="CorelCorpID_0Corel-Layer"/>
  <path class="fil0" d="M626.353 255.999l795.292 0c29.9162,0 57.091,12.2162 76.7705,31.8945 19.6795,19.6795 31.8957,46.8555 31.8957,76.7705l0 42.9355c0,29.9162 -12.2162,57.0934 -31.8957,76.7705 -19.6772,19.6795 -46.8532,31.8957 -76.7705,31.8957l-795.292 0c-29.9173,0 -57.0934,-12.2162 -76.7705,-31.8957 -19.6795,-19.6772 -31.8957,-46.8544 -31.8957,-76.7705l0 -42.9355c0,-29.915 12.2162,-57.091 31.8957,-76.7705 19.6795,-19.6784 46.8544,-31.8945 76.7705,-31.8945z"/>
  <path class="fil0" d="M486.102 868.675l87.9887 -330.505c16.4398,6.60473 34.1422,10.0949 52.2626,10.0949l795.292 0c16.7599,0 33.1607,-2.98701 48.5363,-8.66103l91.5898 328.695 1.25079 8.5004 0 55.8284 0 756.146c0,29.2831 -13.4138,55.6075 -35.0221,74.4284 -20.4012,17.7673 -48.2965,28.7977 -78.756,28.7977l-850.49 0c-30.4595,0 -58.3548,-11.0303 -78.756,-28.7977 -21.6083,-18.8209 -35.0221,-45.1453 -35.0221,-74.4284l0 -756.146 0 -55.8284 1.12559 -8.12481zm66.241 -0.046063l943.083 0 -71.4379 -256.377c-0.780709,0.00826772 -1.56142,0.0129921 -2.34213,0.0129921l-795.292 0c-1.91457,0 -3.82677,-0.0271654 -5.73898,-0.080315l-68.2713 256.445z"/>
 </g>
 <rect class="fil1" width="2048" height="2048"/>
</svg>
