<?xml version="1.0" encoding="UTF-8"?>
<!DOCTYPE svg PUBLIC "-//W3C//DTD SVG 1.1//EN" "http://www.w3.org/Graphics/SVG/1.1/DTD/svg11.dtd">
<!-- Creator: CorelDRAW -->
<svg xmlns="http://www.w3.org/2000/svg" xml:space="preserve" width="2048px" height="2048px" style="shape-rendering:geometricPrecision; text-rendering:geometricPrecision; image-rendering:optimizeQuality; fill-rule:evenodd; clip-rule:evenodd"
viewBox="0 0 2048 2048"
 xmlns:xlink="http://www.w3.org/1999/xlink">
 <defs>
  <style type="text/css">
   <![CDATA[
    .fil1 {fill:none}
    .fil0 {fill:#424242;fill-rule:nonzero}
   ]]>
  </style>
 </defs>
 <g id="Layer_x0020_1">
  <metadata id="CorelCorpID_0Corel-Layer"/>
  <g id="_370781216">
   <path id="_370782440" class="fil0" d="M1120 1392.32l0 54.6284 0 9.37324 -189.614 0 -83.0091 0c0.0661418,-2.2748 0.105118,-4.55433 0.105118,-6.83741 0,-60.9556 -24.0284,-118.944 -67.1233,-162.039 -43.0937,-43.0937 -101.081,-67.1221 -162.037,-67.1221 -60.9544,0 -118.944,24.0284 -162.038,67.1221 -43.0949,43.0949 -67.1233,101.084 -67.1233,162.039 0,2.28307 0.0389764,4.5626 0.105118,6.83741l-49.6536 0c-23.0268,0 -43.9394,-9.39804 -59.0764,-24.5374 -15.1394,-15.137 -24.5374,-36.0496 -24.5374,-59.0764l0 -218.841c0,-23.028 9.39804,-43.9382 24.5362,-59.0764 15.1382,-15.1382 36.0508,-24.5362 59.0776,-24.5362l772.212 0 0 23.7437 8.1756 0 0 298.322z"/>
   <path id="_370782344" class="fil0" d="M1672.31 1042.06l52.9512 33.1985c2.48386,1.55669 7.85552,4.52835 13.0973,7.42796 28.0713,15.528 53.641,29.6705 53.641,71.1839l0 218.841c0,23.0256 -9.39922,43.9359 -24.5386,59.0752 -15.1394,15.1394 -36.0496,24.5386 -59.0752,24.5386l-60.0284 0 -8.20749 0c0.0661418,-2.2748 0.105118,-4.55433 0.105118,-6.83741 0,-60.9556 -24.0284,-118.944 -67.1233,-162.039 -43.0937,-43.0937 -101.081,-67.1221 -162.037,-67.1221 -60.9544,0 -118.944,24.0284 -162.038,67.1221 -43.0949,43.0949 -67.1233,101.084 -67.1233,162.039 0,2.28307 0.0389764,4.5626 0.105118,6.83741l-68.2335 0 -32.0008 0 0 -32.0008 0 -32.0008 0 -760.775c0,-17.6728 14.328,-32.0008 32.0008,-32.0008l264.258 0c3.50788,0 6.88347,0.56693 10.0417,1.60984 37.3134,9.55985 69.6662,26.0362 95.817,51.1359 26.1366,25.0855 45.4382,58.2071 56.5524,100.944l131.836 288.822zm-526.504 -79.1564l420.278 0 -83.732 -183.436c-1.39725,-2.46851 -2.49095,-5.16496 -3.21024,-8.05158l31.05 -7.73859 -31.0004 7.6252c-7.90158,-31.7055 -21.3898,-55.6063 -39.5209,-73.0099 -17.2654,-16.5709 -39.3567,-27.8114 -65.3339,-34.7433l-228.53 0 0 299.354z"/>
   <path id="_370781288" class="fil0" d="M618.323 1252.32c54.4394,0 103.73,22.0701 139.41,57.75 35.6811,35.6799 57.75,84.9721 57.75,139.412 0,54.4394 -22.0701,103.73 -57.75,139.41 -35.6799,35.6811 -84.9709,57.75 -139.41,57.75 -54.4394,0 -103.732,-22.0689 -139.412,-57.75 -35.6799,-35.6799 -57.75,-84.9709 -57.75,-139.41 0,-54.4394 22.0689,-103.732 57.75,-139.412 35.6799,-35.6799 84.9721,-57.75 139.412,-57.75zm51.9638 145.197c-13.2969,-13.2969 -31.6689,-21.5221 -51.9638,-21.5221 -20.2949,0 -38.667,8.2252 -51.9638,21.5221 -13.298,13.2969 -21.5232,31.6701 -21.5232,51.965 0,20.2937 8.2252,38.6658 21.5232,51.9626 13.2969,13.298 31.6689,21.5232 51.9638,21.5232 20.2937,0 38.667,-8.2252 51.9638,-21.5232 13.2969,-13.2969 21.5221,-31.6689 21.5221,-51.9626 0,-20.2949 -8.22402,-38.6681 -21.5221,-51.965z"/>
   <path id="_370781144" class="fil0" d="M1411.1 1252.32c54.4394,0 103.73,22.0701 139.41,57.75 35.6811,35.6799 57.75,84.9721 57.75,139.412 0,54.4394 -22.0701,103.73 -57.75,139.41 -35.6799,35.6811 -84.9709,57.75 -139.41,57.75 -54.4394,0 -103.732,-22.0689 -139.412,-57.75 -35.6799,-35.6799 -57.75,-84.9709 -57.75,-139.41 0,-54.4394 22.0689,-103.732 57.75,-139.412 35.6799,-35.6799 84.9721,-57.75 139.412,-57.75zm51.9638 145.197c-13.2969,-13.2969 -31.6689,-21.5221 -51.9638,-21.5221 -20.2949,0 -38.667,8.2252 -51.9638,21.5221 -13.298,13.2969 -21.5232,31.6701 -21.5232,51.965 0,20.2937 8.2252,38.6658 21.5232,51.9626 13.2969,13.298 31.6689,21.5232 51.9638,21.5232 20.2937,0 38.667,-8.2252 51.9638,-21.5232 13.2969,-13.2969 21.5221,-31.6689 21.5221,-51.9626 0,-20.2949 -8.22402,-38.6681 -21.5221,-51.965z"/>
   <polygon id="_370781552" class="fil0" points="387.097,698.644 684.388,698.644 716.389,698.644 716.389,730.645 716.389,1038.26 355.096,1038.26 355.096,730.645 355.096,698.644 "/>
   <polygon id="_370781528" class="fil0" points="772.831,779.39 1004.06,779.39 1036.06,779.39 1036.06,811.391 1036.06,1038.26 740.83,1038.26 740.83,811.391 740.83,779.39 "/>
   <polygon id="_370781336" class="fil0" points="772.831,401.353 1004.06,401.353 1036.06,401.353 1036.06,433.354 1036.06,715.964 1036.06,747.964 1004.06,747.964 772.831,747.964 740.83,747.964 740.83,715.964 740.83,433.354 740.83,401.353 "/>
  </g>
 </g>
 <rect class="fil1" width="2048" height="2048"/>
</svg>
