<?xml version="1.0" encoding="UTF-8"?>
<!DOCTYPE svg PUBLIC "-//W3C//DTD SVG 1.1//EN" "http://www.w3.org/Graphics/SVG/1.1/DTD/svg11.dtd">
<!-- Creator: CorelDRAW -->
<svg xmlns="http://www.w3.org/2000/svg" xml:space="preserve" width="2048px" height="2048px" style="shape-rendering:geometricPrecision; text-rendering:geometricPrecision; image-rendering:optimizeQuality; fill-rule:evenodd; clip-rule:evenodd"
viewBox="0 0 2048 2048"
 xmlns:xlink="http://www.w3.org/1999/xlink">
 <defs>
  <style type="text/css">
   <![CDATA[
    .fil3 {fill:none}
    .fil1 {fill:none;fill-rule:nonzero}
    .fil0 {fill:#424242}
    .fil2 {fill:#424242;fill-rule:nonzero}
   ]]>
  </style>
 </defs>
 <g id="Layer_x0020_1">
  <metadata id="CorelCorpID_0Corel-Layer"/>
  <g id="_370783640">
   <path id="_370783448" class="fil0" d="M958.762 1261.64c-0.419292,0.207874 -0.940158,0.629528 -1.20354,0.871654 -57.5327,52.8945 -138.523,78.1288 -213.828,92.2701 -102.713,19.2886 -213.284,18.4642 -317.166,10.6618l-3.04607 -0.229134 -2.95512 -0.778347c-34.4681,-9.07324 -85.5957,-19.4681 -120.894,-9.96733 -30.3874,8.17914 -42.6355,25.3701 -43.6689,56.5335 0.37441,0.305906 0.955513,0.571654 1.29921,0.682678 160.329,51.5563 326.856,87.3591 496.072,83.7083 181.884,-3.92363 360.343,-43.291 530.926,-105.323 7.76694,-2.82402 15.5705,-5.56654 23.3575,-8.33032 12.8256,-4.55079 36.6414,-11.5217 46.6181,-21.3425 6.52205,-6.4193 9.16654,-13.9961 12.3756,-22.4622l17.8217 -46.9985 36.4205 34.6418c41.263,39.2469 92.0824,69.939 149.402,76.9855 67.5497,8.30552 128.963,-18.3461 180.408,-60.6591 9.81969,-8.07638 19.2378,-16.6382 28.2532,-25.604 -0.307087,0.0236221 -0.623623,0.0826772 -0.820867,0.134646 -62.6044,16.3854 -127.556,13.5012 -186.621,-13.9429 -47.7118,-22.1705 -84.9402,-59.2607 -110.243,-105.189l-14.2736 -25.9087 23.9965 -17.2973c38.8016,-27.9673 83.6316,-44.3433 131.547,-46.017 60.6012,-2.1189 119.263,19.6417 169.464,52.4233 -0.034252,-0.12874 -0.0874016,-0.259843 -0.126378,-0.340158 -1.34882,-2.69882 -2.64921,-5.42599 -3.98386,-8.1319 -32.1614,-65.2524 -80.4579,-121.316 -152.466,-141.927 -50.0681,-14.3315 -102.344,-8.57953 -151.061,8.2819l-40.1256 13.8886 -4.04292 -42.2681c-0.50315,-5.27953 -1.44213,-8.83938 -3.98386,-13.5378 -6.47126,-11.9681 -25.4374,-26.1366 -35.7236,-34.6654 -6.3567,-5.27126 -12.7937,-10.4681 -19.1079,-15.7866 -138.787,-116.896 -292.781,-215.397 -462.172,-281.642 -159.234,-62.2737 -324.925,-93.2387 -495.916,-91.9914 -0.262205,0.36378 -0.474804,0.905906 -0.558662,1.22953 -7.5319,29.0492 -3.15,49.3359 21.9012,67.0004 29.7366,20.9658 81.3154,28.7894 116.632,32.1378l3.02481 0.287008 2.92441 0.826772c100.329,28.4173 204.658,65.6894 294.555,119.195 67.0961,39.9331 131.134,92.2867 169.647,161.41 0.3,0.12874 0.696851,0.227953 0.925985,0.270473 44.1343,8.11536 86.7768,22.2284 127.703,40.5189 37.441,16.7339 72.5599,37.754 104.495,63.5256l9.08268 7.33229 2.53937 11.3917c2.72953,12.2492 5.85119,24.4122 9.39095,36.4512 2.7815,9.46064 5.81221,18.848 9.07205,28.154l6.56103 18.7158 -13.2957 14.7165c-9.63898,10.6701 -18.9024,21.6862 -27.7229,33.0437 -10.4717,13.4858 -20.3634,27.4252 -29.5973,41.7851l-6.30945 9.81379 -11.048 3.74882c-38.7803,13.161 -78.9296,20.8075 -119.749,23.6303 -44.9681,3.11103 -90.1276,0.440552 -134.704,-5.92796zm421.014 -135.982c18.6154,0 33.7063,15.091 33.7063,33.7063 0,18.6165 -15.091,33.7075 -33.7063,33.7075 -18.6165,0 -33.7063,-15.091 -33.7063,-33.7075 0,-18.6154 15.0898,-33.7063 33.7063,-33.7063z"/>
   <line id="_370783760" class="fil1" x1="1086.83" y1="938.013" x2="1023.98" y2= "1324.59" />
   <polygon id="_370783376" class="fil2" points="1103.27,940.687 1040.42,1327.27 1007.55,1321.92 1070.4,935.338 "/>
  </g>
 </g>
 <rect class="fil3" width="2048" height="2048"/>
</svg>
