<?xml version="1.0" encoding="UTF-8"?>
<!DOCTYPE svg PUBLIC "-//W3C//DTD SVG 1.1//EN" "http://www.w3.org/Graphics/SVG/1.1/DTD/svg11.dtd">
<!-- Creator: CorelDRAW -->
<svg xmlns="http://www.w3.org/2000/svg" xml:space="preserve" width="2048px" height="2048px" style="shape-rendering:geometricPrecision; text-rendering:geometricPrecision; image-rendering:optimizeQuality; fill-rule:evenodd; clip-rule:evenodd"
viewBox="0 0 2048 2048"
 xmlns:xlink="http://www.w3.org/1999/xlink">
 <defs>
  <style type="text/css">
   <![CDATA[
    .fil1 {fill:none}
    .fil0 {fill:#424242}
   ]]>
  </style>
 </defs>
 <g id="Layer_x0020_1">
  <metadata id="CorelCorpID_0Corel-Layer"/>
  <path class="fil0" d="M1600.86 1027.2c0.338977,-165.623 -18.5587,-331.145 -58.526,-496.549 46.0489,-85.9229 50.2335,-159.516 31.5496,-205.915 -9.55276,-23.7201 -25.0488,-41.3764 -44.5725,-51.6154 -20.1154,-10.5496 -43.5012,-12.7748 -68.1497,-5.26654 -41.2689,12.5717 -87.365,54.9579 -124.112,135.49 -98.9363,-9.98741 -201.013,-17.9894 -307.586,-19.787 -107.955,-1.82244 -219.761,2.75197 -336.307,18.1146 -36.5953,-75.1914 -81.4548,-114.31 -121.562,-125.231 -24.7465,-6.73819 -48.13,-3.60118 -68.1201,7.94056 -19.0099,10.976 -33.9485,29.2276 -42.9071,53.3682 -17.9421,48.3508 -11.7768,124.743 38.563,213.155 -34.826,147.619 -51.939,300.521 -51.9981,458.498 -0.0602363,158.34 17.0197,321.639 50.5571,489.7 -49.0548,87.4843 -54.6178,163.779 -36.3461,211.986 8.55473,22.5673 22.3075,39.9674 39.7229,50.9941 18.4571,11.687 40.1256,15.8776 63.352,11.2713 37.3004,-7.39607 79.1906,-39.1961 115.324,-102.176 98.4839,29.7213 203.896,45.0118 315.963,45.1418 111.69,0.131102 229.923,-14.7803 354.418,-45.4477 36.2634,67.6465 79.467,102.384 118.031,111.241 23.0977,5.30433 44.8004,2.03268 63.463,-8.61851 17.9244,-10.226 32.2559,-26.8984 41.4378,-48.8764 19.102,-45.7288 15.7949,-118.527 -28.5425,-203.452 36.6189,-164.469 56.0091,-329.119 56.3469,-493.966zm-550.317 -272.294c46.7244,-41.4709 123.428,-65.2737 239.587,-83.1296l45.9296 -7.06064 -10.0536 45.5611c-24.887,112.781 -53.5973,186.884 -99.2257,229.988 -41.7059,39.3981 -93.7347,52.0205 -164.505,42.7205l0 328.78 -0.125197 2.5004c-8.39764,105.795 -64.0052,124.802 -123.321,145.074 -24.3921,8.33623 -49.6595,16.9736 -67.7375,35.0516l-45.2504 -45.2504c28.3937,-28.3937 61.0052,-39.541 92.4887,-50.302 38.4154,-13.1291 74.4438,-25.4563 79.9442,-88.154l0 -354.979c-69.2764,12.4689 -121.391,2.39764 -164.799,-34.526 -47.8772,-40.7233 -80.4107,-113.182 -111.105,-224.386l-12.3969 -44.9126 46.2721 4.66181c117.056,11.7933 194.909,31.5331 243.586,70.3985 15.2882,12.2067 27.5988,25.8744 37.1882,41.289 4.18111,-4.59095 8.68583,-9.02953 13.5248,-13.324z"/>
 </g>
 <rect class="fil1" width="2048" height="2048"/>
</svg>
