<?xml version="1.0" encoding="UTF-8"?>
<!DOCTYPE svg PUBLIC "-//W3C//DTD SVG 1.1//EN" "http://www.w3.org/Graphics/SVG/1.1/DTD/svg11.dtd">
<!-- Creator: CorelDRAW -->
<svg xmlns="http://www.w3.org/2000/svg" xml:space="preserve" width="2048px" height="2048px" style="shape-rendering:geometricPrecision; text-rendering:geometricPrecision; image-rendering:optimizeQuality; fill-rule:evenodd; clip-rule:evenodd"
viewBox="0 0 2048 2048"
 xmlns:xlink="http://www.w3.org/1999/xlink">
 <defs>
  <style type="text/css">
   <![CDATA[
    .fil1 {fill:none}
    .fil0 {fill:#424242;fill-rule:nonzero}
   ]]>
  </style>
 </defs>
 <g id="Layer_x0020_1">
  <metadata id="CorelCorpID_0Corel-Layer"/>
  <path class="fil0" d="M1496.41 733.153c-55.7575,142.766 -139.017,280.614 -247.568,413.933l-20.5595 25.2496 -24.8162 -20.9988 -225.455 -190.777 -24.3756 -20.6256 20.6256 -24.3756 548.484 -648.185c135.965,-110.61 -12.1559,429.47 -26.3362,465.779z"/>
  <polygon class="fil0" points="1061.25,989.167 918.168,1158.26 869.417,1117.01 1012.5,947.916 "/>
  <path class="fil0" d="M972.77 1133.9l43.2957 36.6355c21.3,18.0225 33.287,43.05 35.4355,68.8512 2.14488,25.7622 -5.53465,52.4067 -23.5571,73.7044l-292.127 345.229c-18.0248,21.3 -43.0536,33.2859 -68.8512,35.4343 -25.7634,2.14725 -52.4056,-5.53347 -73.7044,-23.5571l-43.2957 -36.6355c-21.2988,-18.0213 -33.2859,-43.0489 -35.4343,-68.8501 -2.14488,-25.7622 5.53347,-52.4032 23.5571,-73.7044l292.127 -345.229c18.0236,-21.2988 43.0512,-33.2859 68.8501,-35.4343 25.761,-2.14725 52.4056,5.53229 73.7044,23.5559z"/>
  <polygon class="fil0" points="777.543,811.144 1215.32,1248.92 1170.07,1294.17 732.292,856.394 "/>
  <path class="fil0" d="M680.163 427.328c-10.148,-14.4272 -30.0733,-17.8973 -44.5004,-7.74922 -14.4272,10.148 -17.8973,30.0733 -7.74922,44.5004l186.729 264.715 -164.699 164.699 -264.716 -186.728c-14.4272,-10.148 -34.3524,-6.67796 -44.5004,7.74922 -10.148,14.4272 -6.67796,34.3524 7.74922,44.5004l285.06 201.078c12.5646,10.102 30.9874,9.32481 42.6485,-2.33622l-0.00236221 -0.00236221 202.238 -202.238c11.263,-10.7646 13.2591,-28.4374 4.00748,-41.5536l-0.0496063 0.034252 -202.216 -286.669z"/>
  <path class="fil0" d="M492.325 525.926c-12.4949,-12.4949 -32.7555,-12.4949 -45.2504,0 -12.4949,12.4949 -12.4949,32.7555 0,45.2504l285.219 285.218c12.4949,12.4949 32.7555,12.4949 45.2504,0 12.4949,-12.4949 12.4949,-32.7555 0,-45.2504l-285.219 -285.218z"/>
  <path class="fil0" d="M1148.68 1270.31l42.7784 -42.7784c20.6079,-20.6079 47.7355,-30.913 74.8359,-30.913 27.0992,0 54.2268,10.3051 74.8347,30.913l341.106 341.106 0.0011811 0.0011811c20.6067,20.6067 30.9118,47.7343 30.9118,74.8335 0,27.1004 -10.3051,54.2268 -30.9118,74.8335l-0.0011811 0.0011811 -42.7784 42.7784c-20.6067,20.6079 -47.7331,30.913 -74.8347,30.913 -27.1004,0 -54.228,-10.3051 -74.8359,-30.913l-341.105 -341.106c-20.6079,-20.6079 -30.913,-47.7355 -30.913,-74.8347 0,-27.1004 10.3051,-54.228 30.9118,-74.8347z"/>
 </g>
 <rect class="fil1" width="2048" height="2048"/>
</svg>
