<?xml version="1.0" encoding="UTF-8"?>
<!DOCTYPE svg PUBLIC "-//W3C//DTD SVG 1.1//EN" "http://www.w3.org/Graphics/SVG/1.1/DTD/svg11.dtd">
<!-- Creator: CorelDRAW -->
<svg xmlns="http://www.w3.org/2000/svg" xml:space="preserve" width="2048px" height="2048px" style="shape-rendering:geometricPrecision; text-rendering:geometricPrecision; image-rendering:optimizeQuality; fill-rule:evenodd; clip-rule:evenodd"
viewBox="0 0 2048 2048"
 xmlns:xlink="http://www.w3.org/1999/xlink">
 <defs>
  <style type="text/css">
   <![CDATA[
    .fil1 {fill:none}
    .fil0 {fill:#424242;fill-rule:nonzero}
   ]]>
  </style>
 </defs>
 <g id="Layer_x0020_1">
  <metadata id="CorelCorpID_0Corel-Layer"/>
  <path class="fil0" d="M1157.25 983.519l555.108 673.506 7.25079 19.9996c0.370866,44.9528 -12.2079,76.4044 -36.5374,95.6044 -24.2906,19.1669 -57.2434,23.7106 -97.969,15.1276l-18.1252 -10.9996 -555.108 -673.506c48.4902,-39.8752 96.8906,-79.8568 145.381,-119.732z"/>
  <path class="fil0" d="M335.298 804.518c-18.7051,-107.221 1.13268,-215.493 52.0276,-307.31 50.4414,-91.0016 131.365,-165.847 235.46,-207.494 120.085,-48.0449 248.237,-42.8835 358.351,4.29803 110.203,47.2193 202.387,136.459 250.42,256.518 41.6764,104.17 43.3276,214.399 12.2457,313.649 -31.6465,101.056 -97.2934,190.828 -189.228,251.322l0.0755906 0.115748c-14.7638,9.71339 -34.6087,5.61969 -44.3221,-9.1441 -8.40827,-12.7807 -6.46772,-29.3658 3.78071,-39.8929 38.6504,-47.8264 64.0205,-105.216 73.4221,-165.907 9.19961,-59.3823 3.06969,-121.984 -20.9126,-181.93 -35.654,-89.1131 -104.024,-155.328 -185.74,-190.341 -81.8056,-35.0516 -176.952,-38.9114 -266.039,-3.26929 -59.9374,23.9799 -109.51,62.7497 -146.195,110.418 -37.9111,49.2615 -62.0776,108.169 -69.7004,170.184l-31.7504 -3.8752 31.761 3.90473c-2.15551,17.5406 -18.1252,30.0118 -35.6658,27.8563 -15.3201,-1.88268 -26.7721,-14.3008 -27.991,-29.1024z"/>
 </g>
 <rect class="fil1" width="2048" height="2048"/>
</svg>
