<?xml version="1.0" encoding="UTF-8"?>
<!DOCTYPE svg PUBLIC "-//W3C//DTD SVG 1.1//EN" "http://www.w3.org/Graphics/SVG/1.1/DTD/svg11.dtd">
<!-- Creator: CorelDRAW -->
<svg xmlns="http://www.w3.org/2000/svg" xml:space="preserve" width="2048px" height="2048px" style="shape-rendering:geometricPrecision; text-rendering:geometricPrecision; image-rendering:optimizeQuality; fill-rule:evenodd; clip-rule:evenodd"
viewBox="0 0 2048 2048"
 xmlns:xlink="http://www.w3.org/1999/xlink">
 <defs>
  <style type="text/css">
   <![CDATA[
    .fil2 {fill:none}
    .fil0 {fill:#424242}
    .fil1 {fill:#424242;fill-rule:nonzero}
   ]]>
  </style>
 </defs>
 <g id="Layer_x0020_1">
  <metadata id="CorelCorpID_0Corel-Layer"/>
  <g id="_375747696">
   <g>
    <path id="_375749184" class="fil0" d="M927.239 1040.48l0 362.203 0 21.75 -21.7488 0 -263.7 0 -21.75 0 0 -21.75 0 -362.203 0 -21.75 21.75 0 263.7 0 21.7488 0 0 21.75zm-388.887 -86.6221l-21.7488 0 0 -21.7488 0 -115.984 0 -21.75 21.7488 0 81.189 0 21.7488 0 0 21.75 0 115.984 0 21.7488 -21.7488 0 -81.189 0zm-46.9264 -210.897l-235.427 314.986 34.8331 25.9973 76.0418 -101.739 0 527.426 0 21.75 21.7488 0 770.034 0 21.7488 0 0 -21.75 0 -527.426 76.0418 101.739 34.8331 -25.9973 -235.427 -314.986 -3.99331 -4.07835 -264.797 -208.559 -13.4232 -10.5721 -13.4232 10.5721 -264.797 208.559 -3.99331 4.07835zm378.828 189.148l0 21.7488 -21.75 0 -149.728 0 -21.7488 0 0 -21.7488 0 -213.899 0 -21.7488 21.7488 0 149.728 0 21.75 0 0 21.7488 0 213.899zm138.673 21.7488l-81.1879 0 -21.75 0 0 -21.7488 0 -115.984 0 -21.75 21.75 0 81.1879 0 21.75 0 0 21.75 0 115.984 0 21.7488 -21.75 0z"/>
    <polygon id="_375748968" class="fil0" points="684.968,1062.23 781.159,1194.62 877.351,1062.23 "/>
    <polygon id="_375748824" class="fil0" points="663.539,1106.63 663.539,1356.5 754.314,1231.57 "/>
    <polygon id="_375749424" class="fil0" points="781.159,1268.52 699.475,1380.94 862.842,1380.94 "/>
    <polygon id="_375748104" class="fil0" points="883.74,1127.33 808.005,1231.57 883.74,1335.8 "/>
    <polygon id="_375748056" class="fil0" points="698.776,932.111 848.506,932.111 848.506,718.212 698.776,718.212 "/>
    <polygon id="_375747912" class="fil0" points="927.739,932.111 1008.93,932.111 1008.93,816.126 927.739,816.126 "/>
    <polygon id="_375748248" class="fil0" points="538.352,932.111 619.542,932.111 619.542,816.126 538.352,816.126 "/>
   </g>
   <g>
    <path id="_375748176" class="fil1" d="M1540.88 512.843l0.00354331 0c69.0898,0 131.876,28.2402 177.375,73.7398 45.4985,45.4973 73.7398,108.285 73.7398,177.375l0 8.87245 -502.231 0 0 -8.87245c0,-69.0886 28.2402,-131.877 73.7398,-177.375 45.4973,-45.4985 108.285,-73.7398 177.373,-73.7398z"/>
    <path id="_375747192" class="fil0" d="M1792 1503.02l0 -698.06 -502.231 0 0 250.963 1.51181 2.02323 -1.51181 1.12913 0 443.945 -0.0011811 32.1331 32.1343 0 437.964 0 32.1343 0 0 -32.1331zm-162.054 -697.994l0 427.9 -28.8709 0 0 -54.8717 -120.383 0 0 54.8717 -28.8697 0 0 -427.9 28.8697 0 0 54.8729 120.383 0 0 -54.8729 28.8709 0z"/>
    <polygon id="_375747792" class="fil0" points="1601.08,931.407 1601.08,892.035 1480.69,892.035 1480.69,931.407 "/>
    <polygon id="_375747648" class="fil0" points="1601.08,1002.91 1601.08,963.541 1480.69,963.541 1480.69,1002.91 "/>
    <polygon id="_375747144" class="fil0" points="1601.08,1074.42 1601.08,1035.05 1480.69,1035.05 1480.69,1074.42 "/>
    <polygon id="_375747600" class="fil0" points="1601.08,1145.92 1601.08,1106.55 1480.69,1106.55 1480.69,1145.92 "/>
   </g>
  </g>
 </g>
 <rect class="fil2" width="2048" height="2048"/>
</svg>
