<?xml version="1.0" encoding="UTF-8"?>
<!DOCTYPE svg PUBLIC "-//W3C//DTD SVG 1.1//EN" "http://www.w3.org/Graphics/SVG/1.1/DTD/svg11.dtd">
<!-- Creator: CorelDRAW -->
<svg xmlns="http://www.w3.org/2000/svg" xml:space="preserve" width="2048px" height="2048px" style="shape-rendering:geometricPrecision; text-rendering:geometricPrecision; image-rendering:optimizeQuality; fill-rule:evenodd; clip-rule:evenodd"
viewBox="0 0 2048 2048"
 xmlns:xlink="http://www.w3.org/1999/xlink">
 <defs>
  <style type="text/css">
   <![CDATA[
    .fil1 {fill:none}
    .fil0 {fill:#424242}
   ]]>
  </style>
 </defs>
 <g id="Layer_x0020_1">
  <metadata id="CorelCorpID_0Corel-Layer"/>
  <path class="fil0" d="M513.833 1272.19c39.4453,-113.772 60.1146,-224.941 60.5882,-333.404 0.468898,-107.87 -19.0193,-213.261 -59.9989,-316.057l59.1709 -23.4862c44.0552,110.466 65.0776,223.766 64.6087,339.78 -0.592914,115.541 -22.4433,233.562 -64.0193,353.822l-60.3497 -20.654z"/>
  <path class="fil0" d="M362.414 591.219c-36.7288,-55.1174 -49.7244,-136.551 -38.2689,-245.245l4.13622 -38.7107 37.0866 11.4484c104.526,32.3351 174.445,76.3583 210.587,131.828 38.504,59.0091 38.9764,127.578 2.71654,205.707l-8.26654 17.8217 -19.8425 0.590552c-86.1001,2.59606 -149.054,-24.9036 -188.149,-83.439l0 0z"/>
  <path class="fil0" d="M605.126 491.611c49.3701,-44.0244 128.382,-68.3339 237.756,-72.3461l38.7414 -1.41851 -6.14056 38.2394c-17.2465,108.108 -51.0272,183.403 -100.87,226.953 -53.028,46.3807 -121.06,56.6504 -203.501,31.7469l-18.8965 -5.66457 -3.42284 -19.5921c-14.6492,-84.7383 3.77717,-150.946 56.3327,-197.917l0 0z"/>
  <path class="fil0" d="M1453.86 1292.84c-41.5713,-120.26 -63.4241,-238.28 -64.0134,-353.822 -0.472441,-116.014 20.4319,-229.312 64.4894,-339.78l59.2902 23.4862c-40.9855,102.796 -60.4737,208.188 -59.9977,316.057 0.467717,108.463 21.1358,219.632 60.4654,333.404l-60.2339 20.654z"/>
  <path class="fil0" d="M1703.77 345.973c11.576,108.695 -1.41614,190.128 -38.2689,245.245 -38.9705,58.5355 -101.927,86.0351 -188.025,83.439l-19.8414 -0.590552 -8.27127 -17.8217c-36.2587,-78.1288 -35.7862,-146.697 2.59961,-205.707 36.2587,-55.4705 106.179,-99.4914 210.708,-131.828l37.0831 -11.4484 4.01575 38.7107z"/>
  <path class="fil0" d="M1185.16 419.264c109.369,4.01103 188.261,28.3217 237.632,72.3461 52.5615,46.9713 70.9878,113.179 56.3363,197.919l-3.30355 19.591 -18.8977 5.66339c-82.4398,24.9036 -150.469,14.6351 -203.502,-31.7457 -49.839,-43.5496 -83.6197,-118.845 -100.983,-226.953l-6.02126 -38.2394 38.739 1.41851z"/>
  <path class="fil0" d="M1697.4 1430.69l-183.188 0c-16.8839,0 -30.587,-13.6902 -30.587,-30.5693 0.0011811,-16.8756 13.7032,-30.567 30.587,-30.567l183.188 0c16.8933,0 30.5906,13.6913 30.5906,30.567 0.0011811,16.8791 -13.6973,30.5693 -30.5906,30.5693zm-285.466 152.596l-183.191 0c-16.8839,0 -30.587,-13.6902 -30.587,-30.5646 0,-16.8756 13.702,-30.567 30.587,-30.567l183.191 0c16.8886,0 30.5918,13.6913 30.5918,30.567 0,16.8744 -13.7032,30.5646 -30.5918,30.5646zm-264.325 -152.596l-183.193 0c-16.8874,0 -30.5918,-13.6902 -30.5918,-30.5693 0.0011811,-16.8756 13.7043,-30.567 30.5918,-30.567l183.193 0c16.8839,0 30.587,13.6913 30.587,30.567 0,16.8791 -13.7032,30.5693 -30.587,30.5693zm-325.394 152.596l-183.303 0c-16.891,0 -30.4736,-13.6902 -30.4736,-30.5646 0,-16.8756 13.5827,-30.567 30.4736,-30.567l183.303 0c16.8933,0 30.5906,13.6913 30.5906,30.567 0,16.8744 -13.6973,30.5646 -30.5906,30.5646zm-407.71 -152.596c-16.774,0 -30.4713,-13.6902 -30.4713,-30.5693 0,-16.8756 13.6973,-30.567 30.4713,-30.567l183.305 0c16.891,0 30.5894,13.6913 30.5894,30.567 0,16.8791 -13.6984,30.5693 -30.5894,30.5693l-183.305 0zm1345.5 -276.052l-247.2 0c8.73898,36.1146 19.3642,71.8772 31.5296,107.042l10.5142 30.2173 -120.705 41.5418 -10.5165 -30.0933c-16.8851,-48.8611 -30.9414,-98.4261 -41.8087,-148.708l-310.153 0c-10.0406,-0.114567 -19.9595,4.6063 -26.2169,13.3358l26.1 18.6496 -25.9855 -18.5315c-23.3858,32.576 -41.3363,48.5079 -54.2091,48.2717 -10.1634,-0.11811 -21.3792,-14.0445 -34.0217,-41.1886 -4.6004,-12.039 -16.1752,-20.537 -29.8784,-20.537l-281.336 0c-10.7469,50.2819 -24.7996,99.8469 -41.6906,148.708l-10.5095 30.0933 -120.705 -41.5418 10.3937 -30.2173c12.2787,-35.1662 22.7917,-70.9276 31.5307,-107.042l-227.12 0c-17.7177,0 -32.0091,14.2843 -32.0091,31.9855l0 460.63c0,17.5843 14.2913,31.9819 32.0091,31.9819 525.486,0 940.529,0 1471.99,0 17.7142,0 32.002,-14.3976 32.002,-31.9819l0.0011811 -460.63c0,-17.7012 -14.289,-31.9855 -32.0032,-31.9855z"/>
 </g>
 <rect class="fil1" width="2048" height="2048"/>
</svg>
