<?xml version="1.0" encoding="UTF-8"?>
<!DOCTYPE svg PUBLIC "-//W3C//DTD SVG 1.1//EN" "http://www.w3.org/Graphics/SVG/1.1/DTD/svg11.dtd">
<!-- Creator: CorelDRAW -->
<svg xmlns="http://www.w3.org/2000/svg" xml:space="preserve" width="2048px" height="2048px" style="shape-rendering:geometricPrecision; text-rendering:geometricPrecision; image-rendering:optimizeQuality; fill-rule:evenodd; clip-rule:evenodd"
viewBox="0 0 2048 2048"
 xmlns:xlink="http://www.w3.org/1999/xlink">
 <defs>
  <style type="text/css">
   <![CDATA[
    .fil2 {fill:none}
    .fil1 {fill:#424242}
    .fil0 {fill:#424242;fill-rule:nonzero}
   ]]>
  </style>
 </defs>
 <g id="Layer_x0020_1">
  <metadata id="CorelCorpID_0Corel-Layer"/>
  <g id="_375742248">
   <path id="_375742752" class="fil0" d="M1194.13 1444.78l-400.422 0c5.29489,-20.1957 7.95237,-40.9996 7.95237,-61.9075 0,-0.804331 -0.00472441,-1.60748 -0.011811,-2.41181 -0.634252,-63.9024 -26.1118,-124.543 -71.2914,-169.723 -45.7807,-45.7807 -107.38,-71.3032 -172.135,-71.3032 -64.7552,0 -126.352,25.5236 -172.133,71.3032 -45.1819,45.1807 -70.6583,105.821 -71.2926,169.723 -0.00708662,0.804331 -0.011811,1.60748 -0.011811,2.41181 0,20.9079 2.65748,41.7107 7.95237,61.9075l-34.7339 0 -32.0008 0 0 -32.0008 0 -338.315c0,-47.3835 19.363,-90.4383 50.5548,-121.63 31.1929,-31.1929 74.2477,-50.5548 121.631,-50.5548l1235.5 0 32.0008 0 0 32.0008 0 96.1217c-15.3673,-11.9953 -31.774,-22.6406 -49.0146,-31.7799 -48.091,-25.4918 -101.406,-38.6233 -155.826,-38.6233 -88.6312,0 -172.914,34.9217 -235.575,97.5816 -62.6611,62.6611 -97.5816,146.942 -97.5816,235.573 0,32.8418 4.78465,65.4945 14.3291,96.9225 5.72717,18.8587 13.1362,37.174 22.1091,54.704z"/>
   <path id="_375742920" class="fil0" d="M876.36 920.627l133.33 -404.306c4.47992,-13.585 10.3488,-27.0662 19.3595,-38.2264 11.948,-14.7969 27.7004,-24.4063 49.3181,-24.4063l525.506 0 32.0008 0 0 32.0008 0 448.846 -64.0016 0 0 -416.846 -493.505 0 -0.068504 0.0011811 0.124016 0.100394c0.206693,0.0708662 0.479528,0.174803 0.376772,0.302362 -3.13229,3.87992 -5.88308,10.7197 -8.35867,18.228l-133.33 404.306 -60.7512 -20.0008zm201.939 -402.936c-0.167717,0.00590552 -0.0448819,0.0413386 0.124016,0.100394l-0.124016 -0.100394z"/>
   <path id="_375743160" class="fil0" d="M945.936 453.689c-17.6728,0 -32.0008,14.328 -32.0008,32.0008 0,17.6728 14.328,32.0008 32.0008,32.0008l717.749 0c17.6728,0 32.0008,-14.328 32.0008,-32.0008 0,-17.6728 -14.328,-32.0008 -32.0008,-32.0008l-717.749 0z"/>
   <polygon id="_375743136" class="fil0" points="1187.28,515.595 1187.28,934.282 1123.28,934.282 1123.28,515.595 "/>
   <path id="_375743280" class="fil0" d="M449.38 934.282l0 -255.539c0,-29.0256 11.8524,-55.3902 30.9449,-74.4851 19.0949,-19.0925 45.4595,-30.9449 74.4851,-30.9449l0 64.0016c-11.3599,0 -21.711,4.67008 -29.2347,12.1937 -7.52363,7.52363 -12.1937,17.8748 -12.1937,29.2347l0 255.539 -64.0016 0z"/>
   <path id="_375742464" class="fil1" d="M1792 1293.16c0,-83.1568 -33.711,-158.447 -88.2095,-212.946 -2.65276,-2.65276 -5.35512,-5.25709 -8.10591,-7.81064 -19.1788,-17.804 -40.6807,-33.1394 -64.0016,-45.502 -42.0284,-22.278 -89.9611,-34.8969 -140.839,-34.8969 -83.1579,0 -158.449,33.711 -212.947,88.2095 -54.4996,54.4985 -88.2095,129.788 -88.2095,212.946 0,30.4772 4.52835,59.8973 12.9484,87.6249 6.85394,22.5697 16.2862,44.0185 27.9544,64.0016 13.1091,22.4516 29.0398,43.0536 47.3067,61.3205 54.4985,54.4985 129.789,88.2095 212.947,88.2095 83.1579,0 158.449,-33.711 212.947,-88.2095 54.4985,-54.4985 88.2095,-129.789 88.2095,-212.947zm-301.157 -95.5843c26.3906,0 50.2878,10.6996 67.5863,27.9981 17.2973,17.2984 27.9981,41.1957 27.9981,67.5863 0,26.3906 -10.7008,50.2878 -27.9981,67.5863 -17.2984,17.2973 -41.1957,27.9981 -67.5863,27.9981 -26.3906,0 -50.289,-10.7008 -67.5863,-27.9981 -17.2973,-17.2984 -27.9981,-41.1957 -27.9981,-67.5863 0,-26.3906 10.6996,-50.2867 27.9981,-67.5863 17.2973,-17.2973 41.1957,-27.9981 67.5863,-27.9981z"/>
   <path id="_375742080" class="fil1" d="M769.647 1380.78c-0.557481,-57.5528 -24.1158,-109.608 -61.9205,-147.413 -38.2642,-38.263 -91.1245,-61.9311 -149.508,-61.9311 -58.3831,0 -111.242,23.6681 -149.506,61.9311 -37.8059,37.8059 -61.363,89.8607 -61.9205,147.413 -0.00708662,0.696851 -0.0106299,1.39488 -0.0106299,2.0941 0,21.5398 3.22087,42.3272 9.20906,61.9075 10.2413,33.4925 28.5744,63.4512 52.7221,87.5989 38.2642,38.2642 91.1233,61.9311 149.506,61.9311 58.3831,0 111.243,-23.6669 149.508,-61.9311 24.1465,-24.1477 42.4807,-54.1063 52.7221,-87.5989 5.98701,-19.5803 9.20906,-40.3677 9.20906,-61.9075 0,-0.699213 -0.00354331,-1.39725 -0.0106299,-2.0941zm-211.427 -62.8241c17.9244,0 34.154,7.26851 45.9012,19.0158 11.7473,11.7473 19.0158,27.978 19.0158,45.9024 0,17.9244 -7.26851,34.1528 -19.0158,45.9012 -11.7473,11.7473 -27.978,19.0158 -45.9012,19.0158 -17.9232,0 -34.154,-7.26851 -45.9024,-19.0158 -11.7473,-11.7484 -19.0158,-27.9768 -19.0158,-45.9012 0,-17.9244 7.26851,-34.1551 19.0158,-45.9024 11.7484,-11.7473 27.9792,-19.0158 45.9024,-19.0158z"/>
  </g>
 </g>
 <rect class="fil2" width="2048" height="2048"/>
</svg>
