<?xml version="1.0" encoding="UTF-8"?>
<!DOCTYPE svg PUBLIC "-//W3C//DTD SVG 1.1//EN" "http://www.w3.org/Graphics/SVG/1.1/DTD/svg11.dtd">
<!-- Creator: CorelDRAW -->
<svg xmlns="http://www.w3.org/2000/svg" xml:space="preserve" width="2048px" height="2048px" style="shape-rendering:geometricPrecision; text-rendering:geometricPrecision; image-rendering:optimizeQuality; fill-rule:evenodd; clip-rule:evenodd"
viewBox="0 0 2048 2048"
 xmlns:xlink="http://www.w3.org/1999/xlink">
 <defs>
  <style type="text/css">
   <![CDATA[
    .fil1 {fill:none}
    .fil0 {fill:#424242;fill-rule:nonzero}
   ]]>
  </style>
 </defs>
 <g id="Layer_x0020_1">
  <metadata id="CorelCorpID_0Corel-Layer"/>
  <g id="_375743496">
   <path id="_375744432" class="fil0" d="M1301.24 539.1c0,-17.6043 -14.2713,-31.8756 -31.8756,-31.8756 -17.6043,0 -31.8756,14.2713 -31.8756,31.8756 0.142913,234.141 -77.6257,346.95 -162.287,469.757 -107.264,155.594 -224.953,326.307 -224.953,751.144 0,17.6728 14.328,32.0008 32.0008,32.0008 17.6728,0 32.0008,-14.328 32.0008,-32.0008 0,-405.27 111.672,-567.256 213.451,-714.893 90.5327,-131.322 173.694,-251.954 173.538,-506.007z"/>
   <path id="_375744288" class="fil0" d="M467.455 831.504c0,-17.6043 -14.2713,-31.8756 -31.8756,-31.8756 -17.6043,0 -31.8756,14.2713 -31.8756,31.8756 -0.119291,194.893 113.314,218.613 236.793,244.428 119.437,24.9709 250.478,52.3678 250.478,313.845 0,17.6728 14.328,32.0008 32.0008,32.0008 17.6728,0 32.0008,-14.328 32.0008,-32.0008 0,-313.312 -157.723,-346.289 -301.48,-376.344 -97.0111,-20.2819 -186.129,-38.9162 -186.041,-181.929z"/>
   <path id="_375744528" class="fil0" d="M883.611 553.554c2.48504,-17.465 -9.66024,-33.6402 -27.1252,-36.1252 -17.465,-2.48504 -33.6402,9.66024 -36.1252,27.1252 -35.3256,244.547 60.254,275.47 166.846,309.955 49.8,16.1102 102.645,33.2079 136.422,83.9564 9.73347,14.7047 29.5465,18.7335 44.2512,9.00001 14.7047,-9.73347 18.7335,-29.5465 9.00001,-44.2512 -46.1457,-69.3319 -109.999,-89.9894 -170.173,-109.456 -79.48,-25.7126 -150.748,-48.7713 -123.096,-240.203z"/>
   <path id="_375744120" class="fil0" d="M1566.99 843.379c6.55749,-16.3606 -1.39016,-34.9429 -17.7508,-41.5004 -16.3606,-6.55749 -34.9429,1.39016 -41.5004,17.7508 -67.5414,168.855 -178.336,190.775 -285.072,211.891 -74.5512,14.7473 -147.379,29.1567 -209.504,84.5729 -13.1847,11.7354 -14.3599,31.9406 -2.62441,45.1252 11.7354,13.1847 31.9406,14.3599 45.1252,2.62441 49.1386,-43.8319 113.436,-56.5536 179.254,-69.5729 123.468,-24.4264 251.629,-49.7811 332.073,-250.891z"/>
   <path id="_375744720" class="fil0" d="M1398.14 280.249c31.513,125.539 12.4205,202.836 -22.4315,243.046 -33.2575,38.3717 -79.8508,45.254 -117.443,29.8181 -37.6004,-15.4394 -65.9197,-53.0445 -62.6197,-103.635 3.46299,-53.08 44.2382,-121.495 154.994,-188.73l36.9709 -22.4433 10.5295 41.9433z"/>
   <path id="_375744408" class="fil0" d="M1601.64 580.413c64.9949,91.4658 66.365,166.238 43.4398,215.223 -18.7536,40.0725 -54.1252,63.5481 -87.4276,67.2697 -39.0638,4.36536 -75.0851,-15.1878 -86.1142,-62.393 -10.2366,-43.8071 5.7626,-116.395 77.8524,-219.851l25.9559 -37.2496 26.2937 37.0004z"/>
   <path id="_375744624" class="fil0" d="M960.317 326.303c27.3437,108.926 10.4551,176.362 -20.1555,211.682 -29.8571,34.4504 -71.7473,40.604 -105.567,26.7189 -33.8292,-13.891 -59.3115,-47.6729 -56.3493,-93.0839 3.04134,-46.6205 38.4567,-106.469 134.571,-164.817l36.9721 -22.4433 10.5284 41.9433z"/>
   <path id="_375744768" class="fil0" d="M1106.46 565.732c-8.67993,112.091 -46.1162,170.714 -86.3635,194.484 -39.2398,23.1744 -80.9221,15.6898 -108.598,-8.23583 -27.6225,-23.8795 -41.015,-63.9934 -23.7685,-106.145 17.7142,-43.2922 70.2886,-88.832 179.854,-113.604l42.2091 -9.54331 -3.33307 43.0441z"/>
   <path id="_375744792" class="fil0" d="M555.792 664.084c88.4009,-69.4406 156.868,-81.5434 201.569,-67.9997 43.6063,13.2118 66.2953,49.0276 67.4044,85.669 1.10551,36.5185 -19.4067,73.5532 -62.1898,89.4012 -43.7386,16.2012 -112.747,8.25001 -205.159,-55.6949l-35.6362 -24.6591 34.011 -26.7166z"/>
   <path id="_375743664" class="fil0" d="M1364.26 694.578c82.6583,75.867 99.619,148.675 87.4394,201.336 -9.96024,43.0607 -39.7016,73.402 -71.569,84.0237 -37.2626,12.4181 -76.5343,0.853938 -97.1434,-42.926 -19.1492,-40.6796 -18.6461,-115.01 30.2729,-231.308l17.5807 -41.7969 33.4193 30.6721z"/>
   <path id="_375743760" class="fil0" d="M1670.36 1137.25c-90.1442,66.7678 -164.854,69.6119 -214.263,47.6646 -40.4363,-17.9622 -64.6063,-52.8591 -68.9823,-86.0729 -5.13662,-38.9918 13.6795,-75.404 60.6189,-87.3509 43.5355,-11.0823 116.408,3.52205 221.375,73.6335l37.6618 25.1563 -36.4111 26.9693z"/>
   <path id="_375743568" class="fil0" d="M902.441 872.938c87.1135,8.99056 130.028,51.9095 145.44,98.7343 13.4492,40.8555 4.63111,84.9426 -14.4071,112.839 -25.3087,37.0819 -65.3788,51.2008 -104.27,16.4634 -27.6473,-24.6945 -53.0882,-83.2028 -61.8886,-193.786l-3.03898 -38.1898 38.165 3.93898z"/>
   <path id="_375743352" class="fil0" d="M1206.34 1227.13c14.4106,47.113 4.13504,106.873 -61.741,164.382l-28.924 25.2484 -19.5756 -32.9988c-56.6103,-95.4284 -69.5953,-157.84 -61.2733,-193.885 11.7284,-50.7981 52.6205,-62.3693 94.702,-46.6701 31.6051,11.7898 64.2142,42.7359 76.8119,83.9233z"/>
   <path id="_375743424" class="fil0" d="M543.4 1229.18c-45.776,18.2658 -106.205,12.9673 -169.005,-47.9611l-27.4795 -26.6622 31.2296 -22.213c90.4843,-64.3607 151.592,-82.4894 188.154,-77.1863 51.6544,7.49292 66.5965,47.2985 54.43,90.5434 -9.12757,32.4508 -37.2839,67.5001 -77.3292,83.4792z"/>
   <path id="_375743400" class="fil0" d="M525.843 938.874c-13.0264,-48.9638 9.72166,-109.355 118.322,-138.246l32.5796 -8.66694 6.79489 33.1666c25.7374,125.616 -10.7256,176.746 -54.6674,185.749 -22.4032,4.58977 -45.9378,-2.32795 -65.0056,-16.5201 -17.6197,-13.1138 -32.0185,-32.9126 -38.0233,-55.4823z"/>
   <path id="_375743832" class="fil0" d="M814.975 1222.33c-0.988583,49.2957 -29.4047,102.921 -110.006,137.073l-35.1933 14.9114 -8.30788 -37.4114c-24.0732,-108.418 -16.9973,-171.757 2.11063,-203.36 26.9918,-44.6433 69.456,-42.9107 104.545,-14.8843 26.3646,21.0591 47.7154,60.6237 46.8508,103.671z"/>
   <path id="_375743784" class="fil0" d="M700.221 949.843c-7.35473,-48.7441 11.589,-106.397 85.2674,-153.688l32.2075 -20.6717 14.5429 35.5465c42.0449,102.764 45.7772,166.374 32.2902,200.741 -19.0606,48.5681 -61.2024,54.0414 -100.517,32.3528 -29.5973,-16.3299 -57.3709,-51.7276 -63.7914,-94.2816z"/>
  </g>
 </g>
 <rect class="fil1" width="2048" height="2048"/>
</svg>
