<?xml version="1.0" encoding="UTF-8"?>
<!DOCTYPE svg PUBLIC "-//W3C//DTD SVG 1.1//EN" "http://www.w3.org/Graphics/SVG/1.1/DTD/svg11.dtd">
<!-- Creator: CorelDRAW -->
<svg xmlns="http://www.w3.org/2000/svg" xml:space="preserve" width="2048px" height="2048px" style="shape-rendering:geometricPrecision; text-rendering:geometricPrecision; image-rendering:optimizeQuality; fill-rule:evenodd; clip-rule:evenodd"
viewBox="0 0 2048 2048"
 xmlns:xlink="http://www.w3.org/1999/xlink">
 <defs>
  <style type="text/css">
   <![CDATA[
    .fil1 {fill:none}
    .fil0 {fill:#424242;fill-rule:nonzero}
   ]]>
  </style>
 </defs>
 <g id="Layer_x0020_1">
  <metadata id="CorelCorpID_0Corel-Layer"/>
  <g id="_375745536">
   <path id="_375746160" class="fil0" d="M1058.47 684.997c4.59331,7.36654 8.82284,14.8961 12.6709,22.5732 17.4839,34.8827 27.0284,72.4796 27.0284,111.618 0,89.0753 -48.6142,169.064 -127.211,226.38 -75.704,55.2071 -179.646,89.354 -293.873,89.354 -114.227,0 -218.17,-34.1469 -293.874,-89.354 -78.5965,-57.3154 -127.211,-137.304 -127.211,-226.38 0,-40.2803 10.0406,-78.8469 28.3937,-114.441 3.98032,-7.72087 8.35867,-15.2917 13.1114,-22.7032l152.164 26.5795 -22.9666 80.3823 -0.0295276 -0.00826772 -8.8382 30.939c-9.69095,33.9248 10.0311,69.4264 43.9571,79.1186 20.4024,5.82874 41.5016,0.366142 58.1764,-12.1406l163.964 -122.973 167.149 130.003 -0.0129921 0.0177165 25.3843 19.7421c27.8776,21.6827 68.1284,16.6524 89.8111,-11.2264 12.5669,-16.1599 16.0099,-36.8634 11.1083,-56.4709l-34.5898 -138.357 104.295 -20.4532 0.00590552 0.0318898 11.3858 -2.23229z"/>
   <path id="_375745080" class="fil0" d="M490.206 683.221l-190.271 -33.2362c-9.66142,-1.30748 -18.6083,-6.99686 -23.7071,-16.174 -8.58308,-15.4476 -3.01772,-34.9311 12.4299,-43.5142l0.0507874 0.0921261c156.959,-87.2091 260.641,-139.184 360.665,-151.249 -2.92087,35.2701 -12.7559,70.2485 -24.4843,103.406 -11.7721,33.2811 5.73898,69.8599 39.0248,81.5989 33.2693,11.7343 69.7997,-5.75315 81.5611,-39.0071 16.0051,-45.2469 28.0666,-91.5591 31.5544,-139.406 84.3024,18.6874 176.458,65.7969 303.48,143.932 8.54174,4.28977 15.0791,12.3425 17.0599,22.4469 3.4004,17.3421 -7.90158,34.1599 -25.2437,37.5603l-6.15827 -31.402 6.1252 31.3748 -168.725 33.0886 42.7595 171.037c2.95748,9.63308 1.3311,20.5063 -5.32441,29.0646 -10.8496,13.95 -30.9555,16.4622 -44.9055,5.6126l0.0129921 -0.0165354 -211.825 -164.752 -183.517 137.639c-7.91812,7.10434 -19.2024,10.1091 -30.1866,6.97087 -16.9925,-4.85433 -26.8323,-22.5673 -21.978,-39.5599l0.0283465 0.00826772 41.5748 -145.514z"/>
   <path id="_375744840" class="fil0" d="M655.058 553.217c-5.86772,16.637 2.86299,34.8827 19.5,40.7504 16.637,5.86772 34.8827,-2.86299 40.7504,-19.5 16.5473,-46.6489 28.5733,-94.069 30.489,-143.195 1.95,-50.0221 -6.71693,-100.961 -31.8638,-153.312 -7.59331,-15.8776 -26.6232,-22.5933 -42.5008,-15 -15.8776,7.59331 -22.5933,26.6232 -15,42.5008 20.2229,42.0992 27.189,83.165 25.6134,123.56 -1.60984,41.2902 -12.274,82.7162 -26.9882,124.195z"/>
   <path id="_375745392" class="fil0" d="M1596.67 1156.46c-33.7796,160.26 -82.7729,328.407 -155.231,450.019 -96.4383,161.86 -231.787,243.833 -423.114,131.788 -143.531,-84.052 -130.869,-188.228 -55.6678,-316.643 31.0406,-53.0067 72.8894,-109.528 118.338,-170.914 55.0949,-74.4154 115.618,-156.169 166.712,-245.321 12.5232,1.64055 25.4044,-0.467717 37.1055,-6.04961l158.6 -75.6568 110.022 183.711 -0.0767717 0.0661418 13.9417 23.2819c7.10079,11.8571 17.5146,20.5854 29.3705,25.7185z"/>
   <path id="_375744912" class="fil0" d="M1304.99 773.571l-97.3135 -108.875c-4.08071,-3.7937 -7.22363,-8.70001 -8.90079,-14.4354 -4.96063,-16.9618 4.7693,-34.7351 21.7311,-39.6957l8.98229 30.7134 -8.87481 -30.6248c38.1095,-11.1449 76.793,-23.3953 110.414,-34.0418 104.376,-33.052 160.318,-50.7674 216.706,-31.8544 63.2032,21.1984 110.524,84.6284 212.486,221.306 30.6366,41.0681 -10.3618,-13.6299 23.5795,31.7504 2.68583,2.98347 4.85197,6.52441 6.3,10.5331 6.00237,16.6217 -2.60551,34.9642 -19.2272,40.9666l-10.8697 -30.0969 10.7504 30 -111.732 40.3548 -4.87559 206.27c0.722835,11.5618 -4.87559,23.1154 -15.4996,29.4768 -15.1618,9.07914 -34.8154,4.14922 -43.8945,-11.0126l0.0779528 -0.0661418 -138.923 -231.969 -184.873 88.1906c-8.77205,4.52599 -19.5118,4.94764 -29.015,0.193701 -15.8043,-7.90631 -22.2071,-27.1311 -14.3008,-42.9355l0.121654 0.0602363 77.1497 -154.208z"/>
   <polygon id="_375744984" class="fil0" points="1538.17,582.76 1618.44,283.166 1680.19,299.666 1599.92,599.26 "/>
  </g>
 </g>
 <rect class="fil1" width="2048" height="2048"/>
</svg>
