<?xml version="1.0" encoding="UTF-8"?>
<!DOCTYPE svg PUBLIC "-//W3C//DTD SVG 1.1//EN" "http://www.w3.org/Graphics/SVG/1.1/DTD/svg11.dtd">
<!-- Creator: CorelDRAW -->
<svg xmlns="http://www.w3.org/2000/svg" xml:space="preserve" width="2048px" height="2048px" style="shape-rendering:geometricPrecision; text-rendering:geometricPrecision; image-rendering:optimizeQuality; fill-rule:evenodd; clip-rule:evenodd"
viewBox="0 0 2048 2048"
 xmlns:xlink="http://www.w3.org/1999/xlink">
 <defs>
  <style type="text/css">
   <![CDATA[
    .fil1 {fill:none}
    .fil0 {fill:#424242;fill-rule:nonzero}
   ]]>
  </style>
 </defs>
 <g id="Layer_x0020_1">
  <metadata id="CorelCorpID_0Corel-Layer"/>
  <g id="_375746064">
   <polygon id="_375746832" class="fil0" points="1726.45,1792 1598.73,1792 1566.92,1792 1566.92,1760.19 1566.92,1055.99 481.08,1055.99 481.08,1760.19 481.08,1792 449.266,1792 321.548,1792 289.734,1792 289.734,1760.19 289.734,862.608 289.734,847.49 301.666,837.878 1004.12,272.016 1024,255.999 1043.88,272.016 1746.33,837.878 1758.27,847.49 1758.27,862.608 1758.27,1760.19 1758.27,1792 "/>
   <path id="_375746544" class="fil0" d="M1307.92 1482.23l164.094 0c15.574,0 29.7981,6.4193 40.1693,16.761l0.0625985 -0.0614174c10.3039,10.3039 16.6984,24.5445 16.6984,40.2307l0 164.095c0,15.5433 -6.39331,29.739 -16.6996,40.1055l0.0011811 0.0011811 -0.0625985 0.0625985 -0.0625985 0.0614174 -0.0011811 -0.0011811c-10.3654,10.3063 -24.5622,16.7008 -40.1055,16.7008l-164.094 0c-15.6874,0 -29.928,-6.39567 -40.2319,-16.6996l0.0625985 -0.0614174c-10.3429,-10.3713 -16.761,-24.5965 -16.761,-40.1693l0 -164.095c0,-15.6862 6.39449,-29.9268 16.6984,-40.2307 10.3039,-10.3039 24.5445,-16.6996 40.2319,-16.6996z"/>
   <path id="_375746808" class="fil0" d="M1016.66 1482.23l164.095 0c15.5728,0 29.7981,6.4193 40.1693,16.761l0.0614174 -0.0614174c10.3039,10.3039 16.6996,24.5445 16.6996,40.2307l0 164.095c0,15.5433 -6.39449,29.739 -16.7008,40.1055l0.0011811 0.0011811 -0.0614174 0.0625985 -0.0625985 0.0614174 -0.0011811 -0.0011811c-10.3665,10.3063 -24.5622,16.7008 -40.1055,16.7008l-164.095 0c-15.6862,0 -29.9268,-6.39567 -40.2307,-16.6996l0.0614174 -0.0614174c-10.3417,-10.3713 -16.761,-24.5965 -16.761,-40.1693l0 -164.095c0,-15.6862 6.39567,-29.9268 16.6996,-40.2307 10.3039,-10.3039 24.5445,-16.6996 40.2307,-16.6996z"/>
   <path id="_375746352" class="fil0" d="M1307.92 1187.53l164.094 0c15.574,0 29.7981,6.41812 40.1693,16.761l0.0625985 -0.0625985c10.3039,10.3039 16.6984,24.5457 16.6984,40.2319l0 164.094c0,15.6874 -6.39449,29.928 -16.6984,40.2319l-0.0625985 -0.0625985c-10.3713,10.3429 -24.5953,16.761 -40.1693,16.761l-164.094 0c-15.6874,0 -29.928,-6.39449 -40.2319,-16.6984 -10.3039,-10.3039 -16.6984,-24.5445 -16.6984,-40.2319l0 -164.094c0,-15.6862 6.39449,-29.928 16.6984,-40.2319 10.3039,-10.3039 24.5445,-16.6984 40.2319,-16.6984z"/>
  </g>
 </g>
 <rect class="fil1" width="2048" height="2048"/>
</svg>
