<?xml version="1.0" encoding="UTF-8"?>
<!DOCTYPE svg PUBLIC "-//W3C//DTD SVG 1.1//EN" "http://www.w3.org/Graphics/SVG/1.1/DTD/svg11.dtd">
<!-- Creator: CorelDRAW -->
<svg xmlns="http://www.w3.org/2000/svg" xml:space="preserve" width="2048px" height="2048px" style="shape-rendering:geometricPrecision; text-rendering:geometricPrecision; image-rendering:optimizeQuality; fill-rule:evenodd; clip-rule:evenodd"
viewBox="0 0 2048 2048"
 xmlns:xlink="http://www.w3.org/1999/xlink">
 <defs>
  <style type="text/css">
   <![CDATA[
    .fil1 {fill:none}
    .fil0 {fill:#424242;fill-rule:nonzero}
   ]]>
  </style>
 </defs>
 <g id="Layer_x0020_1">
  <metadata id="CorelCorpID_0Corel-Layer"/>
  <g id="_375746736">
   <path id="_374547424" class="fil0" d="M589.557 546.154l393.832 173.034c14.165,6.22323 23.9386,17.2571 29.0528,30.3862 4.89213,12.5658 5.22993,27.0036 0.713386,40.4811l-167.726 500.574c-6.17599,18.4323 -18.8398,27.4583 -34.3855,31.6583 -9.56103,2.58307 -18.9992,2.5441 -27.9815,2.35866 -99.2871,-2.04213 -190.753,-21.8799 -274.635,-58.9548 -83.9056,-37.0843 -160.147,-91.3217 -228.965,-162.156 -6.27166,-6.45473 -12.7347,-13.4646 -17.4496,-22.591 -7.37245,-14.2701 -9.2504,-29.6681 0.0590552,-46.5272l255.244 -462.123c6.88465,-12.4665 17.8276,-22.024 30.5315,-26.9705 13.0358,-5.07756 27.6591,-5.34331 41.7107,0.830316z"/>
   <path id="_374547352" class="fil0" d="M417.071 830.991c-9.55749,-0.549213 -19.1941,-1.99134 -28.787,-4.29567 -9.62481,-2.31142 -18.854,-5.39646 -27.5646,-9.22324 -41.3611,-18.1725 -71.4461,-51.3993 -86.6469,-90.4229 -15.1642,-38.9315 -15.4807,-83.6386 2.64095,-124.886 18.1725,-41.3611 51.3993,-71.4449 90.4241,-86.6457 38.9315,-15.1642 83.6375,-15.4807 124.885,2.64095 15.3709,6.75355 29.5205,15.7914 42.0059,26.7272 12.4158,10.8768 23.2264,23.7177 31.9866,38.1331l-54.5008 33c-5.25237,-8.64331 -11.8394,-16.4339 -19.4858,-23.1331 -7.57796,-6.6378 -16.1705,-12.1252 -25.5059,-16.2272 -25.2484,-11.0929 -52.5922,-10.9087 -76.3843,-1.64173 -23.6988,9.23032 -43.8803,27.5103 -54.9248,52.6465 -11.0929,25.2496 -10.9087,52.5945 -1.64173,76.3855 9.23032,23.6977 27.5103,43.8792 52.6477,54.9237 5.63622,2.47677 11.2654,4.39016 16.8142,5.72245 5.58308,1.34055 11.4532,2.19567 17.5382,2.54528l-3.50079 63.7512z"/>
   <polygon id="_371562592" class="fil0" points="903.792,998.591 1133.45,1033.81 1247.93,953.264 1313.13,907.387 1297.68,985.514 1250.62,1223.41 1240.58,1274.16 1199.74,1242.53 1121.28,1181.77 882.147,1159.65 887.897,1096.15 "/>
   <path id="_375743688" class="fil0" d="M1318.25 1184.62c93.9485,18.8445 164.137,50.6244 210.223,103.417 46.8331,53.6493 67.0252,126.364 59.8571,225.945l-63.7512 -4.5c5.87245,-81.5753 -9.02363,-139.257 -44.1059,-179.445 -35.8311,-41.0445 -94.3938,-66.5552 -174.724,-82.6678l12.5008 -62.7497z"/>
   <path id="_375742776" class="fil0" d="M1346.28 1074.88c109.146,21.8929 200.144,76.4788 261.44,154.426 59.7898,76.0335 91.0288,173.802 83.0481,284.679l-63.7512 -4.5c6.78426,-94.2615 -19.3831,-176.884 -69.5481,-240.678 -51.8741,-65.9646 -129.721,-112.328 -223.689,-131.177l12.5008 -62.7497z"/>
   <path id="_375746400" class="fil0" d="M1368.53 955.782c123.441,13.865 225.507,84.0461 298.523,180.951 79.6938,105.771 124.824,244.081 124.823,375.003l-63.7512 0c0,-117.428 -40.5177,-241.537 -112.071,-336.503 -63.0815,-83.719 -150.234,-144.235 -254.522,-155.949l6.99922 -63.5008z"/>
  </g>
 </g>
 <rect class="fil1" width="2048" height="2048"/>
</svg>
