<?xml version="1.0" encoding="UTF-8"?>
<!DOCTYPE svg PUBLIC "-//W3C//DTD SVG 1.1//EN" "http://www.w3.org/Graphics/SVG/1.1/DTD/svg11.dtd">
<!-- Creator: CorelDRAW -->
<svg xmlns="http://www.w3.org/2000/svg" xml:space="preserve" width="2048px" height="2048px" style="shape-rendering:geometricPrecision; text-rendering:geometricPrecision; image-rendering:optimizeQuality; fill-rule:evenodd; clip-rule:evenodd"
viewBox="0 0 2048 2048"
 xmlns:xlink="http://www.w3.org/1999/xlink">
 <defs>
  <style type="text/css">
   <![CDATA[
    .fil2 {fill:none}
    .fil1 {fill:#424242}
    .fil0 {fill:#424242;fill-rule:nonzero}
   ]]>
  </style>
 </defs>
 <g id="Layer_x0020_1">
  <metadata id="CorelCorpID_0Corel-Layer"/>
  <g id="_374547472">
   <path id="_374548720" class="fil0" d="M1453.22 1683.33c0,17.6728 14.328,32.0008 32.0008,32.0008 17.6728,0 32.0008,-14.328 32.0008,-32.0008l0 -1318.67c0,-17.6728 -14.328,-32.0008 -32.0008,-32.0008l-1104 0c-17.6728,0 -32.0008,14.328 -32.0008,32.0008l0 1318.67c0,17.6728 14.328,32.0008 32.0008,32.0008 17.6728,0 32.0008,-14.328 32.0008,-32.0008l0 -1286.67 1040 0 0 1286.67z"/>
   <path id="_374548096" class="fil0" d="M288 577.999c-17.6728,0 -32.0008,14.328 -32.0008,32.0008 0,17.6728 14.328,32.0008 32.0008,32.0008l260.058 0c17.6728,0 32.0008,-14.328 32.0008,-32.0008 0,-17.6728 -14.328,-32.0008 -32.0008,-32.0008l-260.058 0zm1043.97 0c-17.6728,0 -32.0008,14.328 -32.0008,32.0008 0,17.6728 14.328,32.0008 32.0008,32.0008l273.358 0 0 213.333c0,17.6728 14.328,32.0008 32.0008,32.0008l122.666 0c17.6728,0 32.0008,-14.328 32.0008,-32.0008 0,-17.6728 -14.328,-32.0008 -32.0008,-32.0008l-90.665 0 0 -213.333c0,-17.6728 -14.328,-32.0008 -32.0008,-32.0008l-305.359 0z"/>
   <path id="_374548456" class="fil0" d="M595.974 485.999l500.438 0 0 250.224 -500.438 0c-21.0402,0 -40.4315,-7.69371 -54.7158,-20.0858 -15.5492,-13.4894 -25.2012,-32.4047 -25.2012,-53.4827l0 -103.088c0,-21.0792 9.65316,-39.9957 25.2012,-53.4815 14.2843,-12.3921 33.6744,-20.0858 54.7158,-20.0858zm600.945 0l87.1394 0c21.0414,0 40.4315,7.69371 54.7158,20.0858 15.548,13.4882 25.2012,32.4024 25.2012,53.4815l0 103.088c0,21.078 -9.65198,39.9933 -25.2012,53.4827 -14.2843,12.3921 -33.6756,20.0858 -54.7158,20.0858l-87.1394 0 0 -250.224z"/>
   <polygon id="_374547280" class="fil0" points="1164.92,485.999 1164.92,978 1128.41,978 1128.41,485.999 "/>
   <path id="_374547760" class="fil1" d="M1409.89 1652.67l0 -631.046c0,-20.8288 -8.49922,-39.7429 -22.1894,-53.4331 -13.6902,-13.6902 -32.6044,-22.1894 -53.4319,-22.1894 -254.9,0 -485.025,0 -802.093,0 -20.8299,0 -39.7429,8.49922 -53.4319,22.1894 -13.6902,13.6902 -22.1894,32.6044 -22.1894,53.4331l0 631.046 0.0011811 32.0008 31.9996 0 889.334 0 32.0008 0 0 -32.0008zm-266.531 -367.999c0,-17.6728 14.328,-32.0008 32.0008,-32.0008l167.45 0c17.6728,0 32.0008,14.328 32.0008,32.0008 0,17.6728 -14.328,32.0008 -32.0008,32.0008l-167.45 0c-17.6728,0 -32.0008,-14.328 -32.0008,-32.0008zm-295.839 29.3292l167.45 0c17.6728,0 32.0008,14.328 32.0008,32.0008 0,17.6728 -14.328,32.0008 -32.0008,32.0008l-167.45 0c-17.6728,0 -32.0008,-14.328 -32.0008,-32.0008 0,-17.6728 14.328,-32.0008 32.0008,-32.0008zm111.84 185.339c0,-17.6728 14.328,-32.0008 32.0008,-32.0008l167.45 0c17.6728,0 32.0008,14.328 32.0008,32.0008 0,17.6728 -14.328,32.0008 -32.0008,32.0008l-167.45 0c-17.6728,0 -32.0008,-14.328 -32.0008,-32.0008zm-435.724 -338.668l228.783 0c17.6728,0 32.0008,14.328 32.0008,32.0008 0,17.6728 -14.328,32.0008 -32.0008,32.0008l-228.783 0c-17.6728,0 -32.0008,-14.328 -32.0008,-32.0008 0,-17.6728 14.328,-32.0008 32.0008,-32.0008z"/>
  </g>
 </g>
 <rect class="fil2" width="2048" height="2048"/>
</svg>
