<?xml version="1.0" encoding="UTF-8"?>
<!DOCTYPE svg PUBLIC "-//W3C//DTD SVG 1.1//EN" "http://www.w3.org/Graphics/SVG/1.1/DTD/svg11.dtd">
<!-- Creator: CorelDRAW -->
<svg xmlns="http://www.w3.org/2000/svg" xml:space="preserve" width="2048px" height="2048px" style="shape-rendering:geometricPrecision; text-rendering:geometricPrecision; image-rendering:optimizeQuality; fill-rule:evenodd; clip-rule:evenodd"
viewBox="0 0 2048 2048"
 xmlns:xlink="http://www.w3.org/1999/xlink">
 <defs>
  <style type="text/css">
   <![CDATA[
    .fil1 {fill:none}
    .fil0 {fill:#424242;fill-rule:nonzero}
   ]]>
  </style>
 </defs>
 <g id="Layer_x0020_1">
  <metadata id="CorelCorpID_0Corel-Layer"/>
  <g id="_374548120">
   <path id="_374549368" class="fil0" d="M1050.17 270.251c122.121,181.625 137.436,314.255 107.889,394.946 -24.5811,67.1292 -79.0241,100.713 -133.879,100.739 -54.8174,0.0259843 -109.322,-33.515 -134.079,-100.629 -29.7437,-80.6327 -14.7201,-213.274 107.068,-395.055l26.4532 -39.4831 26.5477 39.4831z"/>
   <polygon id="_374549032" class="fil0" points="1056,734.06 1056,1760 991.998,1760 991.998,734.06 "/>
   <path id="_374549320" class="fil0" d="M740.484 634.478c186.977,113.8 256.438,227.874 263.403,313.572 5.78977,71.2394 -29.5866,124.528 -79.3867,147.525 -49.7327,22.963 -113.23,15.3331 -163.786,-35.2111 -60.8445,-60.8304 -102.814,-187.612 -68.3552,-403.635l7.49528 -46.9796 40.63 24.7288z"/>
   <path id="_374548912" class="fil0" d="M627.172 993.196c216.574,32.1236 324.952,110.198 364.699,186.437 33.0591,63.4123 21.2126,126.275 -15.7134,166.82 -36.9177,40.5355 -98.4202,58.2225 -164.681,31.311 -79.6855,-32.3646 -167.642,-132.849 -219.93,-345.318l-11.374 -46.2213 46.9996 6.97087z"/>
   <path id="_374549536" class="fil0" d="M1044.12 948.324c6.96378,-85.6973 76.4245,-199.772 263.401,-313.572l40.63 -24.7288 7.49528 46.9796c34.4469,215.949 -7.48347,342.717 -68.2938,403.572l0.0637796 0.0637796c-50.5819,50.5713 -114.128,58.1977 -163.91,35.2099 -49.8012,-22.9949 -85.1753,-76.2839 -79.3867,-147.525z"/>
   <path id="_374548144" class="fil0" d="M1056.13 1179.91c39.7465,-76.239 148.125,-154.315 364.699,-186.438l46.9996 -6.97087 -11.374 46.2213c-52.2874,212.47 -140.245,312.955 -219.931,345.319 -66.2611,26.9114 -127.762,9.22442 -164.68,-31.3122 -36.926,-40.5437 -48.7737,-103.406 -15.7134,-166.819z"/>
  </g>
 </g>
 <rect class="fil1" width="2048" height="2048"/>
</svg>
