<?xml version="1.0" encoding="UTF-8"?>
<!DOCTYPE svg PUBLIC "-//W3C//DTD SVG 1.1//EN" "http://www.w3.org/Graphics/SVG/1.1/DTD/svg11.dtd">
<!-- Creator: CorelDRAW -->
<svg xmlns="http://www.w3.org/2000/svg" xml:space="preserve" width="2048px" height="2048px" style="shape-rendering:geometricPrecision; text-rendering:geometricPrecision; image-rendering:optimizeQuality; fill-rule:evenodd; clip-rule:evenodd"
viewBox="0 0 2048 2048"
 xmlns:xlink="http://www.w3.org/1999/xlink">
 <defs>
  <style type="text/css">
   <![CDATA[
    .fil1 {fill:none}
    .fil0 {fill:#424242}
   ]]>
  </style>
 </defs>
 <g id="Layer_x0020_1">
  <metadata id="CorelCorpID_0Corel-Layer"/>
  <g id="_374549656">
   <path id="_374541928" class="fil0" d="M1024 255.999c204.356,0 398.577,80.4674 543.056,224.945 144.477,144.478 224.945,338.7 224.945,543.056 0,204.356 -80.4674,398.577 -224.945,543.056 -144.478,144.477 -338.7,224.945 -543.056,224.945 -204.356,0 -398.577,-80.4674 -543.056,-224.945 -144.477,-144.478 -224.945,-338.7 -224.945,-543.056 0,-204.356 80.4674,-398.577 224.945,-543.056 144.478,-144.477 338.7,-224.945 543.056,-224.945zm456.17 311.83c-121.399,-121.4 -284.46,-188.949 -456.17,-188.949 -171.71,0 -334.772,67.5497 -456.17,188.949 -121.4,121.399 -188.949,284.46 -188.949,456.17 0,171.71 67.5497,334.772 188.949,456.17 121.399,121.4 284.46,188.949 456.17,188.949 171.71,0 334.772,-67.5497 456.17,-188.949 121.4,-121.399 188.949,-284.46 188.949,-456.17 0,-171.71 -67.5497,-334.772 -188.949,-456.17z"/>
   <polygon id="_374541904" class="fil0" points="1085.44,287.789 1085.44,1760.21 962.56,1760.21 962.56,287.789 "/>
   <polygon id="_374549728" class="fil0" points="287.789,962.56 1760.21,962.56 1760.21,1085.44 287.789,1085.44 "/>
   <polygon id="_374549608" class="fil0" points="1588.02,546.863 546.863,1588.02 459.978,1501.14 1501.14,459.978 "/>
   <polygon id="_374549848" class="fil0" points="1501.14,1588.02 459.978,546.863 546.863,459.978 1588.02,1501.14 "/>
  </g>
 </g>
 <rect class="fil1" width="2048" height="2048"/>
</svg>
