<?xml version="1.0" encoding="UTF-8"?>
<!DOCTYPE svg PUBLIC "-//W3C//DTD SVG 1.1//EN" "http://www.w3.org/Graphics/SVG/1.1/DTD/svg11.dtd">
<!-- Creator: CorelDRAW -->
<svg xmlns="http://www.w3.org/2000/svg" xml:space="preserve" width="2048px" height="2048px" style="shape-rendering:geometricPrecision; text-rendering:geometricPrecision; image-rendering:optimizeQuality; fill-rule:evenodd; clip-rule:evenodd"
viewBox="0 0 2048 2048"
 xmlns:xlink="http://www.w3.org/1999/xlink">
 <defs>
  <style type="text/css">
   <![CDATA[
    .fil1 {fill:none}
    .fil0 {fill:#424242;fill-rule:nonzero}
   ]]>
  </style>
 </defs>
 <g id="Layer_x0020_1">
  <metadata id="CorelCorpID_0Corel-Layer"/>
  <g id="_374542936">
   <path id="_374543440" class="fil0" d="M1349.49 597.413c54.8103,0 103.83,28.8177 138.77,75.4064 32.9504,43.9335 53.3327,104.02 53.3327,169.836 0,8.17087 -0.330709,16.3205 -0.97441,24.424l-181.58 0c4.22481,-23.6362 6.32835,-47.6481 6.32835,-71.6599 0,-67.1422 -16.5484,-135.833 -50.9457,-193.922 11.4236,-2.68229 23.1437,-4.08426 35.0693,-4.08426z"/>
   <path id="_374543800" class="fil0" d="M512.371 899.761l1210.53 0c13.2165,0 28.1729,5.05867 39.9638,12.535 7.70906,4.88504 14.7366,11.2406 19.8449,18.4004 7.73977,10.8473 11.237,23.4083 8.20394,36.8303 -1.73268,7.65119 -5.46615,14.7461 -11.5665,20.9788l-305.659 312.216c-29.628,-13.6193 -62.1107,-20.8394 -95.4851,-20.8394 -60.8304,0 -118.701,23.9788 -161.708,66.9851 -22.7067,22.7079 -40.1067,49.5591 -51.4772,78.802l-476.125 0c-15.0496,0 -27.7205,-10.174 -31.5189,-24.0177l-175.97 -457.532 -0.142913 0.0555119c-6.47953,-16.8461 1.9252,-35.7567 18.7713,-42.2363 4.06181,-1.5626 8.24292,-2.25709 12.3402,-2.17795z"/>
   <path id="_374543056" class="fil0" d="M1378.2 1312.56c54.1229,0 103.127,21.9425 138.599,57.4134 35.4733,35.4721 57.4134,84.4772 57.4134,138.599 0,54.1229 -21.9402,103.126 -57.4134,138.599 -35.4721,35.4721 -84.476,57.4146 -138.599,57.4146 -54.1229,0 -103.126,-21.9402 -138.599,-57.4134 -35.4721,-35.4733 -57.4146,-84.4772 -57.4146,-138.6 0,-54.1229 21.9425,-103.127 57.4146,-138.599 35.4733,-35.4733 84.476,-57.4134 138.599,-57.4134zm53.3788 142.634c-13.6583,-13.6595 -32.5323,-22.1079 -53.3788,-22.1079 -20.8477,0 -39.7205,8.44843 -53.38,22.1079 -13.6595,13.6583 -22.1079,32.5323 -22.1079,53.3788 0,20.8465 8.44843,39.7205 22.1079,53.38 13.6595,13.6595 32.5323,22.1079 53.38,22.1079 20.8465,0 39.7205,-8.44961 53.3788,-22.1091 13.6595,-13.6595 22.1091,-32.5323 22.1091,-53.3788 0,-20.8465 -8.44961,-39.7205 -22.1091,-53.3788z"/>
   <polygon id="_374543128" class="fil0" points="481.38,944.317 392.13,717.14 255.999,717.14 255.999,651.775 414.339,651.775 436.548,651.775 444.722,672.584 542.146,920.57 "/>
   <path id="_374542960" class="fil0" d="M857.169 597.413c13.0571,0 25.8496,1.67244 38.263,4.86142 -34.0866,57.9237 -50.4874,126.301 -50.4874,193.145 0,24.0118 2.10473,48.0237 6.32953,71.6599l-185.232 0c-0.643701,-8.10355 -0.97441,-16.2532 -0.97441,-24.424 0,-65.8158 20.3811,-125.902 53.3315,-169.836 34.9406,-46.5886 83.9599,-75.4064 138.77,-75.4064z"/>
   <path id="_374543176" class="fil0" d="M1105.15 502.942c64.5934,0 122.47,34.1044 163.82,89.2406 39.3614,52.4823 63.7087,124.377 63.7087,203.236 0,24.5906 -2.3941,48.6118 -6.8941,71.6599l-441.27 0c-4.49882,-23.048 -6.89292,-47.0693 -6.89292,-71.6599 0,-78.8587 24.3473,-150.754 63.7087,-203.236 41.3504,-55.1363 99.2268,-89.2406 163.819,-89.2406z"/>
   <path id="_374542984" class="fil0" d="M1062.9 530.312c6.76064,-26.126 8.2193,-50.9906 2.6126,-74.165 -5.5252,-22.8402 -18.1961,-44.8902 -39.7949,-65.9457 -3.85748,-31.1067 9.72875,-47.9599 45.4477,-46.7256 30.9083,30.1299 49.2981,62.7473 57.6697,97.3524 8.29016,34.2685 6.49252,69.6367 -2.8689,105.824l-63.0662 -16.3406z"/>
   <path id="_374543368" class="fil0" d="M778.91 1411.55c0,-18.0496 -14.6327,-32.6823 -32.6823,-32.6823 -18.0496,0 -32.6823,14.6327 -32.6823,32.6823l0 240.985c0,18.0484 14.6327,32.6823 32.6823,32.6823 18.0496,0 32.6823,-14.6339 32.6823,-32.6823l0 -240.985z"/>
   <path id="_374542792" class="fil0" d="M985.692 1409.32c0,-18.0496 -14.6327,-32.6823 -32.6823,-32.6823 -18.0496,0 -32.6823,14.6327 -32.6823,32.6823l-196.09 240.984c0,18.0496 14.6339,32.6823 32.6835,32.6823 25.7055,0 199.704,-237.944 228.771,-273.666z"/>
  </g>
 </g>
 <rect class="fil1" width="2048" height="2048"/>
</svg>
