<?xml version="1.0" encoding="UTF-8"?>
<!DOCTYPE svg PUBLIC "-//W3C//DTD SVG 1.1//EN" "http://www.w3.org/Graphics/SVG/1.1/DTD/svg11.dtd">
<!-- Creator: CorelDRAW -->
<svg xmlns="http://www.w3.org/2000/svg" xml:space="preserve" width="2048px" height="2048px" style="shape-rendering:geometricPrecision; text-rendering:geometricPrecision; image-rendering:optimizeQuality; fill-rule:evenodd; clip-rule:evenodd"
viewBox="0 0 2048 2048"
 xmlns:xlink="http://www.w3.org/1999/xlink">
 <defs>
  <style type="text/css">
   <![CDATA[
    .fil1 {fill:none}
    .fil0 {fill:#424242}
   ]]>
  </style>
 </defs>
 <g id="Layer_x0020_1">
  <metadata id="CorelCorpID_0Corel-Layer"/>
  <g id="_374544184">
   <path id="_374544496" class="fil0" d="M1168.82 1014.07c0,-66.4666 -54.6697,-124.356 -143.054,-164.217 -80.7674,-36.4276 -191.603,-58.9571 -313.357,-58.9571 -121.755,0 -232.589,22.5295 -313.356,58.9571 -88.3855,39.8611 -143.055,97.7505 -143.055,164.217 0,29.0445 10.435,56.4792 29.6469,81.6048 14.9929,19.6063 35.5323,37.7681 60.6839,54.0662l0 554.477c0,20.2134 8.24883,38.5677 21.5315,51.8528 13.285,13.2827 31.6418,21.5327 51.854,21.5327l585.391 0c20.2134,0 38.5666,-8.25001 51.8493,-21.5327 13.285,-13.285 21.5327,-31.6394 21.5327,-51.8528l0 -554.477c25.1516,-16.2992 45.6922,-34.4587 60.6863,-54.0662 19.213,-25.1244 29.6469,-52.5603 29.6469,-81.6048zm-397.116 10.415c13.2921,-16.9843 32.1922,-27.2705 53.5559,-26.8311 21.4004,0.43937 39.8717,11.4756 52.4315,28.9607 10.5024,14.6209 16.826,34.1044 16.5295,55.0548l0.120473 0.0011811 -0.129921 0.643701c-0.435827,21.2362 -7.57323,40.6961 -18.7583,54.9874 -13.2921,16.9843 -32.1969,27.2681 -53.5548,26.8311 -21.4016,-0.43937 -39.874,-11.4791 -52.4327,-28.9595 -10.6099,-14.7732 -16.9524,-34.5059 -16.5189,-55.7008 0.434646,-21.2351 7.57323,-40.6996 18.7571,-54.9874zm-235.08 345.026l0 0zm0.129921 -0.64252c0.543308,-26.5288 9.38859,-50.7437 23.2453,-68.4497 15.828,-20.2229 38.1201,-32.5394 63.1867,-32.2382l0.00236221 -0.122835 0.64252 0.129921c25.3666,0.523229 47.3882,13.7764 62.478,34.7811 13.0335,18.1441 20.8642,42.4524 20.4591,68.6894l0.120473 0.0011811 -0.129921 0.64252c-0.543308,26.5276 -9.39095,50.7461 -23.2453,68.4485 -15.9614,20.3988 -38.5063,32.7567 -63.8327,32.2359 -25.3701,-0.519685 -47.3894,-13.7776 -62.4768,-34.7811 -13.0335,-18.1441 -20.8642,-42.4512 -20.4591,-68.6906l-0.120473 -0.00354331 0.129921 -0.64252zm329.412 100.143l0.644882 0.127559c21.1051,0.433465 39.3154,11.3067 51.6874,28.5307 10.3158,14.3563 16.526,33.4819 16.2366,54.0426l0.120473 0 -0.129921 0.648426c-0.426378,20.8394 -7.43977,39.9485 -18.4252,53.9847 -12.9602,16.5614 -31.3465,26.6563 -52.1469,26.4378l0 0.119291 -0.647245 -0.129921c-21.1051,-0.433465 -39.3142,-11.3055 -51.6851,-28.526 -10.3158,-14.3563 -16.5284,-33.4855 -16.239,-54.0426l-0.120473 0 0.131102 -0.647245c0.427559,-20.8441 7.44095,-39.9496 18.4264,-53.9882 12.9591,-16.5591 31.3477,-26.6551 52.1445,-26.4366l0.00236221 -0.120473z"/>
   <path id="_374544328" class="fil0" d="M1792 466.999c0,-58.5544 -48.1618,-109.552 -126.023,-144.667 -71.1508,-32.0894 -168.791,-51.9378 -276.05,-51.9378 -107.258,0 -204.897,19.8484 -276.049,51.9378 -77.8619,35.1154 -126.023,86.1131 -126.023,144.667 0,25.5851 9.19253,49.7552 26.1177,71.8867 13.2071,17.2736 31.3004,33.2717 53.4591,47.6304l0 247.179c69.2623,37.2496 134.332,96.8446 134.332,180.378 0,37.5969 -13.7173,71.9245 -36.4205,101.616 -6.47599,8.46851 -13.6087,16.4398 -21.2351,23.9374l503.666 0c17.8075,0 33.9756,-7.26851 45.6768,-18.9697 11.7036,-11.7036 18.9685,-27.874 18.9685,-45.678l0 -488.463c22.1575,-14.3599 40.2532,-30.3567 53.4615,-47.6304 16.9264,-22.1315 26.1177,-46.3016 26.1177,-71.8867zm-349.836 9.17363c11.7083,-14.9622 28.3583,-24.0236 47.1792,-23.6362 18.8516,0.386221 35.1248,10.1091 46.1882,25.513 9.25276,12.8799 14.8228,30.0425 14.563,48.4996l0.105118 0.0011811 -0.115748 0.56693c-0.382677,18.7075 -6.66969,35.8512 -16.5236,48.4406 -11.7083,14.9622 -28.363,24.0225 -47.1792,23.6362 -18.8528,-0.387402 -35.126,-10.1126 -46.1894,-25.5118 -9.34607,-13.0134 -14.9351,-30.3969 -14.5524,-49.0689 0.382677,-18.7075 6.67205,-35.8536 16.5248,-48.4406zm-207.092 303.949l0 0zm0.114567 -0.56693c0.478347,-23.3705 8.27009,-44.7024 20.478,-60.2989 13.9429,-17.8169 33.5811,-28.6666 55.6642,-28.4008l0.0011811 -0.108662 0.56693 0.115748c22.3465,0.459449 41.7449,12.1347 55.0382,30.639 11.4815,15.9839 18.3803,37.3973 18.0236,60.5115l0.105118 0.0011811 -0.113386 0.565748c-0.479528,23.3705 -8.27245,44.7036 -20.478,60.2989 -14.061,17.9705 -33.9225,28.8567 -56.2323,28.3984 -22.35,-0.458268 -41.7485,-12.137 -55.0382,-30.6414 -11.4827,-15.9827 -18.3803,-37.3961 -18.0236,-60.5115l-0.106299 -0.00236221 0.114567 -0.56693zm290.192 88.2201l0.568111 0.112205c18.5929,0.382677 34.6347,9.96142 45.5327,25.1351 9.08859,12.6473 14.5583,29.4945 14.3043,47.6079l0.106299 0 -0.114567 0.570473c-0.375591,18.3591 -6.55394,35.1922 -16.2319,47.5583 -11.4165,14.589 -27.613,23.4827 -45.9378,23.289l0 0.106299 -0.570473 -0.114567c-18.5929,-0.381496 -34.6335,-9.96024 -45.5303,-25.1303 -9.08859,-12.6473 -14.5606,-29.4981 -14.3055,-47.6079l-0.106299 0 0.114567 -0.570473c0.376772,-18.3626 6.55512,-35.1933 16.2331,-47.5595 11.4165,-14.5878 27.6154,-23.4827 45.9366,-23.2902l0.0011811 -0.106299z"/>
  </g>
 </g>
 <rect class="fil1" width="2048" height="2048"/>
</svg>
