<?xml version="1.0" encoding="UTF-8"?>
<!DOCTYPE svg PUBLIC "-//W3C//DTD SVG 1.1//EN" "http://www.w3.org/Graphics/SVG/1.1/DTD/svg11.dtd">
<!-- Creator: CorelDRAW -->
<svg xmlns="http://www.w3.org/2000/svg" xml:space="preserve" width="2048px" height="2048px" style="shape-rendering:geometricPrecision; text-rendering:geometricPrecision; image-rendering:optimizeQuality; fill-rule:evenodd; clip-rule:evenodd"
viewBox="0 0 2048 2048"
 xmlns:xlink="http://www.w3.org/1999/xlink">
 <defs>
  <style type="text/css">
   <![CDATA[
    .fil2 {fill:none}
    .fil1 {fill:#424242}
    .fil0 {fill:#424242;fill-rule:nonzero}
   ]]>
  </style>
 </defs>
 <g id="Layer_x0020_1">
  <metadata id="CorelCorpID_0Corel-Layer"/>
  <g id="_374546248">
   <path id="_374546704" class="fil0" d="M268.402 987.529l872.626 -680.034c9.94371,-9.28583 25.1362,-11.5063 37.604,-4.4504l-15.763 27.8492 15.75 -27.75 594.997 336.777c8.54174,4.02402 15.2303,11.7709 17.5441,21.6792 4.01929,17.2087 -6.67441,34.4197 -23.8831,38.439l-0.0283465 -0.0354331 -1470.24 343.389c-12.2268,3.58111 -25.9406,-0.386221 -34.2473,-11.0457 -10.8626,-13.9394 -8.36812,-34.0488 5.57126,-44.9115l0.0732284 0.0933072z"/>
   <path id="_374546464" class="fil1" d="M1785.83 1393.61l0 -665.086 -9.04843 2.11299c-0.734646,0.200788 -1.47638,0.387402 -2.22402,0.562205l-31.161 7.27796 -0.00944883 -0.0401575 -1439.1 336.116c-11.1165,2.59606 -22.5166,2.41063 -33.137,-0.416929l0 642.969 0 39.7937 38.876 -8.66812 1450.68 -323.495 25.1256 -5.60315 0 -25.5225zm-675.083 -291.859c0,29.5063 -11.9646,56.2229 -31.3028,75.5611 -19.3382,19.3382 -46.0548,31.3028 -75.5611,31.3028 -29.5063,0 -56.2229,-11.9646 -75.5611,-31.3028 -19.3382,-19.3382 -31.3028,-46.0548 -31.3028,-75.5611 0,-29.5063 11.9634,-56.2241 31.3016,-75.5623 19.3382,-19.3382 46.0559,-31.3016 75.5623,-31.3016 29.5063,0 56.2241,11.9634 75.5623,31.3016 19.3382,19.3382 31.3016,46.0559 31.3016,75.5623zm400.545 -97.8107c23.6705,23.6705 38.3114,56.3717 38.3114,92.4863 0,36.1158 -14.641,68.8158 -38.3114,92.4851 -23.6693,23.6693 -56.3682,38.3114 -92.4851,38.3114 -36.1146,0 -68.8158,-14.6421 -92.4851,-38.3114 -23.6705,-23.6705 -38.3126,-56.3693 -38.3126,-92.4851 0,-36.1146 14.6421,-68.8158 38.3126,-92.4863 23.6693,-23.6693 56.3705,-38.3114 92.4851,-38.3114 36.1158,0 68.8146,14.6421 92.4851,38.3114zm-666.592 327.924c25.9441,0 49.4363,10.5189 66.4418,27.5232 17.0055,17.0055 27.5232,40.4977 27.5232,66.4406 0,25.9453 -10.5177,49.4374 -27.5232,66.4418 -17.0067,17.0055 -40.5,27.5244 -66.4418,27.5244 -25.9441,0 -49.4351,-10.5189 -66.4406,-27.5244 -17.0055,-17.0043 -27.5244,-40.4965 -27.5244,-66.4418 0,-25.9429 10.5189,-49.4351 27.5244,-66.4406 17.0055,-17.0043 40.4965,-27.5232 66.4406,-27.5232zm334.726 -93.6154c29.5063,0 56.2229,11.9634 75.5611,31.3016 19.3382,19.3382 31.3028,46.0559 31.3028,75.5611 0,29.5063 -11.9646,56.2229 -31.3028,75.5611 -19.3382,19.3394 -46.0548,31.3028 -75.5611,31.3028 -29.5051,0 -56.2229,-11.9634 -75.5611,-31.3016 -19.3382,-19.3382 -31.3016,-46.0559 -31.3016,-75.5623 0,-29.5051 11.9634,-56.2229 31.3016,-75.5611 19.3382,-19.3382 46.0559,-31.3016 75.5611,-31.3016zm-565.189 -87.7725c29.5051,0 56.2229,11.9646 75.5611,31.3028 19.3382,19.3382 31.3016,46.0559 31.3016,75.5611 0,29.5063 -11.9634,56.2241 -31.3016,75.5623 -19.3382,19.3382 -46.0559,31.3016 -75.5611,31.3016 -29.5063,0 -56.2241,-11.9634 -75.5623,-31.3016 -19.3382,-19.3382 -31.3016,-46.0559 -31.3016,-75.5623 0,-29.5051 11.9634,-56.2229 31.3016,-75.5611 19.3382,-19.3382 46.0559,-31.3028 75.5623,-31.3028z"/>
   <path id="_374546200" class="fil1" d="M1492.81 1096.43c0,-20.439 -8.2819,-38.941 -21.6732,-52.3311 -13.389,-13.389 -31.891,-21.6721 -52.33,-21.6721 -20.439,0 -38.941,8.2819 -52.3311,21.6721 -13.389,13.389 -21.6721,31.8922 -21.6721,52.3311 0,20.439 8.28308,38.941 21.6721,52.33 13.3902,13.3902 31.8922,21.6732 52.3311,21.6732 20.439,0 38.9422,-8.28308 52.33,-21.6732 13.3902,-13.3878 21.6732,-31.891 21.6732,-52.33z"/>
   <path id="_374546416" class="fil1" d="M1053.95 1101.75c0,-13.8295 -5.60434,-26.3504 -14.6622,-35.4083 -9.0567,-9.0567 -21.5776,-14.661 -35.4071,-14.661 -13.8295,0 -26.3504,5.60434 -35.4083,14.661 -9.0567,9.05788 -14.661,21.5788 -14.661,35.4083 0,13.8295 5.60552,26.3492 14.6622,35.4071 9.05788,9.0567 21.5776,14.6622 35.4071,14.6622 13.8295,0 26.3492,-5.60552 35.4071,-14.6622 9.0567,-9.05788 14.6622,-21.5776 14.6622,-35.4071z"/>
   <path id="_374546152" class="fil1" d="M664.304 1257.34c0,-13.8295 -5.60552,-26.3492 -14.6634,-35.4059 -9.0567,-9.05788 -21.5764,-14.6634 -35.4059,-14.6634 -13.8295,0 -26.3504,5.60552 -35.4083,14.6634 -9.05788,9.0567 -14.661,21.5764 -14.661,35.4059 0,13.8295 5.60315,26.3504 14.661,35.4083 9.05788,9.0567 21.5788,14.661 35.4083,14.661 13.8295,0 26.3492,-5.60434 35.4059,-14.661 9.05788,-9.05788 14.6634,-21.5788 14.6634,-35.4083z"/>
   <path id="_374546008" class="fil1" d="M870.985 1452.12c6.7252,-6.7252 10.885,-16.0193 10.885,-26.2878 0,-10.2661 -4.15985,-19.5614 -10.885,-26.2855 -6.72402,-6.7252 -16.0181,-10.885 -26.2866,-10.885 -10.2685,0 -19.5614,4.15985 -26.2866,10.885 -6.72402,6.72402 -10.8839,16.0193 -10.8839,26.2855 0,10.2685 4.15985,19.5626 10.8839,26.2878 6.7252,6.72402 16.0193,10.8839 26.2866,10.8839 10.2685,0 19.5626,-4.15985 26.2866,-10.8839z"/>
   <path id="_374545912" class="fil1" d="M1214.83 1380.52c9.05788,-9.05788 14.6622,-21.5776 14.6622,-35.4071 0,-13.8295 -5.60434,-26.3492 -14.6622,-35.4059 -9.05788,-9.05788 -21.5776,-14.6634 -35.4071,-14.6634 -13.8295,0 -26.3492,5.60552 -35.4059,14.6634 -9.05788,9.0567 -14.6634,21.5764 -14.6634,35.4059 0,13.8295 5.60552,26.3504 14.6634,35.4083 9.0567,9.05788 21.5764,14.661 35.4059,14.661 13.8295,0 26.3492,-5.60434 35.4071,-14.6622z"/>
  </g>
 </g>
 <rect class="fil2" width="2048" height="2048"/>
</svg>
