<?xml version="1.0" encoding="UTF-8"?>
<!DOCTYPE svg PUBLIC "-//W3C//DTD SVG 1.1//EN" "http://www.w3.org/Graphics/SVG/1.1/DTD/svg11.dtd">
<!-- Creator: CorelDRAW -->
<svg xmlns="http://www.w3.org/2000/svg" xml:space="preserve" width="2048px" height="2048px" style="shape-rendering:geometricPrecision; text-rendering:geometricPrecision; image-rendering:optimizeQuality; fill-rule:evenodd; clip-rule:evenodd"
viewBox="0 0 2048 2048"
 xmlns:xlink="http://www.w3.org/1999/xlink">
 <defs>
  <style type="text/css">
   <![CDATA[
    .fil1 {fill:none}
    .fil0 {fill:#424242;fill-rule:nonzero}
   ]]>
  </style>
 </defs>
 <g id="Layer_x0020_1">
  <metadata id="CorelCorpID_0Corel-Layer"/>
  <path class="fil0" d="M921.44 479.397c40.467,-37.7504 69.1406,-56.6315 102.559,-56.6315 34.8485,0 64.5378,20.5311 107.818,61.578l-106.269 112.254 -104.108 -117.201zm107.786 672.603c-17.6728,0 -32.0008,14.328 -32.0008,32.0008 0,17.6728 14.328,32.0008 32.0008,32.0008l86.5701 0c17.6728,0 32.0008,-14.328 32.0008,-32.0008 0,-17.6728 -14.328,-32.0008 -32.0008,-32.0008l-86.5701 0zm86.5701 428.378c-17.6728,0 -32.0008,14.328 -32.0008,32.0008 0,17.6728 14.328,32.0008 32.0008,32.0008l86.569 0c17.6728,0 32.0008,-14.328 32.0008,-32.0008 0,-17.6728 -14.328,-32.0008 -32.0008,-32.0008l-86.569 0zm-275.387 -244.786c-17.6728,0 -32.0008,14.328 -32.0008,32.0008 0,17.6728 14.328,32.0008 32.0008,32.0008l152.993 0c17.6728,0 32.0008,-14.328 32.0008,-32.0008 0,-17.6728 -14.328,-32.0008 -32.0008,-32.0008l-152.993 0zm458.306 -691.325c9.14056,6.52441 15.9697,15.1181 15.9697,33.3142l0 203.942 -137.028 -129.721 121.058 -107.536zm15.9697 588.626l0 477.382c0,13.7055 -5.58544,26.1449 -14.5819,35.1425 -8.99646,8.99646 -21.4347,14.5819 -35.1402,14.5819l-481.926 0c-13.7067,0 -26.1449,-5.58544 -35.1414,-14.5819 -8.99646,-8.99764 -14.5819,-21.437 -14.5819,-35.1425l0 -500.943 289.135 -305.424 271.468 305.605 20.7673 23.3799zm-581.371 -362.469l0 -192.843c0,-6.62599 1.37244,-13.0536 3.84449,-19.0063 2.56181,-6.15827 6.23741,-11.6339 10.7374,-16.1351 1.84488,-1.84488 3.62953,-3.34134 5.36811,-4.57323l117.079 110.835 -137.029 121.723zm384.681 -119.277l-1.47992 -12.1996c-2.51103,-20.7047 -11.8642,-39.8398 -26.6173,-54.593 -14.3209,-14.3221 -32.7886,-23.5689 -52.8367,-26.387l-12.163 -1.70906 -12.2032 1.47992c-20.7036,2.51221 -39.8398,11.863 -54.5918,26.6162 -14.3221,14.3209 -23.5689,32.7886 -26.387,52.8367l-1.71024 12.1654 1.47992 12.1996c2.51103,20.7036 11.8642,39.8398 26.6173,54.5918 14.3221,14.3221 32.7886,23.5701 52.8367,26.3882l12.1654 1.71024 12.1996 -1.47992c20.7059,-2.51103 39.8386,-11.8654 54.593,-26.6185 14.3221,-14.3197 23.5689,-32.7886 26.387,-52.8355l1.71024 -12.1654z"/>
  <path class="fil0" d="M1024 657.055c25.7327,0 49.0323,10.4327 65.8973,27.3 16.8673,16.865 27.3,40.1646 27.3,65.8973 0,25.7303 -10.4327,49.0323 -27.3,65.8973 -16.8662,16.8662 -40.1646,27.3 -65.8973,27.3 -25.7327,0 -49.0311,-10.4339 -65.8973,-27.3 -16.8673,-16.865 -27.3,-40.167 -27.3,-65.8973 0,-25.7327 10.4327,-49.0323 27.3,-65.8973 16.865,-16.8673 40.1646,-27.3 65.8973,-27.3z"/>
  <path class="fil0" d="M1006.49 874.224l-287.733 303.945 -21.6225 22.8402 -22.1244 -22.1232 -90.3296 -90.3296 -22.9288 -22.9288 24.2433 -21.5339 313.728 -278.685c3.35315,27.6484 15.8268,53.439 35.7579,73.3678 19.363,19.3618 44.2548,31.6866 71.0091,35.4473zm-106.458 -141.487l-303.945 -287.733 -22.8402 -21.6225 22.1232 -22.1244 90.3296 -90.3296 22.9288 -22.9288 21.5339 24.2433 278.682 313.729c-27.6473,3.35433 -53.4355,15.8268 -73.3654,35.7555 -19.3618,19.363 -31.6866,44.2559 -35.4473,71.0103zm141.487 -106.458l287.733 -303.945 21.6225 -22.8402 22.1244 22.1232 90.3296 90.3296 22.9288 22.9288 -24.2433 21.5339 -313.728 278.685c-3.35315,-27.6484 -15.8268,-53.4367 -35.7567,-73.3678 -19.363,-19.3618 -44.2559,-31.6866 -71.0103,-35.4473zm106.458 141.487l303.945 287.733 22.8402 21.6225 -22.1232 22.1244 -90.3296 90.3296 -22.9288 22.9288 -21.5339 -24.2433 -278.685 -313.728c27.6484,-3.35315 53.4355,-15.8268 73.3666,-35.7567 19.363,-19.3606 31.6878,-44.2548 35.4485,-71.0103z"/>
 </g>
 <rect class="fil1" width="2048" height="2048"/>
</svg>
