<?xml version="1.0" encoding="UTF-8"?>
<!DOCTYPE svg PUBLIC "-//W3C//DTD SVG 1.1//EN" "http://www.w3.org/Graphics/SVG/1.1/DTD/svg11.dtd">
<!-- Creator: CorelDRAW -->
<svg xmlns="http://www.w3.org/2000/svg" xml:space="preserve" width="2048px" height="2048px" style="shape-rendering:geometricPrecision; text-rendering:geometricPrecision; image-rendering:optimizeQuality; fill-rule:evenodd; clip-rule:evenodd"
viewBox="0 0 2048 2048"
 xmlns:xlink="http://www.w3.org/1999/xlink">
 <defs>
  <style type="text/css">
   <![CDATA[
    .fil2 {fill:none}
    .fil0 {fill:#424242}
    .fil1 {fill:#424242;fill-rule:nonzero}
   ]]>
  </style>
 </defs>
 <g id="Layer_x0020_1">
  <metadata id="CorelCorpID_0Corel-Layer"/>
  <g id="_277418896">
   <polygon id="_277419808" class="fil0" points="1070.6,295.281 1070.6,1430.32 974.603,1430.32 974.603,295.281 "/>
   <path id="_277419760" class="fil1" d="M983.754 1382.32l77.6977 0c27.6414,0 52.7469,11.2854 70.9264,29.4662 18.1807,18.1795 29.4662,43.2851 29.4662,70.9264l0 84.8079 0 32.0008 -32.0008 0 -214.481 0 -32.0008 0 0 -32.0008 0 -84.8079c0,-27.6414 11.2854,-52.7469 29.4662,-70.9264 18.1795,-18.1807 43.2851,-29.4662 70.9264,-29.4662z"/>
   <path id="_277418680" class="fil1" d="M840.679 1535.52l363.847 0c16.7315,0 31.9205,6.8256 42.9095,17.8146 10.9913,10.9913 17.8146,26.1827 17.8146,42.9107l0 95.752c0,16.728 -6.82441,31.9181 -17.8158,42.9095l-0.125197 0c-10.9913,10.989 -26.1378,17.8158 -42.7831,17.8158l-363.847 0c-16.5815,0 -31.728,-6.82205 -42.7831,-17.8169l-0.0011811 0.0011811 -0.0625985 -0.0625985 -0.0625985 -0.0625985 0.0011811 -0.0011811c-10.9937,-11.0539 -17.8158,-26.1981 -17.8158,-42.7831l0 -95.752c0,-16.6465 6.82323,-31.7953 17.8122,-42.7866l0 -0.125197c10.9902,-10.9902 26.1815,-17.8134 42.9118,-17.8134z"/>
   <polygon id="_277419376" class="fil0" points="731.487,906.719 1590.76,906.719 1590.76,1002.72 731.487,1002.72 "/>
   <polygon id="_277418920" class="fil1" points="1539.15,954.672 1485.09,845.22 1442.81,759.629 1528.09,802.595 1772.98,925.979 1829.54,954.479 1772.98,982.979 1527.14,1106.84 1441.07,1150.21 1484.26,1064.09 "/>
   <polygon id="_277418800" class="fil1" points="286.603,830.799 623.638,830.799 640.013,835.424 793.21,927.343 838.836,954.719 793.21,982.094 640.013,1074.01 623.638,1078.64 286.603,1078.64 218.458,1078.64 262.103,1026.26 321.722,954.719 262.103,883.175 218.458,830.799 "/>
  </g>
 </g>
 <rect class="fil2" width="2048" height="2048"/>
</svg>
